<svg xmlns="http://www.w3.org/2000/svg" viewBox="0 0 500 500"><g id="freepik--background-simple--inject-7"><path d="M464.5,109.55q-2.38-4.27-5-8.38c-23.18-36.42-63.07-61.33-102.31-72.6a219.32,219.32,0,0,0-52.71-8.15c-116.62-4.2-163.07,93.27-201.61,118.43S5,207,9,297.1s65.22,175,183.81,180.27S319.31,426,385.52,405.05c43.82-13.87,75-60.72,90.2-104C496.5,242,495.52,165.37,464.5,109.55Z" style="fill:#92E3A9"></path><path d="M464.5,109.55q-2.38-4.27-5-8.38c-23.18-36.42-63.07-61.33-102.31-72.6a219.32,219.32,0,0,0-52.71-8.15c-116.62-4.2-163.07,93.27-201.61,118.43S5,207,9,297.1s65.22,175,183.81,180.27S319.31,426,385.52,405.05c43.82-13.87,75-60.72,90.2-104C496.5,242,495.52,165.37,464.5,109.55Z" style="fill:#fff;opacity:0.7000000000000001"></path></g><g id="freepik--Table--inject-7"><line x1="467.55" y1="312.86" x2="492.96" y2="312.86" style="fill:#92E3A9;stroke:#263238;stroke-linecap:round;stroke-linejoin:round"></line><line x1="17.65" y1="312.86" x2="458.58" y2="312.86" style="fill:#92E3A9;stroke:#263238;stroke-linecap:round;stroke-linejoin:round"></line></g><g id="freepik--Bricks--inject-7"><path d="M86.38,288.87H43.77a13.44,13.44,0,0,1-13.43-13.43V241.91a13.44,13.44,0,0,1,13.43-13.44h92.52a13.44,13.44,0,0,1,13.44,13.44v33.53a13.44,13.44,0,0,1-13.44,13.43H102.56" style="fill:none;stroke:#263238;stroke-linecap:round;stroke-linejoin:round"></path><rect x="159.09" y="228.47" width="119.38" height="60.39" rx="13.43" style="fill:none;stroke:#263238;stroke-linecap:round;stroke-linejoin:round"></rect><path d="M91.78,94.36h42a13.43,13.43,0,0,1,13.43,13.43v33.53a13.43,13.43,0,0,1-13.43,13.43H41.27a13.43,13.43,0,0,1-13.43-13.43V107.79A13.43,13.43,0,0,1,41.27,94.36H81.89" style="fill:none;stroke:#263238;stroke-linecap:round;stroke-linejoin:round"></path><rect x="155.43" y="94.36" width="119.38" height="60.39" rx="13.43" style="fill:none;stroke:#263238;stroke-linecap:round;stroke-linejoin:round"></rect><path d="M87.93,183v-8.46a13.43,13.43,0,0,1,13.43-13.43h92.52a13.43,13.43,0,0,1,13.43,13.43V208a13.43,13.43,0,0,1-13.43,13.43H101.36A13.43,13.43,0,0,1,87.93,208V191" style="fill:none;stroke:#263238;stroke-linecap:round;stroke-linejoin:round"></path><path d="M442.27,228.47h20.82a13.44,13.44,0,0,1,13.43,13.44v33.53a13.44,13.44,0,0,1-13.43,13.43h-46" style="fill:none;stroke:#263238;stroke-linecap:round;stroke-linejoin:round"></path><path d="M409,288.87H370.57a13.44,13.44,0,0,1-13.44-13.43V241.91a13.44,13.44,0,0,1,13.44-13.44h62.72" style="fill:none;stroke:#263238;stroke-linecap:round;stroke-linejoin:round"></path><rect x="357.13" y="94.36" width="119.38" height="60.39" rx="13.43" style="fill:none;stroke:#263238;stroke-linecap:round;stroke-linejoin:round"></rect><path d="M338.92,221.45H311.36A13.43,13.43,0,0,1,297.93,208V174.49a13.43,13.43,0,0,1,13.43-13.43h92.52a13.43,13.43,0,0,1,13.43,13.43V208a13.43,13.43,0,0,1-13.43,13.43H351.5" style="fill:none;stroke:#263238;stroke-linecap:round;stroke-linejoin:round"></path><path d="M297.93,53.54V39.22a13.43,13.43,0,0,1,13.43-13.43h92.52a13.43,13.43,0,0,1,13.43,13.43V72.75a13.43,13.43,0,0,1-13.43,13.43h-33.5" style="fill:none;stroke:#263238;stroke-linecap:round;stroke-linejoin:round"></path><path d="M360.49,86.18H311.36a13.43,13.43,0,0,1-13.43-13.43V65.22" style="fill:none;stroke:#263238;stroke-linecap:round;stroke-linejoin:round"></path><path d="M460.32,147.49a2,2,0,1,1-2-2A2,2,0,0,1,460.32,147.49Z" style="fill:none;stroke:#263238;stroke-linecap:round;stroke-linejoin:round"></path><path d="M464.89,134.06a2.29,2.29,0,1,1-2.29-2.29A2.28,2.28,0,0,1,464.89,134.06Z" style="fill:none;stroke:#263238;stroke-linecap:round;stroke-linejoin:round"></path><path d="M444.32,136.06a2,2,0,1,1-2-2A2,2,0,0,1,444.32,136.06Z" style="fill:none;stroke:#263238;stroke-linecap:round;stroke-linejoin:round"></path><path d="M448.32,118.92a1.43,1.43,0,1,1-1.43-1.43A1.43,1.43,0,0,1,448.32,118.92Z" style="fill:none;stroke:#263238;stroke-linecap:round;stroke-linejoin:round"></path><path d="M324.35,72.07a2,2,0,1,1-2-2A2,2,0,0,1,324.35,72.07Z" style="fill:none;stroke:#263238;stroke-linecap:round;stroke-linejoin:round"></path><path d="M328.92,58.65a2.29,2.29,0,1,1-2.29-2.29A2.29,2.29,0,0,1,328.92,58.65Z" style="fill:none;stroke:#263238;stroke-linecap:round;stroke-linejoin:round"></path><path d="M308.35,60.65a2,2,0,1,1-2-2A2,2,0,0,1,308.35,60.65Z" style="fill:none;stroke:#263238;stroke-linecap:round;stroke-linejoin:round"></path><path d="M312.35,43.51a1.43,1.43,0,1,1-1.43-1.43A1.43,1.43,0,0,1,312.35,43.51Z" style="fill:none;stroke:#263238;stroke-linecap:round;stroke-linejoin:round"></path><path d="M48.64,248.92a2,2,0,1,1,.9,2.68A2,2,0,0,1,48.64,248.92Z" style="fill:none;stroke:#263238;stroke-linecap:round;stroke-linejoin:round"></path><path d="M38.54,258.87a2.29,2.29,0,1,1,1,3.07A2.29,2.29,0,0,1,38.54,258.87Z" style="fill:none;stroke:#263238;stroke-linecap:round;stroke-linejoin:round"></path><path d="M57.82,266.3a2,2,0,1,1,.89,2.69A2,2,0,0,1,57.82,266.3Z" style="fill:none;stroke:#263238;stroke-linecap:round;stroke-linejoin:round"></path><path d="M46.56,279.83a1.43,1.43,0,1,1,.64,1.92A1.43,1.43,0,0,1,46.56,279.83Z" style="fill:none;stroke:#263238;stroke-linecap:round;stroke-linejoin:round"></path><path d="M445.34,255.12A2,2,0,1,1,448,256,2,2,0,0,1,445.34,255.12Z" style="fill:none;stroke:#263238;stroke-linecap:round;stroke-linejoin:round"></path><path d="M447.42,269.15a2.29,2.29,0,1,1,3.08,1A2.29,2.29,0,0,1,447.42,269.15Z" style="fill:none;stroke:#263238;stroke-linecap:round;stroke-linejoin:round"></path><path d="M464.79,258a2,2,0,1,1,2.7.87A2,2,0,0,1,464.79,258Z" style="fill:none;stroke:#263238;stroke-linecap:round;stroke-linejoin:round"></path><path d="M469.08,275a1.43,1.43,0,1,1,1.93.62A1.43,1.43,0,0,1,469.08,275Z" style="fill:none;stroke:#263238;stroke-linecap:round;stroke-linejoin:round"></path><path d="M111.73,104.72a2,2,0,1,1,2.69.86A2,2,0,0,1,111.73,104.72Z" style="fill:none;stroke:#263238;stroke-linecap:round;stroke-linejoin:round"></path><path d="M113.81,118.74a2.29,2.29,0,0,1,4.07-2.09,2.29,2.29,0,0,1-4.07,2.09Z" style="fill:none;stroke:#263238;stroke-linecap:round;stroke-linejoin:round"></path><path d="M131.18,107.55a2,2,0,1,1,2.7.86A2,2,0,0,1,131.18,107.55Z" style="fill:none;stroke:#263238;stroke-linecap:round;stroke-linejoin:round"></path><path d="M46.63,148.11a2,2,0,1,1,2.69.87A2,2,0,0,1,46.63,148.11Z" style="fill:none;stroke:#263238;stroke-linecap:round;stroke-linejoin:round"></path><path d="M135.47,124.62a1.43,1.43,0,1,1,1.93.62A1.43,1.43,0,0,1,135.47,124.62Z" style="fill:none;stroke:#263238;stroke-linecap:round;stroke-linejoin:round"></path><path d="M39,139.94a1.43,1.43,0,1,1,2.54-1.31A1.43,1.43,0,0,1,39,139.94Z" style="fill:none;stroke:#263238;stroke-linecap:round;stroke-linejoin:round"></path><path d="M361.76,181.89a2,2,0,1,1,2.7.86A2,2,0,0,1,361.76,181.89Z" style="fill:none;stroke:#263238;stroke-linecap:round;stroke-linejoin:round"></path><path d="M348.6,170.53a2.29,2.29,0,1,1,3.07,1A2.28,2.28,0,0,1,348.6,170.53Z" style="fill:none;stroke:#263238;stroke-linecap:round;stroke-linejoin:round"></path><path d="M398.49,166.74a2,2,0,1,1,2.69.86A2,2,0,0,1,398.49,166.74Z" style="fill:none;stroke:#263238;stroke-linecap:round;stroke-linejoin:round"></path><path d="M328.06,219a2,2,0,1,1,2.69.86A2,2,0,0,1,328.06,219Z" style="fill:none;stroke:#263238;stroke-linecap:round;stroke-linejoin:round"></path><path d="M405.43,181.12a1.43,1.43,0,1,1,1.92.61A1.44,1.44,0,0,1,405.43,181.12Z" style="fill:none;stroke:#263238;stroke-linecap:round;stroke-linejoin:round"></path><path d="M391.63,183.85a1.43,1.43,0,1,1,2.54-1.31,1.42,1.42,0,0,1-.61,1.92A1.44,1.44,0,0,1,391.63,183.85Z" style="fill:none;stroke:#263238;stroke-linecap:round;stroke-linejoin:round"></path><path d="M320.44,210.84a1.43,1.43,0,1,1,1.92.62A1.42,1.42,0,0,1,320.44,210.84Z" style="fill:none;stroke:#263238;stroke-linecap:round;stroke-linejoin:round"></path></g><g id="freepik--Dish--inject-7"><ellipse cx="249.36" cy="394.7" rx="157.73" ry="58.67" style="fill:#263238"></ellipse><path d="M409.45,390.75c-12.8,27.82-71.68,55.44-160.09,55.44s-147.55-27.5-160.09-55.44C76.39,362,161,335.32,249.36,335.32S421.53,364.49,409.45,390.75Z" style="fill:#919191;stroke:#263238;stroke-linecap:round;stroke-linejoin:round"></path><ellipse cx="249.36" cy="375.93" rx="165.17" ry="55.44" style="fill:#d6d6d6;stroke:#263238;stroke-linecap:round;stroke-linejoin:round"></ellipse><path d="M249.36,341.12c80.65,0,147.74,19.35,161.83,44.9a20.6,20.6,0,0,0,2.72-10c0-30.31-73.67-54.89-164.55-54.89S84.81,345.72,84.81,376a20.5,20.5,0,0,0,2.73,10C101.62,360.47,168.71,341.12,249.36,341.12Z" style="fill:#c4c4c4"></path></g><g id="freepik--Frappe--inject-7"><rect x="150.86" y="41.85" width="12" height="132.12" transform="translate(-28.1 62.76) rotate(-20.81)" style="fill:#fff;stroke:#263238;stroke-linecap:round;stroke-linejoin:round"></rect><polygon points="159.08 96.86 152.31 79.05 137.06 72.69 144.1 91.23 159.08 96.86" style="fill:#92E3A9;stroke:#263238;stroke-linecap:round;stroke-linejoin:round"></polygon><polygon points="139 44.02 127.79 48.29 129.38 52.48 144.7 59.01 139 44.02" style="fill:#92E3A9;stroke:#263238;stroke-linecap:round;stroke-linejoin:round"></polygon><polygon points="172.88 133.16 166.31 115.87 151 109.39 157.96 127.7 172.88 133.16" style="fill:#92E3A9;stroke:#263238;stroke-linecap:round;stroke-linejoin:round"></polygon><polygon points="184.62 164.06 179.26 149.96 164.23 144.19 169.58 158.26 184.62 164.06" style="fill:#92E3A9;stroke:#263238;stroke-linecap:round;stroke-linejoin:round"></polygon><path d="M281.81,383.77c-7.95-8.27-29.44-14.19-54.73-14.19-26.13,0-48.21,6.32-55.49,15l1.73,11.58a7.28,7.28,0,0,0,3.2,5.08c10,6.46,28.87,10.82,50.56,10.82,22.46,0,41.93-4.67,51.58-11.51a7.34,7.34,0,0,0,3-5.95Z" style="fill:#92E3A9;stroke:#263238;stroke-linecap:round;stroke-linejoin:round"></path><path d="M146.39,210.26l22.66,169c0,11.73,26,21.24,58,21.24s58-9.51,58-21.24l22.66-166.48Z" style="fill:#92E3A9;stroke:#263238;stroke-linecap:round;stroke-linejoin:round"></path><path d="M179,275.2a3.14,3.14,0,0,1,1.81,2.88,3,3,0,1,1-5.9,0,3.23,3.23,0,0,1,.64-1.95" style="fill:#92E3A9;stroke:#263238;stroke-linecap:round;stroke-linejoin:round"></path><path d="M197.92,323.06a3.14,3.14,0,0,1,1.81,2.88,3,3,0,1,1-5.9,0,3.23,3.23,0,0,1,.64-1.95" style="fill:#92E3A9;stroke:#263238;stroke-linecap:round;stroke-linejoin:round"></path><path d="M278.32,238.15a3.13,3.13,0,0,1,1.8,2.88,3,3,0,1,1-5.9,0,3.24,3.24,0,0,1,.65-1.95" style="fill:#92E3A9;stroke:#263238;stroke-linecap:round;stroke-linejoin:round"></path><path d="M215.8,370.39a3.15,3.15,0,0,1,1.8,2.89,3,3,0,1,1-5.89,0,3.28,3.28,0,0,1,.64-2" style="fill:#92E3A9;stroke:#263238;stroke-linecap:round;stroke-linejoin:round"></path><path d="M297.8,225.69a3.15,3.15,0,0,1,1.8,2.89,3,3,0,1,1-5.9,0,3.29,3.29,0,0,1,.65-2" style="fill:#92E3A9;stroke:#263238;stroke-linecap:round;stroke-linejoin:round"></path><path d="M271.47,343.75a4.18,4.18,0,0,1,2.39,3.83,3.92,3.92,0,1,1-7.82,0,4.29,4.29,0,0,1,.86-2.6" style="fill:#92E3A9;stroke:#263238;stroke-linecap:round;stroke-linejoin:round"></path><path d="M205.22,281a4,4,0,0,1,2.28,3.65,3.74,3.74,0,1,1-7.47,0,4.12,4.12,0,0,1,.82-2.48" style="fill:#92E3A9;stroke:#263238;stroke-linecap:round;stroke-linejoin:round"></path><ellipse cx="227.08" cy="206.71" rx="84.25" ry="21.24" style="fill:#92E3A9;stroke:#263238;stroke-linecap:round;stroke-linejoin:round"></ellipse><ellipse cx="227.08" cy="196.96" rx="90.07" ry="21.24" style="fill:#fff;stroke:#263238;stroke-linecap:round;stroke-linejoin:round"></ellipse><path d="M240,99.21s-1.56.78.26-2.33a13.22,13.22,0,0,1,4.93-4.67s-8.56-2.34-14.79,2.59-5.19,9.08-7,11.94-9.08,5.7-12.71,9.33-6.23,9.86-6.23,9.86-9.08,4.41-13.75,8-9.34,10.38-9.6,12.71-5.7-.52-10.89,4.93S166.83,162,166.83,162a11,11,0,0,0-3.89,4.41c-1,2.59-2.08,4.92-2.08,4.92s-5.19.52-9.34,6.23-8,12.71-8,16.34-7,9.6,18.68,16.09,82.23,7.26,109.2,2.59,38.14-8.3,39.17-14.53-1-9.34-3.37-14-4.93-8.56-5.45-13,.26-8-4.41-12.2a32.06,32.06,0,0,0-10.63-6s.78-8.56-5.71-13.49a64.84,64.84,0,0,0-13.75-7.78s-.77-1.3-5.18-5.45-6.49-6-6.49-6a59.62,59.62,0,0,0-8-11.93C242.31,102.33,240,99.21,240,99.21Z" style="fill:#fff;stroke:#263238;stroke-linecap:round;stroke-linejoin:round"></path><path d="M206.52,129.56s-.52,3.63,5.18,7.78,12.2,7.53,15.57,7.53,8.3-5.19,10.37-6a21.71,21.71,0,0,1,3.63-1S241,135,235.05,135s-12.45,2.85-17.9,2.59S206.52,129.56,206.52,129.56Z" style="fill:#263238;stroke:#263238;stroke-linecap:round;stroke-linejoin:round"></path><path d="M227.27,148s5.44,3.37,3.11,6-5.19,1.55-9.08,1.55a111.9,111.9,0,0,1-14-1.55c-3.11-.52-6-.78-6-.78s.78,4.67-1.56,5.19-8.3-2.34-8.3-2.34l-7.26-4.67s8.82,8,13,10.9l4.15,2.85s-1.56-1.82,3.63-3.11,10.12-.52,15-2.34a59.76,59.76,0,0,1,11.16-2.59s31.39,6.74,32.94,7,8.56,0,9.6-3.11-1-9.86,1.81-10.9,6.75,0,6.75,0-1.82-3.63-4.67-4.41-12.45-2.07-12.45-2.07,3.37,2.59,2.59,5.71-2.07,5.7-9.85,5.18-10.12-.77-15.83-2.33S227.27,148,227.27,148Z" style="fill:#263238;stroke:#263238;stroke-linecap:round;stroke-linejoin:round"></path><line x1="265.14" y1="143.57" x2="248.8" y2="140.46" style="fill:none;stroke:#263238;stroke-linecap:round;stroke-linejoin:round"></line><path d="M251.65,138.38a4.17,4.17,0,0,1,3.63-4.93c4.41-.78,11.93-1.81,11.93-1.81s-1.81-2.34-4.41-2.08-4.15.78-6.22.78-1.56-3.11-5.45-.78a21.27,21.27,0,0,0-6.48,5.71l-1,1.3Z" style="fill:#263238;stroke:#263238;stroke-linecap:round;stroke-linejoin:round"></path><path d="M255.54,120.22a23.71,23.71,0,0,1-3.63,3.89c-2.59,2.34-4.67,3.12-6.74,2.08s-7.27-5.19-8.82-2.59a39.32,39.32,0,0,1-2.6,3.89s-4.41-4.67-6.22-5.71-7.27,2.08-7.79,3.89-2.07,5.71-2.07,5.71l-4.15-2.08s1-6.22,2.07-7.78-.51-2.59-2.85-2.33-2.07-3.64.26-4.67,6.74-3.12,8.56-5.45a12.89,12.89,0,0,0,2.85-5.71c.52-2.07,3.89-3.63,3.89-3.63A5.43,5.43,0,0,0,227,106c1.55,3.89,4.67.26,4.67.26s-.52,6-.78,8l-.26,2.07s5.19,4.93,7.26,4.41,2.6-4.41,4.93-4.15,4.41,5.71,6.23,3.63,1-3.63,2.07-4.41Z" style="fill:#263238;stroke:#263238;stroke-linecap:round;stroke-linejoin:round"></path><path d="M297.3,158.87s-3.11-.51-3.37,2.6,1.3,5.45-.26,7.26-12.45-2.59-11.93,0,.78,8.82-2.33,9.86-11.42,0-20.76.26-23.86-2.86-28.27-3.63a25,25,0,0,1-6-1.56s7.27,4.93,2.34,8-13.75,1.3-16.6,1.82-7.27-.78-7.27-.78,9.08,4.15,14.27,3.89,9.08-.52,11.93-.78a70.53,70.53,0,0,1,8-.78c3.38,0,14.79,3.12,20.24.26s7-3.89,8.82-4.15,16.08,3.63,19.19,2.08,4.41-5.45,6-6,6-1.3,7-2.59.52-6.49,1.3-8a20.63,20.63,0,0,0,1.3-3.9A20.71,20.71,0,0,0,297.3,158.87Z" style="fill:#263238;stroke:#263238;stroke-linecap:round;stroke-linejoin:round"></path><path d="M304.57,180.66s-2.08,3.89-3.37,4.41-1-.78-4.93.26-4.15,1-6.23,2.08-1.56,1.29-4.67,2.85-4.15,2.59-7.26,2.59h-5.19c-1.56,0-1.3.52-4.41-.51s-16.08-4.15-19.19-3.89-5.19,1-8,1.29-10.11-1.81-13.22-.26-3.9,3.37-8.56,4.15-8.05-1.55-11.94-1.55-7.52.52-8.56.52-12.45-3.9-15-2.6-2.34,4.15-4.93,6.23-10.12,3.63-16.08,2.59-10.12-3.89-11.68-6.22a43.12,43.12,0,0,1-3.11-6.23s0,6.23,1.56,10.38a16.84,16.84,0,0,0,4.93,6.74s-1.82,1.56,1.81,2.59,7.26,1,14.53-.26,8.56-.77,10.63-1.81,6.49-4.15,11.94-5.45a70.91,70.91,0,0,0,10.11-2.85l1.82-.78s11.93,4.15,15.3,4.15,7.27-2.07,9.34-2.07,4.93,1.55,10.64-.26,8.82-4.93,11.93-5.45,34.24,6.48,34.24,6.48,7.78-3.37,10.89-5.44,2.08-4.41,5.19-4.41h3.11S306.64,185.33,304.57,180.66Z" style="fill:#263238;stroke:#263238;stroke-linecap:round;stroke-linejoin:round"></path><path d="M201.07,182.48s-12.71-1.56-13.75-1.82-2.59,3.12-6.23,3.38-8.82-4.41-12.45-5.19-4.93,0-5.44-1.3-2.34-6.23-2.34-6.23-3.11.26-3.37,2.86-1.56,6-.78,9.86a8.67,8.67,0,0,0,3.11,5.44s0-3.11,5.19-6.48,15.57,2.85,15.57,2.85,4.15,2.34,5.7,2.34,2.86,1.29,6.23.26S201.07,182.48,201.07,182.48Z" style="fill:#263238;stroke:#263238;stroke-linecap:round;stroke-linejoin:round"></path><path d="M168.64,164.32A23.61,23.61,0,0,0,181.87,177" style="fill:none;stroke:#263238;stroke-linecap:round;stroke-linejoin:round"></path><path d="M210.71,178.36a69.69,69.69,0,0,0,10.59,2" style="fill:none;stroke:#263238;stroke-linecap:round;stroke-linejoin:round"></path><path d="M176.17,151.09s-2.6,6.75,7.52,15c6,4.91,15.16,8.74,23.37,11.2" style="fill:none;stroke:#263238;stroke-linecap:round;stroke-linejoin:round"></path><path d="M208.33,167.43a30.31,30.31,0,0,0,12.19,5.19" style="fill:none;stroke:#263238;stroke-linecap:round;stroke-linejoin:round"></path><path d="M189.14,138.9s-2.34,6.23,9.59,11.67" style="fill:none;stroke:#263238;stroke-linecap:round;stroke-linejoin:round"></path><path d="M260,207.85c2.65.91,5.17,1.88,7.45,2.9" style="fill:none;stroke:#263238;stroke-linecap:round;stroke-linejoin:round"></path><path d="M226.75,199.6a270.42,270.42,0,0,1,28,6.57" style="fill:none;stroke:#263238;stroke-linecap:round;stroke-linejoin:round"></path><line x1="291.6" y1="198.82" x2="304.31" y2="200.9" style="fill:none;stroke:#263238;stroke-linecap:round;stroke-linejoin:round"></line><path d="M193.92,205.82a300.36,300.36,0,0,1,44.24,6.49" style="fill:none;stroke:#263238;stroke-linecap:round;stroke-linejoin:round"></path><path d="M185,205.31s2.24.06,6.08.31" style="fill:none;stroke:#263238;stroke-linecap:round;stroke-linejoin:round"></path><path d="M164,192.08a82.86,82.86,0,0,0,14.27,6.74" style="fill:none;stroke:#263238;stroke-linecap:round;stroke-linejoin:round"></path><line x1="279.67" y1="167.95" x2="272.4" y2="165.36" style="fill:none;stroke:#263238;stroke-linecap:round;stroke-linejoin:round"></line></g><g id="freepik--Cookies--inject-7"><ellipse cx="355.79" cy="357.93" rx="34.98" ry="18.95" style="fill:#263238;stroke:#263238;stroke-linecap:round;stroke-linejoin:round"></ellipse><ellipse cx="355.79" cy="351.86" rx="34.98" ry="18.95" style="fill:#fff;stroke:#263238;stroke-linecap:round;stroke-linejoin:round"></ellipse><ellipse cx="355.79" cy="345.5" rx="34.98" ry="18.95" style="fill:#263238;stroke:#263238;stroke-linecap:round;stroke-linejoin:round"></ellipse><path d="M343.86,344.27c0,1-1.48,1.83-3.3,1.83s-3.29-.82-3.29-1.83,1.47-1.84,3.29-1.84S343.86,343.25,343.86,344.27Z" style="fill:#fff;stroke:#263238;stroke-linecap:round;stroke-linejoin:round"></path><path d="M373.22,344.56c0,1-1.47,1.83-3.29,1.83s-3.29-.82-3.29-1.83,1.47-1.84,3.29-1.84S373.22,343.54,373.22,344.56Z" style="fill:#fff;stroke:#263238;stroke-linecap:round;stroke-linejoin:round"></path><path d="M359.06,353.52c0,1-1.47,1.83-3.29,1.83s-3.3-.82-3.3-1.83,1.48-1.84,3.3-1.84S359.06,352.5,359.06,353.52Z" style="fill:#fff;stroke:#263238;stroke-linecap:round;stroke-linejoin:round"></path><path d="M357.62,336.85c0,1-1.48,1.84-3.3,1.84s-3.29-.82-3.29-1.84,1.47-1.83,3.29-1.83S357.62,335.84,357.62,336.85Z" style="fill:#fff;stroke:#263238;stroke-linecap:round;stroke-linejoin:round"></path><ellipse cx="312.57" cy="403.31" rx="34.98" ry="18.95" style="fill:#263238;stroke:#263238;stroke-linecap:round;stroke-linejoin:round"></ellipse><ellipse cx="312.57" cy="397.24" rx="34.98" ry="18.95" style="fill:#fff;stroke:#263238;stroke-linecap:round;stroke-linejoin:round"></ellipse><ellipse cx="312.57" cy="390.89" rx="34.98" ry="18.95" style="fill:#263238;stroke:#263238;stroke-linecap:round;stroke-linejoin:round"></ellipse><path d="M300.64,389.65c0,1-1.47,1.84-3.29,1.84s-3.3-.82-3.3-1.84,1.48-1.83,3.3-1.83S300.64,388.64,300.64,389.65Z" style="fill:#fff;stroke:#263238;stroke-linecap:round;stroke-linejoin:round"></path><path d="M330,389.94c0,1-1.48,1.84-3.3,1.84s-3.29-.83-3.29-1.84,1.47-1.83,3.29-1.83S330,388.93,330,389.94Z" style="fill:#fff;stroke:#263238;stroke-linecap:round;stroke-linejoin:round"></path><path d="M315.84,398.9c0,1-1.47,1.84-3.29,1.84s-3.29-.83-3.29-1.84,1.47-1.83,3.29-1.83S315.84,397.89,315.84,398.9Z" style="fill:#fff;stroke:#263238;stroke-linecap:round;stroke-linejoin:round"></path><ellipse cx="311.11" cy="382.24" rx="3.29" ry="1.84" style="fill:#fff;stroke:#263238;stroke-linecap:round;stroke-linejoin:round"></ellipse><ellipse cx="361.73" cy="387.98" rx="34.98" ry="18.95" style="fill:#263238;stroke:#263238;stroke-linecap:round;stroke-linejoin:round"></ellipse><ellipse cx="361.73" cy="381.91" rx="34.98" ry="18.95" style="fill:#fff;stroke:#263238;stroke-linecap:round;stroke-linejoin:round"></ellipse><ellipse cx="361.73" cy="375.55" rx="34.98" ry="18.95" style="fill:#263238;stroke:#263238;stroke-linecap:round;stroke-linejoin:round"></ellipse><path d="M349.8,374.32c0,1-1.48,1.83-3.3,1.83s-3.29-.82-3.29-1.83,1.47-1.84,3.29-1.84S349.8,373.3,349.8,374.32Z" style="fill:#fff;stroke:#263238;stroke-linecap:round;stroke-linejoin:round"></path><path d="M379.16,374.61c0,1-1.47,1.83-3.29,1.83s-3.29-.82-3.29-1.83,1.47-1.84,3.29-1.84S379.16,373.59,379.16,374.61Z" style="fill:#fff;stroke:#263238;stroke-linecap:round;stroke-linejoin:round"></path><path d="M365,383.57c0,1-1.47,1.83-3.29,1.83s-3.3-.82-3.3-1.83,1.48-1.84,3.3-1.84S365,382.55,365,383.57Z" style="fill:#fff;stroke:#263238;stroke-linecap:round;stroke-linejoin:round"></path><path d="M363.56,366.9c0,1-1.48,1.84-3.3,1.84s-3.29-.82-3.29-1.84,1.47-1.83,3.29-1.83S363.56,365.89,363.56,366.9Z" style="fill:#fff;stroke:#263238;stroke-linecap:round;stroke-linejoin:round"></path></g></svg>
