<svg xmlns="http://www.w3.org/2000/svg" viewBox="0 0 500 500"><g id="freepik--Floor--inject-8"><path id="freepik--floor--inject-8" d="M83.61,254.71c-91.9,53-91.9,139.07,0,192.13s240.89,53.05,332.79,0,91.9-139.08,0-192.13S175.51,201.65,83.61,254.71Z" style="fill:#fafafa"></path></g><g id="freepik--Shadows--inject-8"><path id="freepik--Shadow--inject-8" d="M331.28,212.2,36,382.68a6.27,6.27,0,0,1-5.69,0L23,378.49c-1.57-.91-1.57-2.38,0-3.29L318.34,204.72a6.31,6.31,0,0,1,5.68,0l7.26,4.2C332.85,209.82,332.85,211.29,331.28,212.2Z" style="fill:#e0e0e0"></path><ellipse id="freepik--shadow--inject-8" cx="387.37" cy="356.72" rx="92.51" ry="53.41" style="fill:#e0e0e0"></ellipse><g id="freepik--shadow--inject-8"><path d="M298.37,257.7,140.19,353.1c-14.57-7.61-34-8.36-54.76,1.69-21.84,10.57-41,34.9-23.07,45.26s60.09-.7,78.41-13.31c14.11-9.72,15.93-18.93,9.08-26.56l166.57-92.06C322.22,264.77,304.17,254.35,298.37,257.7Z" style="fill:#e0e0e0"></path></g></g><g id="freepik--Napkin--inject-8"><g id="freepik--napkin--inject-8"><polygon points="37.71 445.02 304.45 471.38 331.42 275.45 37.71 445.02" style="fill:#e0e0e0"></polygon><polygon points="37.71 445.02 306.34 457.67 331.42 275.45 37.71 445.02" style="opacity:0.1"></polygon><polygon points="37.71 445.02 340.22 450.1 331.42 275.45 37.71 445.02" style="fill:#f0f0f0"></polygon><polygon points="339.28 431.46 338.49 415.75 94.88 412.02 68.38 427.32 339.28 431.46" style="fill:#BA68C8"></polygon></g></g><g id="freepik--Straw--inject-8"><g id="freepik--straw--inject-8"><path d="M26,366.74a3.27,3.27,0,0,0-1.36,3,10.32,10.32,0,0,0,4.66,8.08,3.28,3.28,0,0,0,3.3.32L325.47,209.09a3.29,3.29,0,0,0,1.37-3,10.28,10.28,0,0,0-4.67-8.07,3.24,3.24,0,0,0-3.29-.33Z" style="fill:#BA68C8"></path><path d="M326.84,206.07a10.28,10.28,0,0,0-4.67-8.07,3.24,3.24,0,0,0-3.29-.33l-1.26.73c4.67,7.24-1.67,11.39-20,22L27.48,376.32a8.08,8.08,0,0,0,1.84,1.51,3.28,3.28,0,0,0,3.3.32L325.47,209.09A3.29,3.29,0,0,0,326.84,206.07Z" style="opacity:0.2"></path><path d="M29.32,377.83a3.28,3.28,0,0,0,3.3.32,3.27,3.27,0,0,0,1.36-3,10.32,10.32,0,0,0-4.66-8.08,3.28,3.28,0,0,0-3.3-.32,3.27,3.27,0,0,0-1.36,3A10.32,10.32,0,0,0,29.32,377.83Z" style="fill:#BA68C8"></path><path d="M29.32,377.83a3.28,3.28,0,0,0,3.3.32,3.27,3.27,0,0,0,1.36-3,10.32,10.32,0,0,0-4.66-8.08,3.28,3.28,0,0,0-3.3-.32,3.27,3.27,0,0,0-1.36,3A10.32,10.32,0,0,0,29.32,377.83Z" style="opacity:0.45"></path></g></g><g id="freepik--Spoon--inject-8"><g id="freepik--spoon--inject-8"><g id="freepik--tea-spoon--inject-8"><path d="M60.76,385.14l-.06,0c5.71,4.64,12.26,9.1,27.72,9.82s36.55-2.51,52.66-14.17c15.44-11.18,14.27-24.37,11.94-30.39-.22-.33-2.91-4.8-3.17-5.1l-9.65-7.09a59.29,59.29,0,0,0-29-4.79c-22.13,2.15-47.89,16.6-54.94,36.09C53.82,376.36,56,381.52,60.76,385.14Z" style="fill:#37474f"></path><path d="M316.42,255.79,147,349.43a52.2,52.2,0,0,0-10.81-6.24v-2.51l162.19-97.82c5-2.9,19.16,4.49,19.17,8.71,0,.41,0,2.09,0,2.52A1.94,1.94,0,0,1,316.42,255.79Z" style="fill:#37474f"></path><path d="M298.37,242.86c5.8-3.35,23.85,7.07,18.05,10.42L147,346.92a51,51,0,0,0-10.81-6.24Z" style="fill:#455a64"></path><path d="M148,344.28s141.47-77.8,152-83.56c11.56-6.33,18.6-9.22,11.25-13.46-8.61-5-10.71-2.78-10.71-2.78a19.06,19.06,0,0,1,8.07,2.78c4.34,2.77.56,6.47-7.92,10.54S148,344.28,148,344.28Z" style="fill:#fff;opacity:0.1"></path><path d="M140.77,371.89c-18.32,12.61-60.45,23.69-78.41,13.32s1.23-34.69,23.07-45.27c21.61-10.46,41.81-9.22,56.56-.7S158.89,359.42,140.77,371.89Z" style="fill:#455a64"></path><path d="M57.07,380.27C60.16,370,74.66,356.92,88.91,349.8c20.16-10.07,36.72-9.58,47.25-2.38s9.9,17.61-7.77,29.38a88.56,88.56,0,0,1-10.89,6c-19.49,6.54-42.91,9.43-55.14,2.37A14.69,14.69,0,0,1,57.07,380.27Z" style="fill:#fff;opacity:0.05"></path><path d="M120.06,374.81C107.4,383.25,80.89,391.23,71.81,385s5.81-22.13,20.25-29.35,26.05-6.8,33.51-1.69S132.6,366.46,120.06,374.81Z" style="fill:#fff;opacity:0.05"></path></g></g></g><g id="freepik--Donut--inject-8"><g id="freepik--donut--inject-8"><path d="M474.22,323.9C461.11,254.76,315,254.68,301,323.28,281.21,420.43,489.88,421.28,474.22,323.9ZM406.48,330c-10.84,6.22-28.35,6.15-39-.6,10.94-7,29.05-7,40-.05C407.2,329.61,406.85,329.83,406.48,330Z" style="fill:#ffbda7"></path><path d="M356.68,374a16.87,16.87,0,0,1,8.65.85c4.86,1.88,9.31,5.11,14.45,6.21,11.12,3.23,21.67-5.74,32.81-5.58,6.73.28,13.75,1.94,20.2-1s10.34-9,15.92-13.07c6.35-3.49,14.39-4.86,18.89-11.1,4.51-8.95,2.11-20.24,6-29.32-.09-.35-.18-.72-.28-1.08h0c-17.79-65.19-158.59-64-172.3,3.3-14.05,68.94,87,89.38,141.2,60.64-25.16,11.63-88.18,16.18-107.08-7.24a3.59,3.59,0,0,1,4.18-5.53C343.34,372.78,348.91,375.26,356.68,374Zm28.13-49.76c.9,0,1.81-.08,2.72-.08a44.55,44.55,0,0,1,5.42.32,39,39,0,0,1,9.32,2.26q1,.39,2,.84c.38.17.75.36,1.12.55.74.38,1.45.78,2.14,1.22-.34.22-.69.44-1.06.65s-.92.5-1.39.74l-.36.17c-.48.23-1,.46-1.46.67h0c-.5.21-1,.4-1.53.59l-.39.14a33.13,33.13,0,0,1-3.21,1l-.41.1c-1.11.27-2.24.49-3.38.67l-.43.06c-.57.09-1.15.16-1.73.22h0l-.6.05a42.51,42.51,0,0,1-19.4-2.6l-.39-.15a29.68,29.68,0,0,1-4.27-2.22q.48-.31,1-.6l.33-.18.69-.38.41-.21.65-.32.44-.2.66-.29.44-.19.69-.27.44-.17.77-.27.38-.13c.38-.13.77-.25,1.16-.36h0l1.18-.32.4-.1.82-.2.47-.1.76-.15.5-.1.76-.12.5-.08.79-.11.48-.06.86-.1.41,0Z" style="opacity:0.1"></path><g id="freepik--Glazed--inject-8"><path d="M469.8,309a67.52,67.52,0,0,0-12.32-14.75h0a64.91,64.91,0,0,0-11.92-8.7c-32.09-18.47-84.07-18.4-116.12.15a70.75,70.75,0,0,0-6.75,4.44,49.38,49.38,0,0,0-5.15,4.29c-3.17,3-12.33,10.94-16.15,24.41a11.67,11.67,0,0,0-.36,4.46h0c.33,3.12,1.72,6.07,2.54,9.52,1.23,5.15,1.42,11,5.19,14.77,4.25,4.22,11.26,3.87,16.42,6.92,4.25,2.53,6.83,7.09,10.58,10.29a20.35,20.35,0,0,0,12.71,4.82c3.32.06,6.63-.69,9.94-.53,9.15.45,16.95,7.7,26.11,8,8.32.24,15.79-5.33,24.07-6.11,8.84-.84,18.6,3.69,26.18-.92,4.39-2.67,6.77-7.82,11.05-10.66,5.27-3.49,12.63-3,17.46-7.06,5.09-4.31,4.51-8.28,6.42-14.66,1.15-3.82,2.5-6.16,3.87-10.17a13.13,13.13,0,0,0,.67-3.57C474.5,319.07,472.57,313.56,469.8,309ZM406.48,330c-10.44,6.06-27.42,6.08-37.89,0-.37-.2-.72-.42-1.06-.64.34-.23.69-.45,1.06-.66,10.45-6,27.42-6.08,37.89,0,.36.21.72.42,1.06.66C407.2,329.61,406.85,329.83,406.48,330Z" style="fill:#BA68C8"></path><path d="M469.8,309a67.52,67.52,0,0,0-12.32-14.75h0a64.91,64.91,0,0,0-11.92-8.7c-32.09-18.47-84.07-18.4-116.12.15a70.75,70.75,0,0,0-6.75,4.44,49.38,49.38,0,0,0-5.15,4.29c-3.17,3-12.33,10.94-16.15,24.41a11.67,11.67,0,0,0-.36,4.46h0c.33,3.12,1.72,6.07,2.54,9.52,1.23,5.15,1.42,11,5.19,14.77,4.25,4.22,11.26,3.87,16.42,6.92,4.25,2.53,6.83,7.09,10.58,10.29a20.35,20.35,0,0,0,12.71,4.82c3.32.06,6.63-.69,9.94-.53,9.15.45,16.95,7.7,26.11,8,8.32.24,15.79-5.33,24.07-6.11,8.84-.84,18.6,3.69,26.18-.92,4.39-2.67,6.77-7.82,11.05-10.66,5.27-3.49,12.63-3,17.46-7.06,5.09-4.31,4.51-8.28,6.42-14.66,1.15-3.82,2.5-6.16,3.87-10.17a13.13,13.13,0,0,0,.67-3.57C474.5,319.07,472.57,313.56,469.8,309ZM406.48,330c-10.44,6.06-27.42,6.08-37.89,0-.37-.2-.72-.42-1.06-.64.34-.23.69-.45,1.06-.66,10.45-6,27.42-6.08,37.89,0,.36.21.72.42,1.06.66C407.2,329.61,406.85,329.83,406.48,330Z" style="fill:#fff;opacity:0.1"></path><path d="M407.54,329.39c-.34-.24-.7-.45-1.06-.66-10.47-6-27.44-6-37.89,0-.37.21-.72.43-1.06.66-9.4-6.06-9.06-15.38,1-21.23,10.46-6,27.42-6.07,37.89,0C416.57,314,416.93,323.3,407.54,329.39Z" style="fill:#BA68C8"></path><path d="M419.23,324.18a34.21,34.21,0,0,1-14,10.74A45.12,45.12,0,0,1,370,335a34.25,34.25,0,0,1-14-10.7,74.31,74.31,0,0,0,15.69,5.79,68.16,68.16,0,0,0,31.92,0A72.75,72.75,0,0,0,419.23,324.18Z" style="fill:#BA68C8"></path><path d="M419.23,324.18a34.21,34.21,0,0,1-14,10.74A45.12,45.12,0,0,1,370,335a34.25,34.25,0,0,1-14-10.7,74.31,74.31,0,0,0,15.69,5.79,68.16,68.16,0,0,0,31.92,0A72.75,72.75,0,0,0,419.23,324.18Z" style="opacity:0.15"></path><path d="M458.91,352c-5.62,1-11.7.3-16.78,2.9-4.83,2.48-8,7.68-13.18,9.39-6.77,2.26-14-2.32-21.09-1.93-6.82.38-13,5.28-19.81,4.6-6.33-.63-11.23-5.93-17.37-7.61-7.67-2.1-16.83,1.52-23.29-3.11-2.68-1.92-4.32-4.92-6.53-7.36-6.18-6.79-16.6-8.88-21.93-16.37-4.39-6.16-4.16-14.58-2-21.83,4.08-13.45,14.09-24.16,26.3-31.42a90.91,90.91,0,0,0-13.84,6.44,70.75,70.75,0,0,0-6.75,4.44,49.38,49.38,0,0,0-5.15,4.29c-3.17,3-12.33,10.94-16.15,24.41a11.67,11.67,0,0,0-.36,4.46h0c.33,3.12,1.72,6.07,2.54,9.52,1.23,5.15,1.42,11,5.19,14.77,4.25,4.22,11.26,3.87,16.42,6.92,4.25,2.53,6.83,7.09,10.58,10.29a20.35,20.35,0,0,0,12.71,4.82c3.32.06,6.63-.69,9.94-.53,9.15.45,16.95,7.7,26.11,8,8.32.24,15.79-5.33,24.07-6.11,8.84-.84,18.6,3.69,26.18-.92,4.39-2.67,6.77-7.82,11.05-10.66,5.27-3.49,12.63-3,17.46-7.06a13.52,13.52,0,0,0,3.43-4.17A16,16,0,0,1,458.91,352Z" style="opacity:0.1"></path><path d="M431.19,320.54c-2.45,8.67-10.81,13.78-18.63,17.08-6.79,3.2-14.6,3.66-22,3.61a62.84,62.84,0,0,1-19.86-3c-2.26-.66-4.05-1.63-5.25-.12-2.75,3.48,5.34,8.22,9.8,10.6a45.83,45.83,0,0,1,4.7,2.84,27,27,0,0,0,8.65,4.39c4.12,1.3,8.46,1.08,12.71.85a61.1,61.1,0,0,1,9.17.65c1.83.24,3.65.61,5.46,1,8.14,1.88,10.79,1.11,15.61-1.82a57.5,57.5,0,0,1,18.23-7c3.92-.82,7.63-2,10.26-5.24a15.2,15.2,0,0,0,2.24-4.16,73,73,0,0,1,4.47-9.31c5.77-10.18,2.23-19.84-5.92-28.8-9.13-10.38-21.51-17.3-34.73-21-8.15-2.63-17-4.74-25.17-2.14-9.14,3.09-4.3,9.78,1.91,12.75,6.58,3.63,13.93,6,19.83,10.76C427.84,306.76,433,313.41,431.19,320.54Z" style="fill:#fff;opacity:0.1"></path><path d="M443.2,291.62c-5-2.74-14.86-6-17.72-.28-2.45,4.88,11.27,11.14,14.28,13.41,4.76,3.76,9.35,8.53,10.84,14.58.56,4.59-1.28,5.87-.54,10,.62,3.49-1.65,6.59-3.63,7.25a24.79,24.79,0,0,0-8.14,4.38,6.5,6.5,0,0,0-2.64,5.07c-.18,2,1.62,3.6,3.31,1.92a21.69,21.69,0,0,1,10.3-4.22c7,.1,9-4.8,10.6-10.74a23.37,23.37,0,0,1,2.24-5.73c.89-1.47,2.1-2.76,2.68-4.37,1-2.78.75-6.46-.83-10.82-1.67-4.59-4.94-8.31-8.47-11.6A50,50,0,0,0,443.2,291.62Z" style="fill:#fff;opacity:0.2"></path><path d="M448.88,303c-.92,2.69-4.79,1.52-9.57-2s-9-5.95-7.27-8.23,7.46-.63,12.23,2.89S449.32,301.69,448.88,303Z" style="fill:#fff;opacity:0.4"></path><path d="M449.86,305.64a2.33,2.33,0,1,1,2.34,2.57A2.46,2.46,0,0,1,449.86,305.64Z" style="fill:#fff;opacity:0.4"></path></g><g id="freepik--Sparks--inject-8"><g style="opacity:0.1"><path d="M321.36,320.31a1.18,1.18,0,0,1-.83-2l5.52-5.38a1.18,1.18,0,0,1,1.64,1.69L322.17,320A1.15,1.15,0,0,1,321.36,320.31Z"></path><path d="M322.62,348.53l-.27,0a1.19,1.19,0,0,1-.89-1.41l1.7-7.51a1.19,1.19,0,0,1,1.41-.89,1.17,1.17,0,0,1,.89,1.41l-1.7,7.51A1.18,1.18,0,0,1,322.62,348.53Z"></path><path d="M340.13,361.31a1.23,1.23,0,0,1-.27,0,1.18,1.18,0,0,1-.89-1.41l1.7-7.52a1.18,1.18,0,1,1,2.3.52l-1.7,7.52A1.18,1.18,0,0,1,340.13,361.31Z"></path><path d="M413.94,345.64a1.06,1.06,0,0,1-.35-.05,1.18,1.18,0,0,1-.79-1.47l2.2-7.38a1.18,1.18,0,1,1,2.26.68l-2.2,7.38A1.17,1.17,0,0,1,413.94,345.64Z"></path><path d="M328.5,332.92a1.13,1.13,0,0,1-.85-.35,1.17,1.17,0,0,1,0-1.67l5.52-5.38a1.18,1.18,0,0,1,1.64,1.69l-5.52,5.38A1.15,1.15,0,0,1,328.5,332.92Z"></path><path d="M331.58,335.57a1.18,1.18,0,0,1-.27-2.33l7.52-1.68a1.18,1.18,0,1,1,.51,2.3l-7.51,1.68A1.07,1.07,0,0,1,331.58,335.57Z"></path><path d="M346.24,330a1.16,1.16,0,0,1-1.17-1,1.18,1.18,0,0,1,1-1.36l7.6-1.25a1.18,1.18,0,0,1,.38,2.33l-7.6,1.25Z"></path><path d="M369.77,288.11a1.17,1.17,0,0,1-.55-.13l-6.83-3.57a1.18,1.18,0,0,1,1.09-2.09l6.83,3.57a1.18,1.18,0,0,1-.54,2.22Z"></path><path d="M392.83,310.89a1.19,1.19,0,0,1-1.08-.69l-3.2-7a1.18,1.18,0,1,1,2.14-1l3.2,7a1.18,1.18,0,0,1-.58,1.56A1.2,1.2,0,0,1,392.83,310.89Z"></path><path d="M402.7,311.07a1.22,1.22,0,0,1-.85-.35,1.18,1.18,0,0,1,0-1.67l5.49-5.4a1.18,1.18,0,0,1,1.66,1.69l-5.5,5.39A1.18,1.18,0,0,1,402.7,311.07Z"></path><path d="M418.42,367.53a1.15,1.15,0,0,1-.78-.29,1.17,1.17,0,0,1-.12-1.66l5-5.82a1.18,1.18,0,1,1,1.78,1.54l-5,5.82A1.2,1.2,0,0,1,418.42,367.53Z"></path><path d="M438,322.94a1.22,1.22,0,0,1-.78-.29,1.17,1.17,0,0,1-.12-1.66l5.05-5.82a1.18,1.18,0,1,1,1.78,1.54l-5,5.82A1.18,1.18,0,0,1,438,322.94Z"></path><path d="M455.51,334a1.18,1.18,0,0,1-.09-2.35l7.69-.54a1.18,1.18,0,1,1,.16,2.35l-7.68.54Z"></path><path d="M306.87,322.8a1.17,1.17,0,0,1-1.18-1.1,1.16,1.16,0,0,1,1.09-1.25l7.68-.54a1.19,1.19,0,0,1,1.26,1.09,1.17,1.17,0,0,1-1.09,1.26l-7.69.54Z"></path><path d="M446.83,303.92a1.18,1.18,0,0,1-.09-2.35l7.68-.54a1.21,1.21,0,0,1,1.26,1.1,1.19,1.19,0,0,1-1.1,1.26l-7.68.53Z"></path><path d="M406.8,351.89a1.19,1.19,0,0,1-1.08-.69l-3.2-7a1.18,1.18,0,1,1,2.14-1l3.2,7a1.18,1.18,0,0,1-1.06,1.67Z"></path><path d="M432,338.68a1.16,1.16,0,0,1-1.08-.69l-3.2-7a1.18,1.18,0,1,1,2.14-1l3.2,7a1.18,1.18,0,0,1-.58,1.56A1.05,1.05,0,0,1,432,338.68Z"></path><path d="M359.35,334.89a1.15,1.15,0,0,1-1.08-.67,1.18,1.18,0,0,1,1.05-1.68l7.7-.14a1.16,1.16,0,0,1,1.2,1.16,1.18,1.18,0,0,1-1.16,1.2l-7.7.13Z"></path><path d="M350.88,320.73a.89.89,0,0,1-.39-.06l-7.3-2.45a1.17,1.17,0,0,1-.74-1.49,1.18,1.18,0,0,1,1.49-.74l7.3,2.45a1.17,1.17,0,0,1,.74,1.49A1.16,1.16,0,0,1,350.88,320.73Z"></path><path d="M376.31,358.07a1.18,1.18,0,0,1-.83-2l5.51-5.37a1.18,1.18,0,1,1,1.65,1.68l-5.52,5.38A1.21,1.21,0,0,1,376.31,358.07Z"></path><path d="M375.94,372.59h-.21a1.18,1.18,0,0,1-1-1.36l1.31-7.6a1.18,1.18,0,1,1,2.32.4l-1.31,7.59A1.17,1.17,0,0,1,375.94,372.59Z"></path><path d="M454.67,324.8a1.12,1.12,0,0,1-.82-.32l-5.6-5.29a1.18,1.18,0,1,1,1.62-1.71l5.6,5.29a1.17,1.17,0,0,1,0,1.66A1.12,1.12,0,0,1,454.67,324.8Z"></path><path d="M364,368.17a1.18,1.18,0,0,1-1.1-.73L360,360.32a1.18,1.18,0,0,1,2.18-.9l2.94,7.12a1.18,1.18,0,0,1-.64,1.54A1.19,1.19,0,0,1,364,368.17Z"></path><path d="M433,360.54a1.23,1.23,0,0,1-.82-.32l-5.6-5.29a1.18,1.18,0,0,1,0-1.67,1.17,1.17,0,0,1,1.66,0l5.6,5.29a1.17,1.17,0,0,1-.8,2Z"></path><path d="M429.1,308.55a1.12,1.12,0,0,1-.82-.32l-5.6-5.29a1.18,1.18,0,1,1,1.62-1.71l5.6,5.29a1.17,1.17,0,0,1,0,1.66A1.12,1.12,0,0,1,429.1,308.55Z"></path><path d="M446.93,341.23a1.18,1.18,0,0,1-.82-.32l-5.6-5.29a1.18,1.18,0,0,1,0-1.67,1.17,1.17,0,0,1,1.66,0l5.6,5.29a1.17,1.17,0,0,1,0,1.66A1.11,1.11,0,0,1,446.93,341.23Z"></path><path d="M464.55,317a1.14,1.14,0,0,1-.81-.32l-5.6-5.29a1.18,1.18,0,1,1,1.62-1.71l5.59,5.29a1.16,1.16,0,0,1,0,1.66A1.18,1.18,0,0,1,464.55,317Z"></path><path d="M429.56,298.15a1.19,1.19,0,0,1-1-.59A1.17,1.17,0,0,1,429,296l6.65-3.89a1.18,1.18,0,0,1,1.18,2L430.14,298A1.22,1.22,0,0,1,429.56,298.15Z"></path><path d="M376.38,301.15a1.18,1.18,0,0,1-.29-2.33l7.49-1.82a1.18,1.18,0,0,1,.56,2.29l-7.49,1.82A.84.84,0,0,1,376.38,301.15Z"></path><path d="M339.65,307.62a1.18,1.18,0,0,1-.29-2.32l7.49-1.83a1.18,1.18,0,0,1,.55,2.29l-7.48,1.83A1.24,1.24,0,0,1,339.65,307.62Z"></path><path d="M393,368.67a1.16,1.16,0,0,1-.82-.32l-5.6-5.29a1.18,1.18,0,1,1,1.62-1.71l5.6,5.29a1.17,1.17,0,0,1,0,1.66A1.12,1.12,0,0,1,393,368.67Z"></path><path d="M369.2,355.25a1.16,1.16,0,0,1-.82-.32l-5.6-5.29a1.18,1.18,0,1,1,1.62-1.72l5.6,5.3a1.18,1.18,0,0,1-.8,2Z"></path><path d="M422.22,348.59a1.09,1.09,0,0,1-.82-.33,1.17,1.17,0,0,1,0-1.66L426.7,341a1.18,1.18,0,0,1,1.7,1.64l-5.34,5.55A1.15,1.15,0,0,1,422.22,348.59Z"></path><path d="M349.61,362.21a1.15,1.15,0,0,1-.83-.33,1.17,1.17,0,0,1,0-1.66l5.33-5.56a1.18,1.18,0,0,1,1.7,1.64l-5.33,5.55A1.17,1.17,0,0,1,349.61,362.21Z"></path><path d="M416.57,294a1.22,1.22,0,0,1-.83-.33,1.18,1.18,0,0,1,0-1.66l5.34-5.56a1.18,1.18,0,0,1,1.7,1.63l-5.34,5.56A1.15,1.15,0,0,1,416.57,294Z"></path><path d="M401.18,299.32a1.14,1.14,0,0,1-.87-.37,1.17,1.17,0,0,1,.06-1.67L406,292a1.18,1.18,0,1,1,1.61,1.73L402,299A1.14,1.14,0,0,1,401.18,299.32Z"></path><path d="M431.76,326.44l-.22,0L424,325.05a1.18,1.18,0,1,1,.42-2.32L432,324.1a1.18,1.18,0,0,1-.2,2.34Z"></path><path d="M392.39,283.37a1.15,1.15,0,0,1-.72-.25l-6.12-4.68a1.18,1.18,0,1,1,1.44-1.87l6.11,4.68a1.17,1.17,0,0,1,.22,1.65A1.21,1.21,0,0,1,392.39,283.37Z"></path><path d="M396.59,344a1.19,1.19,0,0,1-.9-.41l-5-5.86a1.18,1.18,0,1,1,1.79-1.53l5,5.86a1.18,1.18,0,0,1-.13,1.66A1.15,1.15,0,0,1,396.59,344Z"></path><path d="M390.71,356.33a1,1,0,0,1-.57-.14,1.17,1.17,0,0,1-.48-1.6l3.68-6.77a1.18,1.18,0,0,1,2.07,1.13l-3.68,6.77A1.16,1.16,0,0,1,390.71,356.33Z"></path><path d="M417.7,360.14a1.16,1.16,0,0,1-.66-.2l-6.42-4.24a1.19,1.19,0,0,1-.33-1.64,1.17,1.17,0,0,1,1.63-.33l6.42,4.25a1.17,1.17,0,0,1,.33,1.63A1.16,1.16,0,0,1,417.7,360.14Z"></path><path d="M364.56,294.73a1.22,1.22,0,0,1-.66-.2l-6.42-4.25a1.17,1.17,0,0,1-.34-1.63,1.19,1.19,0,0,1,1.64-.33l6.42,4.24a1.18,1.18,0,0,1-.64,2.17Z"></path><path d="M470.17,329a1.13,1.13,0,0,1-.66-.19l-6.43-4.25a1.18,1.18,0,1,1,1.3-2l6.43,4.24a1.19,1.19,0,0,1,.33,1.64A1.15,1.15,0,0,1,470.17,329Z"></path><path d="M431.16,316.79a1.24,1.24,0,0,1-.66-.2l-6.42-4.25a1.17,1.17,0,0,1-.34-1.63,1.19,1.19,0,0,1,1.64-.33l6.42,4.24a1.18,1.18,0,0,1-.64,2.17Z"></path><path d="M388.76,285.23h-.15l-7.65-1a1.19,1.19,0,0,1-1-1.32,1.17,1.17,0,0,1,1.32-1l7.64,1a1.18,1.18,0,0,1-.14,2.35Z"></path><path d="M403,367.7a1.09,1.09,0,0,1-.68-.21,1.18,1.18,0,0,1-.29-1.64l4.43-6.3a1.18,1.18,0,0,1,1.93,1.35L404,367.21A1.18,1.18,0,0,1,403,367.7Z"></path><path d="M311.26,335.73a1.23,1.23,0,0,1-.68-.21,1.19,1.19,0,0,1-.29-1.65l4.43-6.3a1.18,1.18,0,0,1,1.64-.29,1.19,1.19,0,0,1,.29,1.65l-4.43,6.3A1.19,1.19,0,0,1,311.26,335.73Z"></path><path d="M332.41,354.74a1.06,1.06,0,0,1-.68-.21,1.17,1.17,0,0,1-.29-1.64l4.43-6.3a1.18,1.18,0,1,1,1.93,1.35l-4.43,6.3A1.16,1.16,0,0,1,332.41,354.74Z"></path><path d="M412.94,318.36a1.19,1.19,0,0,1-1-1.86l4.43-6.3a1.18,1.18,0,0,1,1.64-.29,1.17,1.17,0,0,1,.29,1.64l-4.43,6.31A1.21,1.21,0,0,1,412.94,318.36Z"></path><path d="M446.66,353.49l-.22,0-7.58-1.37a1.19,1.19,0,0,1-.95-1.37,1.17,1.17,0,0,1,1.37-1l7.58,1.37a1.18,1.18,0,0,1-.2,2.34Z"></path><path d="M453.31,347.05a1.18,1.18,0,0,1-.25-2.33l7.54-1.59a1.18,1.18,0,0,1,.48,2.31L453.54,347A.85.85,0,0,1,453.31,347.05Z"></path><path d="M437.31,305a1.18,1.18,0,0,1-.25-2.33l7.54-1.59a1.21,1.21,0,0,1,1.4.91,1.19,1.19,0,0,1-.91,1.4L437.55,305Z"></path><path d="M400.66,289.4a1.32,1.32,0,0,1-.54-.12,1.18,1.18,0,0,1-.53-1.58l3.42-6.9a1.18,1.18,0,1,1,2.11,1l-3.42,6.9A1.15,1.15,0,0,1,400.66,289.4Z"></path><path d="M374.76,309.87a.86.86,0,0,1-.22,0L367,308.48a1.18,1.18,0,1,1,.42-2.32l7.58,1.37a1.18,1.18,0,0,1-.2,2.34Z"></path><path d="M315.31,309.72a1.18,1.18,0,0,1-.56-2.22l6.8-3.62a1.18,1.18,0,0,1,1.11,2.08l-6.8,3.62A1.1,1.1,0,0,1,315.31,309.72Z"></path><path d="M375.62,342.41a1.17,1.17,0,0,1-.88-2l5.14-5.73a1.18,1.18,0,0,1,1.75,1.57L376.49,342A1.16,1.16,0,0,1,375.62,342.41Z"></path><path d="M329.09,299.92a1.18,1.18,0,0,1-.29-2.32l7.47-1.87a1.18,1.18,0,1,1,.57,2.28l-7.47,1.88A1.27,1.27,0,0,1,329.09,299.92Z"></path><path d="M356,344.18a.82.82,0,0,1-.22,0l-7.58-1.37a1.18,1.18,0,1,1,.42-2.32l7.58,1.38a1.17,1.17,0,0,1-.2,2.33Z"></path><path d="M360.27,313.13a1.14,1.14,0,0,1-.81-.32l-5.6-5.29a1.17,1.17,0,1,1,1.61-1.71l5.6,5.29a1.16,1.16,0,0,1,.05,1.66A1.15,1.15,0,0,1,360.27,313.13Z"></path><path d="M347.81,294a1.18,1.18,0,0,1-.82-.32l-5.59-5.29a1.17,1.17,0,0,1,1.61-1.71l5.6,5.29a1.17,1.17,0,0,1,.05,1.66A1.15,1.15,0,0,1,347.81,294Z"></path></g><path d="M342.06,349.94a1.19,1.19,0,0,0-1.41.89l-1.7,7.51a1.19,1.19,0,0,0,.89,1.41,1.33,1.33,0,0,0,.28,0,1.18,1.18,0,0,0,1.13-.92l1.7-7.51A1.17,1.17,0,0,0,342.06,349.94Zm-1.83-19a1.2,1.2,0,0,0-1.41-.9l-7.52,1.69a1.17,1.17,0,0,0,.27,2.32l.25,0,7.51-1.68A1.18,1.18,0,0,0,340.23,330.92Zm48.89-30.82a1.17,1.17,0,0,0-.59,1.56l3.21,7a1.15,1.15,0,0,0,1.08.69,1.05,1.05,0,0,0,.48-.11,1.18,1.18,0,0,0,.58-1.56l-3.2-7A1.17,1.17,0,0,0,389.12,300.1Zm18.23,2-5.49,5.39a1.17,1.17,0,0,0,0,1.67,1.13,1.13,0,0,0,.85.35,1.17,1.17,0,0,0,.82-.33l5.49-5.4a1.18,1.18,0,1,0-1.65-1.68Zm15.2,56.1-5,5.82a1.17,1.17,0,0,0,.11,1.66,1.19,1.19,0,0,0,.79.29,1.16,1.16,0,0,0,.88-.41l5-5.82a1.18,1.18,0,1,0-1.78-1.54Zm19.55-44.59-5,5.82a1.17,1.17,0,0,0,.12,1.66,1.17,1.17,0,0,0,1.66-.12l5.05-5.82a1.18,1.18,0,0,0-.12-1.66A1.2,1.2,0,0,0,442.1,313.63Zm21,15.93-7.69.53a1.18,1.18,0,0,0,.09,2.35h.08l7.68-.53a1.18,1.18,0,0,0,1.09-1.26A1.16,1.16,0,0,0,463.1,329.56ZM314.45,318.37l-7.68.54a1.18,1.18,0,0,0,.09,2.35h.07l7.69-.53a1.18,1.18,0,0,0-.17-2.36Zm141.22-17.78a1.2,1.2,0,0,0-1.26-1.09l-7.69.53a1.18,1.18,0,0,0,.09,2.36h.08l7.68-.53A1.19,1.19,0,0,0,455.67,300.59Zm-51,41.09a1.18,1.18,0,1,0-2.14,1l3.2,7a1.18,1.18,0,0,0,1.08.69,1.16,1.16,0,0,0,.48-.11,1.18,1.18,0,0,0,.58-1.56Zm25.21-13.21a1.18,1.18,0,0,0-2.15,1l3.21,7a1.19,1.19,0,0,0,1.08.69,1.39,1.39,0,0,0,.48-.11,1.18,1.18,0,0,0,.58-1.56Zm-46.3-33-7.48,1.83a1.18,1.18,0,0,0,.29,2.32,1.24,1.24,0,0,0,.27,0l7.48-1.83a1.17,1.17,0,0,0,.87-1.42A1.19,1.19,0,0,0,383.56,295.46Zm-36.73,6.48-7.48,1.82a1.18,1.18,0,0,0-.86,1.43,1.16,1.16,0,0,0,1.15.89l.27,0,7.48-1.83a1.17,1.17,0,1,0-.56-2.28Zm41.3,57.87a1.17,1.17,0,0,0-1.61,1.71l5.6,5.29a1.15,1.15,0,0,0,.81.33,1.23,1.23,0,0,0,.85-.37,1.17,1.17,0,0,0,0-1.67Zm-23.74-13.42a1.18,1.18,0,1,0-1.62,1.71l5.6,5.29a1.17,1.17,0,0,0,1.66-.05,1.17,1.17,0,0,0,0-1.66Zm28-64.56a1.17,1.17,0,0,0,.93-.46,1.19,1.19,0,0,0-.22-1.65L387,275a1.18,1.18,0,0,0-1.43,1.87l6.12,4.69A1.2,1.2,0,0,0,392.38,281.83Z" style="fill:#BA68C8"></path><path d="M342.06,349.94a1.19,1.19,0,0,0-1.41.89l-1.7,7.51a1.19,1.19,0,0,0,.89,1.41,1.33,1.33,0,0,0,.28,0,1.18,1.18,0,0,0,1.13-.92l1.7-7.51A1.17,1.17,0,0,0,342.06,349.94Zm-1.83-19a1.2,1.2,0,0,0-1.41-.9l-7.52,1.69a1.17,1.17,0,0,0,.27,2.32l.25,0,7.51-1.68A1.18,1.18,0,0,0,340.23,330.92Zm48.89-30.82a1.17,1.17,0,0,0-.59,1.56l3.21,7a1.15,1.15,0,0,0,1.08.69,1.05,1.05,0,0,0,.48-.11,1.18,1.18,0,0,0,.58-1.56l-3.2-7A1.17,1.17,0,0,0,389.12,300.1Zm18.23,2-5.49,5.39a1.17,1.17,0,0,0,0,1.67,1.13,1.13,0,0,0,.85.35,1.17,1.17,0,0,0,.82-.33l5.49-5.4a1.18,1.18,0,1,0-1.65-1.68Zm15.2,56.1-5,5.82a1.17,1.17,0,0,0,.11,1.66,1.19,1.19,0,0,0,.79.29,1.16,1.16,0,0,0,.88-.41l5-5.82a1.18,1.18,0,1,0-1.78-1.54Zm19.55-44.59-5,5.82a1.17,1.17,0,0,0,.12,1.66,1.17,1.17,0,0,0,1.66-.12l5.05-5.82a1.18,1.18,0,0,0-.12-1.66A1.2,1.2,0,0,0,442.1,313.63Zm21,15.93-7.69.53a1.18,1.18,0,0,0,.09,2.35h.08l7.68-.53a1.18,1.18,0,0,0,1.09-1.26A1.16,1.16,0,0,0,463.1,329.56ZM314.45,318.37l-7.68.54a1.18,1.18,0,0,0,.09,2.35h.07l7.69-.53a1.18,1.18,0,0,0-.17-2.36Zm141.22-17.78a1.2,1.2,0,0,0-1.26-1.09l-7.69.53a1.18,1.18,0,0,0,.09,2.36h.08l7.68-.53A1.19,1.19,0,0,0,455.67,300.59Zm-51,41.09a1.18,1.18,0,1,0-2.14,1l3.2,7a1.18,1.18,0,0,0,1.08.69,1.16,1.16,0,0,0,.48-.11,1.18,1.18,0,0,0,.58-1.56Zm25.21-13.21a1.18,1.18,0,0,0-2.15,1l3.21,7a1.19,1.19,0,0,0,1.08.69,1.39,1.39,0,0,0,.48-.11,1.18,1.18,0,0,0,.58-1.56Zm-46.3-33-7.48,1.83a1.18,1.18,0,0,0,.29,2.32,1.24,1.24,0,0,0,.27,0l7.48-1.83a1.17,1.17,0,0,0,.87-1.42A1.19,1.19,0,0,0,383.56,295.46Zm-36.73,6.48-7.48,1.82a1.18,1.18,0,0,0-.86,1.43,1.16,1.16,0,0,0,1.15.89l.27,0,7.48-1.83a1.17,1.17,0,1,0-.56-2.28Zm41.3,57.87a1.17,1.17,0,0,0-1.61,1.71l5.6,5.29a1.15,1.15,0,0,0,.81.33,1.23,1.23,0,0,0,.85-.37,1.17,1.17,0,0,0,0-1.67Zm-23.74-13.42a1.18,1.18,0,1,0-1.62,1.71l5.6,5.29a1.17,1.17,0,0,0,1.66-.05,1.17,1.17,0,0,0,0-1.66Zm28-64.56a1.17,1.17,0,0,0,.93-.46,1.19,1.19,0,0,0-.22-1.65L387,275a1.18,1.18,0,0,0-1.43,1.87l6.12,4.69A1.2,1.2,0,0,0,392.38,281.83Z" style="fill:#fff;opacity:0.5"></path><path d="M327.7,311.4a1.18,1.18,0,0,0-1.67,0l-5.51,5.38a1.17,1.17,0,0,0,0,1.67,1.13,1.13,0,0,0,.85.35,1.15,1.15,0,0,0,.81-.33l5.52-5.38A1.18,1.18,0,0,0,327.7,311.4ZM333.17,324l-5.51,5.38a1.18,1.18,0,0,0,.83,2,1.21,1.21,0,0,0,.81-.34l5.52-5.37a1.19,1.19,0,0,0,0-1.67A1.17,1.17,0,0,0,333.17,324ZM367,330.87l-7.7.13a1.19,1.19,0,0,0-1.06,1.68,1.17,1.17,0,0,0,1.09.68h0l7.7-.14a1.18,1.18,0,0,0,1.16-1.2A1.15,1.15,0,0,0,367,330.87Zm14,18.26-5.51,5.38a1.18,1.18,0,0,0,.83,2,1.12,1.12,0,0,0,.81-.34l5.51-5.37a1.18,1.18,0,1,0-1.64-1.69Zm45.71-9.62-5.34,5.55a1.18,1.18,0,0,0,0,1.67,1.2,1.2,0,0,0,.83.33,1.23,1.23,0,0,0,.84-.36l5.34-5.56a1.18,1.18,0,0,0-1.7-1.63Zm-72.62,13.62-5.33,5.55a1.17,1.17,0,0,0,0,1.67,1.19,1.19,0,0,0,.82.33,1.26,1.26,0,0,0,.85-.36l5.33-5.56a1.18,1.18,0,1,0-1.7-1.63Zm62.49-60.67a1.17,1.17,0,0,0,.84-.36l5.34-5.55a1.18,1.18,0,0,0,0-1.67,1.17,1.17,0,0,0-1.66,0l-5.34,5.55a1.17,1.17,0,0,0,0,1.66A1.11,1.11,0,0,0,416.56,292.46Zm1.77,64-6.42-4.24a1.18,1.18,0,1,0-1.3,2l6.42,4.25a1.13,1.13,0,0,0,.66.19,1.15,1.15,0,0,0,1-.52A1.19,1.19,0,0,0,418.33,356.44Zm-53.78-63.25a1.16,1.16,0,0,0,1-.53,1.18,1.18,0,0,0-.33-1.63l-6.43-4.25a1.18,1.18,0,0,0-1.3,2l6.43,4.24A1.14,1.14,0,0,0,364.55,293.19ZM470.8,325.35l-6.43-4.25a1.17,1.17,0,0,0-1.63.33,1.19,1.19,0,0,0,.33,1.64l6.43,4.24a1.14,1.14,0,0,0,.66.2,1.18,1.18,0,0,0,.64-2.16Zm-39-12.26-6.43-4.25a1.18,1.18,0,0,0-1.3,2l6.43,4.24a1.14,1.14,0,0,0,.66.2,1.16,1.16,0,0,0,1-.53A1.18,1.18,0,0,0,431.79,313.09Zm-42.9-31.74-7.64-1a1.18,1.18,0,0,0-.3,2.34l7.64,1h.16a1.17,1.17,0,0,0,.14-2.34Z" style="fill:#BA68C8"></path><path d="M327.7,311.4a1.18,1.18,0,0,0-1.67,0l-5.51,5.38a1.17,1.17,0,0,0,0,1.67,1.13,1.13,0,0,0,.85.35,1.15,1.15,0,0,0,.81-.33l5.52-5.38A1.18,1.18,0,0,0,327.7,311.4ZM333.17,324l-5.51,5.38a1.18,1.18,0,0,0,.83,2,1.21,1.21,0,0,0,.81-.34l5.52-5.37a1.19,1.19,0,0,0,0-1.67A1.17,1.17,0,0,0,333.17,324ZM367,330.87l-7.7.13a1.19,1.19,0,0,0-1.06,1.68,1.17,1.17,0,0,0,1.09.68h0l7.7-.14a1.18,1.18,0,0,0,1.16-1.2A1.15,1.15,0,0,0,367,330.87Zm14,18.26-5.51,5.38a1.18,1.18,0,0,0,.83,2,1.12,1.12,0,0,0,.81-.34l5.51-5.37a1.18,1.18,0,1,0-1.64-1.69Zm45.71-9.62-5.34,5.55a1.18,1.18,0,0,0,0,1.67,1.2,1.2,0,0,0,.83.33,1.23,1.23,0,0,0,.84-.36l5.34-5.56a1.18,1.18,0,0,0-1.7-1.63Zm-72.62,13.62-5.33,5.55a1.17,1.17,0,0,0,0,1.67,1.19,1.19,0,0,0,.82.33,1.26,1.26,0,0,0,.85-.36l5.33-5.56a1.18,1.18,0,1,0-1.7-1.63Zm62.49-60.67a1.17,1.17,0,0,0,.84-.36l5.34-5.55a1.18,1.18,0,0,0,0-1.67,1.17,1.17,0,0,0-1.66,0l-5.34,5.55a1.17,1.17,0,0,0,0,1.66A1.11,1.11,0,0,0,416.56,292.46Zm1.77,64-6.42-4.24a1.18,1.18,0,1,0-1.3,2l6.42,4.25a1.13,1.13,0,0,0,.66.19,1.15,1.15,0,0,0,1-.52A1.19,1.19,0,0,0,418.33,356.44Zm-53.78-63.25a1.16,1.16,0,0,0,1-.53,1.18,1.18,0,0,0-.33-1.63l-6.43-4.25a1.18,1.18,0,0,0-1.3,2l6.43,4.24A1.14,1.14,0,0,0,364.55,293.19ZM470.8,325.35l-6.43-4.25a1.17,1.17,0,0,0-1.63.33,1.19,1.19,0,0,0,.33,1.64l6.43,4.24a1.14,1.14,0,0,0,.66.2,1.18,1.18,0,0,0,.64-2.16Zm-39-12.26-6.43-4.25a1.18,1.18,0,0,0-1.3,2l6.43,4.24a1.14,1.14,0,0,0,.66.2,1.16,1.16,0,0,0,1-.53A1.18,1.18,0,0,0,431.79,313.09Zm-42.9-31.74-7.64-1a1.18,1.18,0,0,0-.3,2.34l7.64,1h.16a1.17,1.17,0,0,0,.14-2.34Z" style="opacity:0.30000000000000004"></path><path d="M370.3,284.35l-6.83-3.56a1.17,1.17,0,1,0-1.09,2.08l6.82,3.57a1.24,1.24,0,0,0,.56.13,1.15,1.15,0,0,0,1-.63A1.18,1.18,0,0,0,370.3,284.35ZM350.86,319.2a1.19,1.19,0,0,0,1.11-.81,1.17,1.17,0,0,0-.74-1.49l-7.3-2.45a1.18,1.18,0,0,0-.75,2.24l7.3,2.45A1.31,1.31,0,0,0,350.86,319.2Zm26.57,41.93a1.17,1.17,0,0,0-1.36,1l-1.31,7.59a1.18,1.18,0,0,0,1,1.36l.21,0a1.19,1.19,0,0,0,1.15-1l1.31-7.59A1.18,1.18,0,0,0,377.43,361.13ZM432,322.57l-7.58-1.38a1.18,1.18,0,1,0-.42,2.32l7.57,1.38h.23a1.17,1.17,0,0,0,.2-2.33Zm-39.48,12.12a1.18,1.18,0,0,0-1.8,1.53l5,5.86a1.14,1.14,0,0,0,.91.41,1.11,1.11,0,0,0,.75-.28,1.17,1.17,0,0,0,.14-1.66Zm15.62,23a1.17,1.17,0,0,0-1.64.28l-4.43,6.3a1.18,1.18,0,0,0,1,1.86,1.19,1.19,0,0,0,1-.5l4.42-6.3A1.17,1.17,0,0,0,408.09,357.73Zm-91.74-32a1.17,1.17,0,0,0-1.64.28l-4.43,6.31a1.18,1.18,0,0,0,.29,1.64,1.18,1.18,0,0,0,1.64-.29l4.43-6.3A1.18,1.18,0,0,0,316.35,325.75Zm21.15,19a1.18,1.18,0,0,0-1.64.29l-4.43,6.3a1.18,1.18,0,0,0,1,1.86,1.15,1.15,0,0,0,1-.5l4.43-6.3A1.18,1.18,0,0,0,337.5,344.76ZM418,308.38a1.18,1.18,0,0,0-1.64.28L412,315a1.18,1.18,0,0,0,.29,1.64,1.23,1.23,0,0,0,.68.21,1.16,1.16,0,0,0,1-.5l4.43-6.3A1.18,1.18,0,0,0,418,308.38Zm28.83,41.24-7.58-1.38a1.18,1.18,0,0,0-.42,2.32l7.58,1.37a.82.82,0,0,0,.22,0,1.17,1.17,0,0,0,.2-2.33ZM462,342.51a1.17,1.17,0,0,0-1.39-.91l-7.54,1.58a1.18,1.18,0,0,0,.25,2.33l.23,0,7.54-1.59A1.17,1.17,0,0,0,462,342.51Zm-16-42a1.19,1.19,0,0,0-1.4-.91l-7.54,1.58a1.18,1.18,0,0,0-.91,1.4,1.17,1.17,0,0,0,1.16.93,1,1,0,0,0,.24,0l7.53-1.59A1.18,1.18,0,0,0,446,300.5Zm-41.41-21.77a1.18,1.18,0,0,0-1.58.53l-3.42,6.9a1.18,1.18,0,0,0,.53,1.58,1,1,0,0,0,.53.12,1.17,1.17,0,0,0,1.05-.65l3.42-6.9A1.18,1.18,0,0,0,404.58,278.73Zm-66.89,16.32a1.17,1.17,0,0,0-1.43-.86l-7.47,1.88a1.18,1.18,0,0,0-.86,1.43,1.19,1.19,0,0,0,1.15.89.9.9,0,0,0,.28,0l7.47-1.87A1.18,1.18,0,0,0,337.69,295.05Zm18.54,45.26-7.58-1.37a1.17,1.17,0,1,0-.42,2.31l7.58,1.38.22,0a1.2,1.2,0,0,0,1.15-1A1.19,1.19,0,0,0,356.23,340.31Z" style="fill:#fafafa"></path><path d="M324.56,337.15a1.2,1.2,0,0,0-1.41.89l-1.7,7.51a1.18,1.18,0,0,0,.89,1.41,1.24,1.24,0,0,0,.27,0,1.16,1.16,0,0,0,1.14-.92l1.7-7.51A1.18,1.18,0,0,0,324.56,337.15Zm91.9-2.73a1.17,1.17,0,0,0-1.47.79l-2.2,7.38a1.17,1.17,0,0,0,.79,1.46.85.85,0,0,0,.35.05,1.17,1.17,0,0,0,1.12-.84l2.2-7.38A1.18,1.18,0,0,0,416.46,334.42Zm-62.83-9.59-7.6,1.25a1.18,1.18,0,0,0,.2,2.34l.18,0,7.6-1.25a1.18,1.18,0,0,0-.38-2.32Zm96.23-8.89a1.19,1.19,0,0,0-1.67.05,1.16,1.16,0,0,0,.05,1.66l5.6,5.3a1.2,1.2,0,0,0,.81.32,1.23,1.23,0,0,0,.85-.37,1.17,1.17,0,0,0-.05-1.67Zm-87.74,41.95a1.18,1.18,0,1,0-2.18.89l2.94,7.12a1.21,1.21,0,0,0,1.54.65,1.19,1.19,0,0,0,.64-1.54Zm66.1-6.21a1.18,1.18,0,0,0-1.62,1.71l5.6,5.29a1.17,1.17,0,0,0,1.66-.05,1.17,1.17,0,0,0,0-1.66Zm.87-44.66a1.16,1.16,0,0,0,.84-.37,1.18,1.18,0,0,0,0-1.67l-5.6-5.29a1.18,1.18,0,1,0-1.62,1.72l5.6,5.29A1.21,1.21,0,0,0,429.09,307Zm13,25.35a1.19,1.19,0,0,0-1.67.05,1.18,1.18,0,0,0,.05,1.66l5.6,5.29a1.17,1.17,0,0,0,.82.33,1.2,1.2,0,0,0,.84-.37,1.18,1.18,0,0,0,0-1.67Zm23.22-19-5.6-5.29a1.18,1.18,0,0,0-1.66.05,1.16,1.16,0,0,0,.05,1.66l5.59,5.29a1.14,1.14,0,0,0,.82.32,1.17,1.17,0,0,0,.8-2Zm-29.75-22.87-6.65,3.88a1.19,1.19,0,0,0-.42,1.62,1.2,1.2,0,0,0,1,.58,1.1,1.1,0,0,0,.58-.16l6.65-3.89a1.18,1.18,0,1,0-1.19-2Zm-29.6,0-5.64,5.25a1.18,1.18,0,0,0,.82,2,1.16,1.16,0,0,0,.79-.32l5.64-5.25A1.18,1.18,0,1,0,406,290.5Zm-11.07,55.31a1.17,1.17,0,0,0-1.59.48l-3.68,6.77a1.18,1.18,0,0,0,.47,1.6,1.33,1.33,0,0,0,.57.14,1.19,1.19,0,0,0,1-.62l3.68-6.77A1.18,1.18,0,0,0,394.92,345.81Zm-20.17-37.47a1.19,1.19,0,0,0,1.15-1A1.17,1.17,0,0,0,375,306l-7.58-1.38a1.18,1.18,0,1,0-.42,2.32l7.58,1.38Zm-51.62-5.51a1.17,1.17,0,0,0-1.59-.48l-6.8,3.62a1.18,1.18,0,0,0,1.1,2.08l6.8-3.62A1.18,1.18,0,0,0,323.13,302.83Zm56.74,30.35-5.15,5.73a1.19,1.19,0,0,0,.09,1.67,1.19,1.19,0,0,0,1.67-.09l5.14-5.74a1.16,1.16,0,0,0-.09-1.66A1.18,1.18,0,0,0,379.87,333.18Zm-18.76-21.95a1.18,1.18,0,0,0-.05-1.67l-5.6-5.29a1.17,1.17,0,1,0-1.61,1.71l5.59,5.29a1.19,1.19,0,0,0,.82.33A1.23,1.23,0,0,0,361.11,311.23ZM347.8,292.5a1.23,1.23,0,0,0,.85-.37,1.19,1.19,0,0,0,0-1.67l-5.6-5.29a1.18,1.18,0,0,0-1.62,1.71l5.6,5.29A1.19,1.19,0,0,0,347.8,292.5Z" style="fill:#BA68C8"></path></g></g></g><g id="freepik--Frappe--inject-8"><g id="freepik--frappe--inject-8"><ellipse id="freepik--shadow--inject-8" cx="251.34" cy="399.7" rx="76.7" ry="44.28" style="opacity:0.1"></ellipse><g id="freepik--frappe--inject-8"><path d="M313.11,174.58c-27.69-15.4-61.83-17.88-92.62-11.53a108.63,108.63,0,0,0-30.92,11.53c-17.91,10.35-26.38,24.06-25.47,37.61l.83,12.43,2.76,38.81,1.13,16.1a0,0,0,0,0,0,0,21,21,0,0,0,3.11,9.65l3.29,41,1.34,18.9v0a19.28,19.28,0,0,0,3.3,9.45L181.7,393c.29,10.08,7.07,20.1,20.37,27.78,27.22,15.71,71.33,15.71,98.54,0a47.28,47.28,0,0,0,15.07-13A26.44,26.44,0,0,0,321,393l1.85-34.37a19.19,19.19,0,0,0,3.29-9.53v0l4.63-59.85a21,21,0,0,0,3.11-9.65h0l3.89-54.91.83-12.43C339.48,198.64,331,184.93,313.11,174.58Z" style="fill:#BA68C8"></path><path d="M313.11,174.58c-27.69-15.39-61.83-17.88-92.62-11.53a108.33,108.33,0,0,0-30.92,11.53c-17.91,10.35-26.38,24.06-25.47,37.61l.83,12.43.34,4.81,2.42,34,1.13,16.1a0,0,0,0,0,0,0,21,21,0,0,0,3.11,9.65l3.29,41,1.34,18.9v0a19.45,19.45,0,0,0,3.3,9.46L181.7,393c.29,10.06,7.07,20.09,20.37,27.77,27.21,15.71,71.33,15.71,98.54,0a47.39,47.39,0,0,0,15.07-13A26.39,26.39,0,0,0,321,393l1.85-34.38a19.23,19.23,0,0,0,3.29-9.53v0l4.63-59.85a21,21,0,0,0,3.11-9.65l3.55-50.1.34-4.81.83-12.43C339.48,198.64,331,184.93,313.11,174.58Zm.14,69.83c-34.14,19.7-89.67,19.71-123.81,0-16-9.25-24.88-21.43-24.88-34.24s8.84-25,24.88-34.25c17.06-9.86,39.49-14.78,61.9-14.78a146,146,0,0,1,33,3.69,106.72,106.72,0,0,1,28.95,11.09c16,9.26,24.88,21.43,24.88,34.25S329.29,235.16,313.25,244.41Z" style="fill:#fff;opacity:0.5"></path><path d="M338.13,210.17c0,12.81-8.84,25-24.88,34.24-34.14,19.7-89.67,19.71-123.81,0-16-9.25-24.88-21.43-24.88-34.24s8.84-25,24.88-34.25c17.06-9.86,39.49-14.78,61.9-14.78a146,146,0,0,1,33,3.69,106.72,106.72,0,0,1,28.95,11.09C329.29,185.18,338.13,197.35,338.13,210.17Z" style="fill:#fff;opacity:0.6000000000000001"></path><path d="M333.88,211.56l-4.83,67.71a16.26,16.26,0,0,1-2.39,7.36l-.65,1-4.7,61.14a14.43,14.43,0,0,1-2.45,7.05l-.77,1.13-1.93,35.85a21.56,21.56,0,0,1-4.39,12.09,42.64,42.64,0,0,1-13.58,11.64c-12.43,7.18-29.07,11.14-46.85,11.14s-34.41-4-46.85-11.14c-11.33-6.54-17.7-15-18-23.74l-1.92-35.9-.76-1.11a14.49,14.49,0,0,1-2.45-7l-1.36-19-3.36-42.14-.65-1a16.22,16.22,0,0,1-2.39-7.44l-.32-4.49h0l-.81-11.61-3.65-51.54Z" style="fill:#c8856a"></path><path d="M338.13,210.17c0,12.81-8.84,25-24.88,34.24-34.14,19.7-89.67,19.71-123.81,0-16-9.25-24.88-21.43-24.88-34.24s8.84-25,24.88-34.25c17.06-9.86,39.49-14.78,61.9-14.78a146,146,0,0,1,33,3.69,106.72,106.72,0,0,1,28.95,11.09C329.29,185.18,338.13,197.35,338.13,210.17Z" style="fill:#c8856a"></path><ellipse cx="251.34" cy="391.25" rx="62.38" ry="33.68" style="opacity:0.1"></ellipse><path d="M172.51,263.1l.81,11.61h0l.32,4.49a16.22,16.22,0,0,0,2.39,7.44l.65,1,3.36,42.14,1.36,19a14.49,14.49,0,0,0,2.45,7l.76,1.11,1.92,35.9c.25,8.76,6.62,17.2,18,23.74s25.93,10.34,41.78,11c-12.35-2.42-18.54-6.34-22.62-12.76-3.72-5.83-4-14.84-4.3-23.4q-1.82-56.35-.6-112.75c.28-13.24,8-16.48,20.17-17.78,11.54-1.23,23.81.15,34.66-4.82,8.45-3.88,14.75-11.21,20.5-18.52,4.79-6.09,9.55-12.65,10.77-20.31a24.15,24.15,0,0,0,.24-5.69H168.86Z" style="opacity:0.1"></path><path d="M326.13,349.05c-3.89,5.9-9.74,11.48-18,16.24-31.36,18.11-82.23,18.11-113.6,0-8.23-4.75-14.08-10.32-18-16.21v0a18.86,18.86,0,0,0,5.33,12,59.85,59.85,0,0,0,12.64,9.53c31.37,18.12,82.24,18.12,113.6,0a60.2,60.2,0,0,0,12.67-9.55,18.88,18.88,0,0,0,5.33-12V349S326.13,349,326.13,349.05Zm1.34-18.92c-3.55,7.3-10,14.18-20,19.92-31,17.91-81.3,17.91-112.32,0-9.91-5.73-16.41-12.61-20-19.89l.46,6.55a0,0,0,0,0,0,0c3.69,6.81,10.15,13.2,19.48,18.6,31,17.9,81.31,17.9,112.32,0,9.35-5.4,15.83-11.82,19.51-18.63v0l.06-.85.41-5.7Z" style="fill:#fff;opacity:0.30000000000000004"></path><path d="M312.78,280c-33.93,19.59-88.94,19.59-122.87,0-11.49-6.63-19-14.66-22.69-23.14l.46,6.54c3.77,8.18,11.1,15.93,22.23,22.35,33.93,19.6,88.94,19.6,122.87,0,11.13-6.43,18.46-14.18,22.23-22.36l.47-6.53C331.79,265.38,324.27,273.4,312.78,280Zm1,17.66c-34.46,19.89-90.33,19.89-124.79,0-9.22-5.32-15.86-11.53-20.12-18.15a0,0,0,0,1,0,0h0a20.68,20.68,0,0,0,5.72,13,65.47,65.47,0,0,0,14.41,11c34.46,19.89,90.33,19.89,124.79,0a66.26,66.26,0,0,0,14.43-11,20.78,20.78,0,0,0,5.71-13v0h0C329.61,286.16,323,292.37,313.74,297.69Z" style="fill:#fff;opacity:0.30000000000000004"></path><path d="M336.21,189.11c-4.66-6.56-11.53-12.55-20.37-17.67-35.57-20.52-93.44-20.52-129,0-17.7,10.23-27.46,24-27.46,38.73a35.46,35.46,0,0,0,5.88,19.26c4.64,7.26,11.92,13.89,21.58,19.47,17.78,10.25,41.13,15.39,64.49,15.39s46.71-5.14,64.5-15.39c9.66-5.58,16.94-12.21,21.58-19.47a35.54,35.54,0,0,0,5.88-19.26A36.11,36.11,0,0,0,336.21,189.11Zm-24.86,54.25c-33.09,19.1-86.92,19.11-120,0-15.56-9-24.13-20.77-24.13-33.19S175.78,186,191.34,177c16.54-9.56,38.27-14.33,60-14.33a142.36,142.36,0,0,1,32,3.57A103.57,103.57,0,0,1,311.35,177c15.56,9,24.13,20.77,24.13,33.2S326.91,234.39,311.35,243.36Z" style="fill:#BA68C8"></path><path d="M336.21,189.11c-4.66-6.56-11.53-12.55-20.37-17.67-35.57-20.52-93.44-20.52-129,0-17.7,10.23-27.46,24-27.46,38.73a35.46,35.46,0,0,0,5.88,19.26c4.64,7.26,11.92,13.89,21.58,19.47,17.78,10.25,41.13,15.39,64.49,15.39s46.71-5.14,64.5-15.39c9.66-5.58,16.94-12.21,21.58-19.47a35.54,35.54,0,0,0,5.88-19.26A36.11,36.11,0,0,0,336.21,189.11Zm-24.86,54.25c-33.09,19.1-86.92,19.11-120,0-15.56-9-24.13-20.77-24.13-33.19S175.78,186,191.34,177c16.54-9.56,38.27-14.33,60-14.33a142.36,142.36,0,0,1,32,3.57A103.57,103.57,0,0,1,311.35,177c15.56,9,24.13,20.77,24.13,33.2S326.91,234.39,311.35,243.36Z" style="fill:#fff;opacity:0.85"></path><path d="M209.06,323.94c-.69.75-.54,1.94-.49,2.86.13,2.58.72,5.65-.24,8.13a3.78,3.78,0,0,1-6.51,1c-1.53-2.1-1.07-5.3-1-7.72,0-1.49.08-3,.11-4.47a9.92,9.92,0,0,0-.23-3.48c-.5-1.43-2.46-2.71-3.6-1.15a8,8,0,0,0-.8,2.64,3.68,3.68,0,0,1-2.34,2.37c-2.63,1-4.63-1.09-5-3.56-.46-2.89.69-5.67.69-8.55,0-1.93-1-6.46-3.87-4.79,0,0,0,.06,0,.05,2.36-1.15,3.33,2.35,3.31,4a27.48,27.48,0,0,1-.7,4.6,12.11,12.11,0,0,0,.06,6,5,5,0,0,0,3.46,3.54,4.57,4.57,0,0,0,4.56-1.75,6.37,6.37,0,0,0,.89-2.55c.14-.64.29-1.26,1-1.47,1.47-.45,1.79,1.35,1.79,2.42,0,2.92-.19,5.84-.19,8.76a10.19,10.19,0,0,0,1.23,5.59,4.46,4.46,0,0,0,4.9,1.95c2.24-.57,3.26-2.69,3.41-4.84a31.44,31.44,0,0,0-.11-4c-.05-.86-.78-6.15,1.29-5.13.39.19.44-.54.18-.71A1.3,1.3,0,0,0,209.06,323.94Zm-2.62,20.83c-.12-.11-.21.11-.2.2a3.76,3.76,0,0,1,.1.74c0,.21,0,.43-.05.64a2.58,2.58,0,0,1-.45,1.14,2.5,2.5,0,0,1-2.31,1,2.78,2.78,0,0,1-1.21-.45,1.65,1.65,0,0,1-.47-.48,1.24,1.24,0,0,1-.11-.6,3,3,0,0,1,.54-2.33,2.23,2.23,0,0,1,1.41-.6,5.64,5.64,0,0,1,1.64.1c.1,0,.14-.22.06-.26a7,7,0,0,0-1.81-.64,2,2,0,0,0-1.7.4,3.87,3.87,0,0,0-.91,3.28,2.47,2.47,0,0,0,.91,1.84,3.17,3.17,0,0,0,4.42-.52,3.44,3.44,0,0,0,.64-1.72,2.7,2.7,0,0,0-.14-1.05A1.76,1.76,0,0,0,206.44,344.77Zm83.7,43.57a5.83,5.83,0,0,0-1.64,3.42c-.29,1.52-.48,3.06-.73,4.58-.45,2.74-1.29,5.86-4.37,6.59a3.56,3.56,0,0,1-2.26-.09c-.75-.38-.91-1.5-1.07-2.24a33.52,33.52,0,0,1-.34-4.48,3.05,3.05,0,0,0-1.77-2.83,1.62,1.62,0,0,0-2,.53s0,.18.05.11a1.37,1.37,0,0,1,1.5-.48,2.15,2.15,0,0,1,1.61,1.86,38.22,38.22,0,0,1,.05,4c.18,2,.59,4.74,3.08,4.9,5.66.36,6.22-6.46,6.85-10.47.26-1.6.47-3.35,1.63-4.58a2.24,2.24,0,0,1,2.16-.92,2.21,2.21,0,0,1,1.55,1.24c.06.11.15,0,.14-.1C294.38,387.26,291.42,387.18,290.14,388.34ZM301.47,372a25.69,25.69,0,0,0-.58,7.11,39.76,39.76,0,0,1-.25,7.94,5.64,5.64,0,0,1-1.79,3.62,2.48,2.48,0,0,1-3.48-.34c-.06-.08-.12.09-.08.14,1,1.47,3,1.26,4.16.09,1.47-1.51,1.72-4,1.84-6,.19-2.86-.09-5.72,0-8.58.1-2.14.46-7.1,3.37-7.33,0,0,0-.07,0-.07C302.76,368.51,301.91,370.31,301.47,372Zm10-104.09a1.55,1.55,0,0,0-2-.94c-1.16.41-1.55,1.94-1.84,3a36.92,36.92,0,0,0-.8,10.8c.1,3.47.79,8.13-1.28,11.17a4.53,4.53,0,0,1-4.46,1.84c-2.1-.42-2.53-2.69-2.66-4.49-.18-2.37-.47-5.75-3.33-6.41s-3.57,2.65-3.8,4.66c-.44,3.91-.45,8.05-1.65,11.82a6.64,6.64,0,0,1-2.93,4.07,3.24,3.24,0,0,1-4.62-1.37c-.74-1.86-.47-4.31-.46-6.27a20.79,20.79,0,0,0-.28-5.46c-.58-2.2-3.27-4.51-5.4-2.58-.06.05-.05.25,0,.18,1.3-1.07,3.17-.47,4.18.74,1.46,1.78,1,4.41.91,6.52a46.59,46.59,0,0,0,0,5.15,5.66,5.66,0,0,0,1.1,3.23c1.58,1.88,4.4,1.37,6-.19,2.29-2.24,2.74-5.95,3.08-9,.2-1.7.36-3.4.54-5.11.16-1.52.15-3.52,1.23-4.74,1.59-1.79,3.79,0,4.29,1.76.44,1.61.23,3.33.63,5,.54,2.16,2.22,4,4.64,3.51s3.85-3.08,4.33-5.33c.76-3.6.28-7.45.32-11.1a36.58,36.58,0,0,1,.53-6.53,10.86,10.86,0,0,1,.88-3c.44-.83,1.9-1.83,2.53-.58C311.32,268.41,311.5,268,311.44,267.86Zm-6.59,31.51c-.11,0-.12.19-.08.25a3.79,3.79,0,0,1,1.15,2.67,3,3,0,0,1-.58,1.48,5.1,5.1,0,0,1-1.09,1.27,2.52,2.52,0,0,1-1.63.23,7.88,7.88,0,0,1-1.46-.18,2,2,0,0,1-1.19-.89,2.41,2.41,0,0,1,0-1.79,4.4,4.4,0,0,1,.85-1.8,4,4,0,0,1,1.67-1.05c.14-.05.17-.43,0-.42a3.29,3.29,0,0,0-2.88,2.59,3.15,3.15,0,0,0,.85,3.49,4.31,4.31,0,0,0,1.68.71A5.72,5.72,0,0,0,304,306a3.37,3.37,0,0,0,1.66-1.33,3.84,3.84,0,0,0,.87-1.87C306.69,301.55,306.23,299.79,304.85,299.37Z" style="fill:#fff;opacity:0.5"></path><path d="M336.21,189.11c-4.66-6.57-11.53-12.56-20.37-17.67-35.57-20.53-93.44-20.53-129,0-17.7,10.22-27.46,24-27.46,38.73h7.82c0-12.44,8.57-24.23,24.13-33.21,16.54-9.55,38.27-14.33,60-14.33a141.79,141.79,0,0,1,32,3.58A103.23,103.23,0,0,1,311.35,177c15.56,9,24.13,20.77,24.13,33.21h7.82A36.11,36.11,0,0,0,336.21,189.11Z" style="fill:#BA68C8"></path><path d="M336.21,189.11c-4.66-6.57-11.53-12.56-20.37-17.67-35.57-20.53-93.44-20.53-129,0-17.7,10.22-27.46,24-27.46,38.73h7.82c0-12.44,8.57-24.23,24.13-33.21,16.54-9.55,38.27-14.33,60-14.33a141.79,141.79,0,0,1,32,3.58A103.23,103.23,0,0,1,311.35,177c15.56,9,24.13,20.77,24.13,33.21h7.82A36.11,36.11,0,0,0,336.21,189.11Z" style="fill:#fff;opacity:0.45"></path><path d="M336.21,183c-4.66-6.57-11.53-12.56-20.37-17.67-35.57-20.53-93.44-20.53-129,0-17.7,10.22-27.46,24-27.46,38.73h7.82c0-12.44,8.57-24.23,24.13-33.21,16.54-9.55,38.27-14.33,60-14.33a141.79,141.79,0,0,1,32,3.58,103.23,103.23,0,0,1,28.06,10.75c15.56,9,24.13,20.77,24.13,33.21h7.82A36.11,36.11,0,0,0,336.21,183Z" style="fill:#BA68C8"></path><path d="M336.21,183c-4.66-6.57-11.53-12.56-20.37-17.67-35.57-20.53-93.44-20.53-129,0-17.7,10.22-27.46,24-27.46,38.73h7.82c0-12.44,8.57-24.23,24.13-33.21,16.54-9.55,38.27-14.33,60-14.33a141.79,141.79,0,0,1,32,3.58,103.23,103.23,0,0,1,28.06,10.75c15.56,9,24.13,20.77,24.13,33.21h7.82A36.11,36.11,0,0,0,336.21,183Z" style="fill:#fff;opacity:0.65"></path><path d="M262.16,136.23c10,8.61,29.82,9.82,56.06,33.41,11.57,10.41,21.65,33.84,10.88,55.25C315.24,252.42,286,251.58,286,251.58s5.83-25.94-1-52.71S262.16,136.23,262.16,136.23Z" style="fill:#f5f5f5"></path><path d="M238.59,137.72c-6.29,8.92-27,16-41.77,25.64s-22.14,18.4-26.09,31-1.07,31.39,15.46,39.25,50.23-19.08,53.84-28.82S238.59,137.72,238.59,137.72Z" style="fill:#f0f0f0"></path><path d="M247.27,130.24c-4,1.23-7.22,4.54-9.13,8.31a32.71,32.71,0,0,0-3.3,15.4c.36,10.55,5.07,34.22-25.17,50.42-26.61,14.26-29.8,28.32-15.6,40.76,13.65,12,32.51,9.37,32.51,9.37s39.55-9.11,47.61-38.69c4.88-17.94-2.79-38.12-8.39-55.49a112,112,0,0,0-14-28.72,4.08,4.08,0,0,0-1.38-1.42,3.8,3.8,0,0,0-2.66-.09Z" style="fill:#f5f5f5"></path><path d="M253.7,263.07c-25.71,0-36.08-11.06-24.13-25.76,5.92-7.29,16.65-10.3,23.37-17.73,6.15-6.79,12.58-15.29,13.69-28,.93-10.57-7.85-20.82-12-30.3-3.1-7.12-11.93-21.54-7.62-29.39a6.13,6.13,0,0,1,6-3.19c2.47.38,4.3,2.4,6,4.25a163.66,163.66,0,0,0,18,16.76c18.48,15,39.5,45.34,27.11,81.28C297.79,249.38,270.27,263.07,253.7,263.07Z" style="fill:#fafafa"></path><path d="M307,236.7c3-6.17,3.32-21.76,1.36-29.29-3.19,17.42-15.46,31.52-39.09,38.09-10.27,2.87-19.21,3.51-26.1,2.83-10.08-1-15.92-4.79-15.42-8.63,9.81-13,24.71-13.95,33.31-31a48.52,48.52,0,0,0,3.6-7.85c.23-.73.41-1.32.5-1.64a.75.75,0,0,0,.05-.27c-4.57,11.72-17.61,20.85-29.7,26s-22.49,5.61-35,3.79c-11-1.65-11.36-7.62-11.36-8.4a1.39,1.39,0,0,1,.37-.5c3.74-5.11,10.31-10.26,20-15.47a68.67,68.67,0,0,0,12.08-8.16,61,61,0,0,1-14.55,6.8c-9.72,2.92-21.3,3.55-26,2.6-9.63-2-11.3-6.65-9.71-13.55-.29.77-.53,1.51-.79,2.33-3.94,12.66-1.06,31.4,15.47,39.26,0,0,0,0,0,0,1,3.94,3.64,7.77,7.85,11.46,13.65,11.95,32.51,9.36,32.51,9.36h0c3.81,5.31,13.19,8.57,27.12,8.57,9.36,0,22.21-4.37,32.77-11.48h0s29,.42,42.84-27.12a41.45,41.45,0,0,0,4.23-22.62h0C331.85,225.8,315.58,234.05,307,236.7Z" style="opacity:0.05"></path><path d="M322.67,212.71a1.78,1.78,0,0,0,1.22-.09,1.72,1.72,0,0,0,.84-2.28L320,200.12a1.72,1.72,0,1,0-3.12,1.44l4.72,10.22A1.75,1.75,0,0,0,322.67,212.71Z" style="opacity:0.15"></path><path d="M318.36,197.13a1.72,1.72,0,0,0-.84,2.28l4.72,10.22a1.72,1.72,0,0,0,1.07.93,1.75,1.75,0,0,0,1.21-.09,1.72,1.72,0,0,0,.85-2.29L320.64,198A1.72,1.72,0,0,0,318.36,197.13Z" style="fill:#455a64"></path><path d="M288.72,227.71a1.69,1.69,0,0,0-.23-1.19,1.72,1.72,0,0,0-2.37-.56l-9.57,5.93a1.72,1.72,0,0,0,1.82,2.93l9.57-5.93A1.72,1.72,0,0,0,288.72,227.71Z" style="opacity:0.15"></path><path d="M275.65,232.28a1.72,1.72,0,0,0,2.37.56l9.56-5.93a1.74,1.74,0,0,0,.79-1.18,1.69,1.69,0,0,0-.24-1.19,1.72,1.72,0,0,0-2.37-.56l-9.56,5.93A1.71,1.71,0,0,0,275.65,232.28Z" style="fill:#455a64"></path><path d="M193.1,221.19a1.77,1.77,0,0,1,.24-1.2,1.71,1.71,0,0,1,2.37-.55l9.56,5.93a1.72,1.72,0,0,1-1.81,2.93l-9.57-5.94A1.73,1.73,0,0,1,193.1,221.19Z" style="opacity:0.15"></path><path d="M205.63,223.39l-9.57-5.93a1.71,1.71,0,0,0-2.6,1.74,1.69,1.69,0,0,0,.79,1.18l9.56,5.94a1.72,1.72,0,0,0,1.82-2.93Z" style="fill:#455a64"></path><path d="M238.76,196.3a1.75,1.75,0,0,0-.24-1.19,1.72,1.72,0,0,0-2.37-.56l-9.56,5.94a1.72,1.72,0,1,0,1.81,2.93l9.57-5.94A1.75,1.75,0,0,0,238.76,196.3Z" style="opacity:0.15"></path><path d="M225.68,200.88a1.72,1.72,0,0,0,2.37.56l9.56-5.94a1.71,1.71,0,0,0,.79-1.18,1.69,1.69,0,0,0-.23-1.19,1.73,1.73,0,0,0-2.37-.56l-9.57,5.94A1.72,1.72,0,0,0,225.68,200.88Z" style="fill:#455a64"></path><path d="M238.29,153.26a1.69,1.69,0,0,0-.23-1.19,1.72,1.72,0,0,0-2.37-.56l-9.57,5.93a1.72,1.72,0,0,0,1.82,2.93l9.56-5.93A1.74,1.74,0,0,0,238.29,153.26Z" style="opacity:0.15"></path><path d="M225.21,157.83a1.72,1.72,0,0,0,2.37.56l9.57-5.93a1.74,1.74,0,0,0,.79-1.18,1.69,1.69,0,0,0-.24-1.19,1.72,1.72,0,0,0-2.37-.56l-9.56,5.93A1.73,1.73,0,0,0,225.21,157.83Z" style="fill:#455a64"></path><path d="M306.4,177.53a1.69,1.69,0,0,0-.24-1.19,1.72,1.72,0,0,0-2.37-.56l-9.56,5.94a1.72,1.72,0,0,0,1.82,2.93l9.56-5.94A1.71,1.71,0,0,0,306.4,177.53Z" style="opacity:0.15"></path><path d="M293.32,182.11a1.72,1.72,0,0,0,2.37.56l9.57-5.94a1.71,1.71,0,0,0,.55-2.37,1.72,1.72,0,0,0-2.37-.56l-9.56,5.94A1.72,1.72,0,0,0,293.32,182.11Z" style="fill:#455a64"></path><path d="M240.45,239.51a1.72,1.72,0,0,0,2-2.45l-5.24-10a1.72,1.72,0,0,0-3.05,1.61l5.24,10A1.74,1.74,0,0,0,240.45,239.51Z" style="opacity:0.15"></path><path d="M235.53,224.22a1.73,1.73,0,0,0-.72,2.33l5.24,10a1.74,1.74,0,0,0,1,.85,1.72,1.72,0,0,0,2-2.45l-5.24-10A1.73,1.73,0,0,0,235.53,224.22Z" style="fill:#BA68C8"></path><path d="M235.53,224.22a1.73,1.73,0,0,0-.72,2.33l5.24,10a1.74,1.74,0,0,0,1,.85,1.72,1.72,0,0,0,2-2.45l-5.24-10A1.73,1.73,0,0,0,235.53,224.22Z" style="opacity:0.30000000000000004"></path><path d="M278.43,166.74a1.72,1.72,0,0,0,2-2.46l-5.24-10a1.72,1.72,0,0,0-3.05,1.61l5.24,10A1.74,1.74,0,0,0,278.43,166.74Z" style="opacity:0.15"></path><path d="M273.51,151.45a1.72,1.72,0,0,0-.72,2.32l5.24,10a1.73,1.73,0,0,0,1,.84,1.67,1.67,0,0,0,1.29-.12,1.73,1.73,0,0,0,.72-2.33l-5.24-10A1.73,1.73,0,0,0,273.51,151.45Z" style="fill:#BA68C8"></path><path d="M273.51,151.45a1.72,1.72,0,0,0-.72,2.32l5.24,10a1.73,1.73,0,0,0,1,.84,1.67,1.67,0,0,0,1.29-.12,1.73,1.73,0,0,0,.72-2.33l-5.24-10A1.73,1.73,0,0,0,273.51,151.45Z" style="opacity:0.30000000000000004"></path><path d="M186,199.78a1.73,1.73,0,0,1-2-2.46l5.24-10a1.73,1.73,0,0,1,2.33-.72,1.71,1.71,0,0,1,.72,2.32l-5.24,10A1.73,1.73,0,0,1,186,199.78Z" style="opacity:0.15"></path><path d="M188.63,185.21l-5.25,10a1.73,1.73,0,0,0,.73,2.33,1.72,1.72,0,0,0,2.32-.73l5.24-10a1.72,1.72,0,1,0-3-1.6Z" style="fill:#BA68C8"></path><path d="M188.63,185.21l-5.25,10a1.73,1.73,0,0,0,.73,2.33,1.72,1.72,0,0,0,2.32-.73l5.24-10a1.72,1.72,0,1,0-3-1.6Z" style="opacity:0.30000000000000004"></path><path d="M275.16,202.22a1.68,1.68,0,0,0,.9-.93,1.72,1.72,0,0,0-.95-2.24l-10.45-4.2a1.73,1.73,0,0,0-1.29,3.2l10.45,4.2A1.73,1.73,0,0,0,275.16,202.22Z" style="opacity:0.15"></path><path d="M262,194a1.72,1.72,0,0,0,.95,2.24l10.45,4.2a1.66,1.66,0,0,0,1.33,0,1.69,1.69,0,0,0,.91-.93,1.73,1.73,0,0,0-1-2.24l-10.44-4.19A1.71,1.71,0,0,0,262,194Z" style="fill:#BA68C8"></path><path d="M262,194a1.72,1.72,0,0,0,.95,2.24l10.45,4.2a1.66,1.66,0,0,0,1.33,0,1.69,1.69,0,0,0,.91-.93,1.73,1.73,0,0,0-1-2.24l-10.44-4.19A1.71,1.71,0,0,0,262,194Z" style="opacity:0.30000000000000004"></path><path d="M221.37,180a1.7,1.7,0,0,0,.9-.94,1.72,1.72,0,0,0-1-2.24l-10.45-4.19a1.72,1.72,0,1,0-1.28,3.19L220,180A1.73,1.73,0,0,0,221.37,180Z" style="opacity:0.15"></path><path d="M208.18,171.79a1.71,1.71,0,0,0,.95,2.24l10.45,4.2a1.73,1.73,0,0,0,1.34,0,1.76,1.76,0,0,0,.9-.94,1.72,1.72,0,0,0-1-2.24l-10.44-4.19A1.71,1.71,0,0,0,208.18,171.79Z" style="fill:#BA68C8"></path><path d="M208.18,171.79a1.71,1.71,0,0,0,.95,2.24l10.45,4.2a1.73,1.73,0,0,0,1.34,0,1.76,1.76,0,0,0,.9-.94,1.72,1.72,0,0,0-1-2.24l-10.44-4.19A1.71,1.71,0,0,0,208.18,171.79Z" style="opacity:0.30000000000000004"></path><path d="M159.39,210.17a35.45,35.45,0,0,0,5.88,19.25c4.64,7.27,11.92,13.89,21.58,19.47,17.78,10.26,41.13,15.4,64.49,15.4s46.71-5.14,64.5-15.4c9.66-5.58,16.94-12.2,21.58-19.47a35.53,35.53,0,0,0,5.88-19.25h-7.82c0,12.41-8.57,24.21-24.13,33.19-33.09,19.09-86.92,19.1-120,0-15.56-9-24.13-20.78-24.13-33.19" style="fill:#BA68C8"></path><path d="M159.39,210.17a35.45,35.45,0,0,0,5.88,19.25c4.64,7.27,11.92,13.89,21.58,19.47,17.78,10.26,41.13,15.4,64.49,15.4s46.71-5.14,64.5-15.4c9.66-5.58,16.94-12.2,21.58-19.47a35.53,35.53,0,0,0,5.88-19.25h-7.82c0,12.41-8.57,24.21-24.13,33.19-33.09,19.09-86.92,19.1-120,0-15.56-9-24.13-20.78-24.13-33.19" style="fill:#fff;opacity:0.85"></path><path d="M335.48,204c0,12.41-8.57,24.21-24.13,33.19-33.09,19.09-86.92,19.1-120,0-15.56-9-24.13-20.78-24.13-33.19h-7.82a35.45,35.45,0,0,0,5.88,19.25c4.64,7.27,11.92,13.89,21.58,19.47,17.78,10.26,41.13,15.4,64.49,15.4s46.71-5.14,64.5-15.4c9.66-5.58,16.94-12.2,21.58-19.47A35.53,35.53,0,0,0,343.3,204Z" style="fill:#BA68C8"></path><path d="M335.48,204c0,12.41-8.57,24.21-24.13,33.19-33.09,19.09-86.92,19.1-120,0-15.56-9-24.13-20.78-24.13-33.19h-7.82a35.45,35.45,0,0,0,5.88,19.25c4.64,7.27,11.92,13.89,21.58,19.47,17.78,10.26,41.13,15.4,64.49,15.4s46.71-5.14,64.5-15.4c9.66-5.58,16.94-12.2,21.58-19.47A35.53,35.53,0,0,0,343.3,204Z" style="fill:#fff;opacity:0.65"></path><path id="freepik--sphere-12--inject-8" d="M339.56,204.25c0,13-8.61,26.07-25.84,36-34.45,19.89-90.3,19.89-124.75,0-17.23-9.94-25.84-23-25.84-36a88.22,88.22,0,1,1,176.43,0Z" style="fill:#BA68C8;opacity:0.1"></path><path d="M310.21,242.18c-19.1,7.07-46,12-69.53,3.76-23.86-8.35-41.65-24.49-49.42-48.55s-1.45-52.91,17.85-69.23a64.75,64.75,0,0,1,5.42-4.1,88.22,88.22,0,0,0-51.4,80.19c0,13,8.61,26.07,25.84,36C222.27,259.49,275.57,260.12,310.21,242.18Z" style="fill:#BA68C8;opacity:0.1"></path><path id="freepik--sphere-12--inject-8" d="M251.34,117a87.35,87.35,0,0,1,87.26,87.25c0,13.24-9,25.74-25.36,35.18-16.52,9.53-38.5,14.78-61.9,14.78S206,249,189.45,239.43c-16.35-9.44-25.36-21.94-25.36-35.18A87.35,87.35,0,0,1,251.34,117m0-1a88.21,88.21,0,0,0-88.21,88.22c0,13,8.61,26.07,25.84,36s39.8,14.92,62.37,14.92,45.16-5,62.38-14.92,25.84-23,25.84-36A88.22,88.22,0,0,0,251.34,116Z" style="fill:#BA68C8;opacity:0.30000000000000004"></path><path d="M233.89,133.73a10.27,10.27,0,0,1,4.89-5.27c7-4,18.34-4,25.34,0a10.27,10.27,0,0,1,4.89,5.27c1.15-3.28-.48-6.81-4.89-9.35-7-4-18.34-4-25.34,0C234.38,126.92,232.75,130.45,233.89,133.73Z" style="fill:#BA68C8;opacity:0.2"></path><path d="M233.89,133.73a10.27,10.27,0,0,0,4.89,5.27c7,4,18.34,4.05,25.34,0a10.27,10.27,0,0,0,4.89-5.27,10.27,10.27,0,0,0-4.89-5.27c-7-4-18.34-4-25.34,0A10.27,10.27,0,0,0,233.89,133.73Z" style="fill:#fff;opacity:0.2"></path><path d="M262.16,136.24c.06.14.55,1.23,1.36,3.09a6,6,0,0,0,.6-.33c.18-.09.35-.2.52-.3l.46-.3a26.82,26.82,0,0,1-2.85-2.09Z" style="fill:#f5f5f5"></path><path d="M238,138.51a.51.51,0,0,0,.13.09,6.36,6.36,0,0,0,.58.35c-.07-.8-.11-1.23-.11-1.23s0,0,0,0C238.39,138,238.2,138.26,238,138.51Z" style="fill:#f0f0f0"></path><path d="M238.12,138.6a6.36,6.36,0,0,0,.58.35l.08.05a23.08,23.08,0,0,0,7.69,2.63,30.39,30.39,0,0,0,11.29-.26,109.71,109.71,0,0,0-5.9-9.77,4.2,4.2,0,0,0-1.39-1.42,3,3,0,0,0-1.72-.27,6.23,6.23,0,0,0-.94.18c-.19,0-.36.09-.54.15a15.62,15.62,0,0,0-8.68,7.48s0,0,0,0c-.15.27-.3.53-.43.8C238.13,138.57,238.12,138.58,238.12,138.6Z" style="fill:#f5f5f5"></path><path d="M246.47,141.63a30.39,30.39,0,0,0,11.29-.26,21.83,21.83,0,0,0,5.76-2,6,6,0,0,0,.6-.33c.18-.09.35-.2.52-.3-.81-.78-1.62-1.58-2.39-2.39-1.1-1.11-2.16-2.24-3.21-3.38-1.68-1.85-3.5-3.88-6-4.24a5.69,5.69,0,0,0-4.31,1.22,6.39,6.39,0,0,0-1.7,2C245.59,134.55,245.64,138,246.47,141.63Z" style="fill:#fafafa"></path><path d="M327.31,185.72c5.54-9.13-6.1-24-11.11-31.66-6-8.71-32.63-34.79-40.8-19.33-2.92,7,.32,15.82,5.24,21,3.26,3.42,8.67,6.72,12.57,9.39,9.32,6.39,17.58,14.07,26.36,21.09C322,188.46,325.21,188.57,327.31,185.72Zm7,6.5c-2.48-2.45-7.26-1.4-8.86,1.57a8.25,8.25,0,0,0-.52,6,6.36,6.36,0,0,0,9.17,3.31C337.58,200.8,337.21,195,334.27,192.22Z" style="fill:#fff;opacity:0.6000000000000001"></path><g id="freepik--straw--inject-8"><path d="M249,50.34a3.19,3.19,0,0,0-2.06-2.49,10,10,0,0,0-9.07.65,3.21,3.21,0,0,0-1.7,2.75c.05.57,8.6,118.9,8.64,119.47a3.19,3.19,0,0,0,2.06,2.49,10,10,0,0,0,9.07-.65,3.21,3.21,0,0,0,1.7-2.75C257.56,169.23,249,50.91,249,50.34Z" style="fill:#BA68C8"></path><path d="M246.84,173.21a10,10,0,0,0,9.07-.65,3.21,3.21,0,0,0,1.7-2.75l-.05-.59c-3.56,2.79-8.6,3.6-9.62-9.37-1.11-14-8.09-109.06-8.09-109.06l-.43-3.07a7.27,7.27,0,0,0-1.58.78,3.21,3.21,0,0,0-1.7,2.75c.05.57,8.6,118.9,8.64,119.47A3.19,3.19,0,0,0,246.84,173.21Z" style="opacity:0.15"></path><path d="M237.84,48.5a3.21,3.21,0,0,0-1.7,2.75,3.2,3.2,0,0,0,2.07,2.48,10.05,10.05,0,0,0,9.07-.64A3.19,3.19,0,0,0,249,50.34a3.19,3.19,0,0,0-2.06-2.49A10,10,0,0,0,237.84,48.5Z" style="fill:#BA68C8"></path><path d="M237.84,48.5a3.21,3.21,0,0,0-1.7,2.75,3.2,3.2,0,0,0,2.07,2.48,10.05,10.05,0,0,0,9.07-.64A3.19,3.19,0,0,0,249,50.34a3.19,3.19,0,0,0-2.06-2.49A10,10,0,0,0,237.84,48.5Z" style="opacity:0.45"></path><path d="M257.61,169.81a3.25,3.25,0,0,1-1.69,2.76,10,10,0,0,1-9.08.63,3.15,3.15,0,0,1-2.06-2.48c0-.19-.93-12.92-2.17-30a29.71,29.71,0,0,0,13,1C256.75,157.84,257.6,169.63,257.61,169.81Z" style="opacity:0.1"></path></g><path d="M233.89,133.73c4.85,9.62,24.1,9.68,31.91,3.84a9.3,9.3,0,0,0,3.21-3.84,9,9,0,0,1-2.9,4.23c-6.89,5.35-16.9,5.75-24.84,2.65-3.1-1.34-6.38-3.48-7.38-6.88Z" style="fill:#fff"></path></g></g></g><g id="freepik--Sparkles--inject-8"><path id="freepik--Shine--inject-8" d="M390.83,180.6a.37.37,0,0,0-.34-.38l-8.4-.93a1.91,1.91,0,0,1-1.68-1.72l-1-10.71a.38.38,0,0,0-.38-.35.39.39,0,0,0-.39.35l-1,10.71a1.91,1.91,0,0,1-1.69,1.72l-8.39.93a.38.38,0,0,0-.35.38.4.4,0,0,0,.35.39l8.39.92a1.92,1.92,0,0,1,1.69,1.72l1,10.72a.39.39,0,0,0,.39.35.38.38,0,0,0,.38-.35l1-10.72a1.92,1.92,0,0,1,1.68-1.72l8.4-.92A.39.39,0,0,0,390.83,180.6Zm-8.82.55a2.66,2.66,0,0,0-2.37,2.41l-.58,6.44-.58-6.44a2.67,2.67,0,0,0-2.37-2.41l-4.92-.55,4.92-.54a2.69,2.69,0,0,0,2.37-2.42l.58-6.44.58,6.44a2.68,2.68,0,0,0,2.37,2.42l4.92.54ZM95.86,208.82l-6.2-.69A1.27,1.27,0,0,1,88.54,207l-.71-7.91a.42.42,0,0,0-.84,0L86.28,207a1.26,1.26,0,0,1-1.12,1.14l-6.2.69a.42.42,0,0,0,0,.83l6.2.69a1.27,1.27,0,0,1,1.12,1.14l.71,7.91a.42.42,0,0,0,.84,0l.71-7.91a1.28,1.28,0,0,1,1.12-1.14l6.2-.69a.42.42,0,0,0,0-.83Zm-6.14.7a2.25,2.25,0,0,0-2,2l-.32,3.5-.31-3.5a2.27,2.27,0,0,0-2-2l-2.59-.28L85.1,209a2.27,2.27,0,0,0,2-2h0l.31-3.5.32,3.5a2.25,2.25,0,0,0,2,2l2.6.29Zm339.91,3.73-5.38-.6a1.21,1.21,0,0,1-1.08-1.1l-.62-6.87a.25.25,0,0,0-.25-.23.26.26,0,0,0-.25.23l-.62,6.87a1.21,1.21,0,0,1-1.08,1.1l-5.38.6a.24.24,0,0,0-.22.24.24.24,0,0,0,.22.25l5.38.6a1.21,1.21,0,0,1,1.08,1.1l.62,6.87a.26.26,0,0,0,.25.23.25.25,0,0,0,.25-.23l.62-6.87a1.21,1.21,0,0,1,1.08-1.1l5.38-.6a.24.24,0,0,0,.22-.25A.24.24,0,0,0,429.63,213.25Zm-5.44.59a1.73,1.73,0,0,0-1.52,1.55l-.37,4.14-.37-4.14a1.73,1.73,0,0,0-1.52-1.55l-3.16-.35,3.16-.34a1.73,1.73,0,0,0,1.52-1.55l.37-4.14.37,4.14a1.73,1.73,0,0,0,1.52,1.55l3.16.34Zm-16.9-100.51-9.68-1.07a2.18,2.18,0,0,1-1.94-2l-1.11-12.34a.45.45,0,0,0-.89,0l-1.11,12.34a2.19,2.19,0,0,1-1.94,2l-9.68,1.07a.45.45,0,0,0-.4.45.44.44,0,0,0,.4.44l9.68,1.07a2.2,2.2,0,0,1,1.94,2l1.11,12.35a.45.45,0,0,0,.89,0l1.11-12.35a2.19,2.19,0,0,1,1.94-2l9.68-1.07a.45.45,0,0,0,.4-.44A.46.46,0,0,0,407.29,113.33Zm-9.78,1.07a3.1,3.1,0,0,0-2.73,2.79l-.67,7.42-.66-7.42a3.11,3.11,0,0,0-2.74-2.79l-5.66-.62,5.66-.63a3.1,3.1,0,0,0,2.74-2.79l.66-7.42.67,7.42a3.09,3.09,0,0,0,2.73,2.79l5.67.63ZM176.45,65.5l-5.6-.62a1.15,1.15,0,0,1-1-1l-.65-7.14a.37.37,0,0,0-.37-.35.38.38,0,0,0-.38.35l-.64,7.14a1.16,1.16,0,0,1-1,1l-5.6.62a.38.38,0,0,0,0,.75l5.6.62a1.15,1.15,0,0,1,1,1l.64,7.15a.38.38,0,0,0,.38.34.37.37,0,0,0,.37-.34l.65-7.15a1.14,1.14,0,0,1,1-1l5.6-.62a.38.38,0,0,0,0-.75Zm-5.68.61a1.92,1.92,0,0,0-1.69,1.73l-.26,3-.27-3a1.92,1.92,0,0,0-1.69-1.73l-2.19-.24,2.19-.24a1.91,1.91,0,0,0,1.69-1.72h0l.27-3,.26,3a1.91,1.91,0,0,0,1.69,1.72l2.19.24ZM336.41,90.49l-5.6-.62a1.16,1.16,0,0,1-1-1l-.64-7.14a.38.38,0,0,0-.76,0l-.64,7.14a1.16,1.16,0,0,1-1,1l-5.59.62a.38.38,0,0,0,0,.75l5.59.62a1.16,1.16,0,0,1,1,1l.64,7.14a.38.38,0,0,0,.76,0l.64-7.14a1.16,1.16,0,0,1,1-1l5.6-.62a.38.38,0,0,0,0-.75Zm-5.69.62A1.91,1.91,0,0,0,329,92.83l-.27,3-.27-3a1.91,1.91,0,0,0-1.68-1.72l-2.19-.25,2.19-.24a1.91,1.91,0,0,0,1.68-1.72h0l.27-3,.27,3a1.91,1.91,0,0,0,1.68,1.72l2.2.24ZM303.93,51.49l-8-.88a1.81,1.81,0,0,1-1.6-1.63l-.92-10.19a.38.38,0,0,0-.37-.34.36.36,0,0,0-.36.34L291.78,49a1.81,1.81,0,0,1-1.6,1.63l-8,.88a.37.37,0,0,0,0,.73l8,.88a1.83,1.83,0,0,1,1.6,1.64l.92,10.19a.35.35,0,0,0,.36.33.37.37,0,0,0,.37-.33l.92-10.19A1.82,1.82,0,0,1,296,53.1l8-.88a.37.37,0,0,0,0-.73Zm-8.06.88a2.56,2.56,0,0,0-2.26,2.3l-.55,6.13-.55-6.13a2.55,2.55,0,0,0-2.25-2.3l-4.68-.51,4.68-.52a2.55,2.55,0,0,0,2.25-2.3l.55-6.12.55,6.12a2.56,2.56,0,0,0,2.26,2.3l4.67.52ZM112.93,107.79l-6.28-.7a1.29,1.29,0,0,1-1.14-1.16l-.72-8a.43.43,0,0,0-.43-.39.42.42,0,0,0-.42.39l-.72,8a1.31,1.31,0,0,1-1.14,1.16l-6.28.7a.42.42,0,0,0-.38.42.42.42,0,0,0,.38.42l6.28.7a1.29,1.29,0,0,1,1.14,1.16l.72,8a.42.42,0,0,0,.42.39.43.43,0,0,0,.43-.39l.72-8a1.27,1.27,0,0,1,1.14-1.16l6.28-.7a.43.43,0,0,0,.38-.42A.42.42,0,0,0,112.93,107.79Zm-6,.73a2.49,2.49,0,0,0-2.19,2.24l-.35,3.84-.34-3.84a2.49,2.49,0,0,0-2.19-2.24L99,108.21l2.85-.32a2.47,2.47,0,0,0,2.19-2.23h0l.34-3.84.35,3.84a2.47,2.47,0,0,0,2.19,2.23l2.85.32ZM144.47,157,134.79,156a2.19,2.19,0,0,1-1.94-2l-1.11-12.35a.44.44,0,0,0-.44-.4.45.45,0,0,0-.45.4L129.74,154a2.18,2.18,0,0,1-1.94,2L118.12,157a.45.45,0,0,0,0,.89L127.8,159a2.18,2.18,0,0,1,1.94,2l1.11,12.34a.46.46,0,0,0,.45.41.45.45,0,0,0,.44-.41L132.85,161a2.19,2.19,0,0,1,1.94-2l9.68-1.07a.45.45,0,0,0,0-.89Zm-9.77,1.07a3.09,3.09,0,0,0-2.73,2.79l-.67,7.42-.67-7.42a3.09,3.09,0,0,0-2.73-2.79l-5.67-.63,5.67-.62a3.09,3.09,0,0,0,2.73-2.79l.67-7.42.67,7.42a3.09,3.09,0,0,0,2.73,2.79l5.66.62Z" style="fill:#BA68C8;opacity:0.30000000000000004"></path></g></svg>
