<svg xmlns="http://www.w3.org/2000/svg" viewBox="0 0 500 500"><g id="freepik--background-complete--inject-20"><g style="opacity:0.6000000000000001"><polygon points="200.59 66.97 200.59 66.97 200.59 66.97 200.59 66.97 200.59 66.97" style="fill:#ebebeb"></polygon><path d="M363.63,248a3.32,3.32,0,0,0-.33-2.08.31.31,0,0,1-.05-.1,3,3,0,0,0-.57-1.41,2.62,2.62,0,0,0-1.9-1.06,1.16,1.16,0,0,0-1.2.62c-.15.41-.3.84-.42,1.27a4.62,4.62,0,0,0-.1,2.68,3.08,3.08,0,0,0,1.4,1.75,2.11,2.11,0,0,0,2.12,0A2.42,2.42,0,0,0,363.63,248Z" style="fill:#ebebeb"></path><path d="M346.31,219.56a7.34,7.34,0,0,0,.05-2,27.43,27.43,0,0,0-.94-3.94c0-.29.05-.58.05-.87,0-1.1,0-2.22-.08-3.31a4.31,4.31,0,0,0-.9-2.48,2.46,2.46,0,0,0-3.57-.42,3.66,3.66,0,0,0-.67,3.69c.52,1.58,1.94,2.81,2,4.56s-.82,3.52.07,5.27a3.17,3.17,0,0,0,1.47,1.47,1.78,1.78,0,0,0,1.76-.08A3.58,3.58,0,0,0,346.31,219.56Z" style="fill:#ebebeb"></path><path d="M327.78,180.18a2.47,2.47,0,0,0,0-1.45,3,3,0,0,0-1.21-2.38,1.32,1.32,0,0,0-1-.32,1.14,1.14,0,0,0-.77.55,2,2,0,0,0-.25.88c0,.12,0,.24,0,.35a.6.6,0,0,0,0,.12.79.79,0,0,0,0,.09l0,0-.05,0a.82.82,0,0,0-.34.23,1.11,1.11,0,0,0-.16,1.11,3.82,3.82,0,0,0,1,1.55c.47.45,1.08,1.07,1.77.69A2.84,2.84,0,0,0,327.78,180.18Z" style="fill:#ebebeb"></path><path d="M323.07,175.84A1,1,0,0,0,323,175a1.16,1.16,0,0,0-.67-.54,1,1,0,0,0-.82.11,1,1,0,0,0-.46.7.87.87,0,0,0,.23.78.9.9,0,0,0,.69.25.29.29,0,0,0,.14.25.41.41,0,0,0,.43,0,1.11,1.11,0,0,0,.57-.68Z" style="fill:#ebebeb"></path><path d="M322.5,164.35a1,1,0,0,0,0-.23.84.84,0,0,0-.14-.47.87.87,0,0,0-.38-.31.77.77,0,0,0-.29-.07,1.43,1.43,0,0,0-.15-.27.25.25,0,0,0-.1-.41.78.78,0,0,0-.54,0s0,0,0,0a.65.65,0,0,0-.14,0,.5.5,0,0,0-.39.48,2.45,2.45,0,0,0,.19,1.2,1.2,1.2,0,0,0,.81.65.9.9,0,0,0,1-.43.94.94,0,0,0,0-.09s0,0,0,0A.69.69,0,0,0,322.5,164.35Z" style="fill:#ebebeb"></path><path d="M220.23,70.76a.91.91,0,0,0-.45-1.05.77.77,0,0,0-.25-.1,1,1,0,0,0-.29,0,1,1,0,0,0-.38.09.51.51,0,0,0-.21.15.91.91,0,0,0-.22.33.63.63,0,0,0,0,.27,1,1,0,0,0,.25.61,1.2,1.2,0,0,0,.45.29,1,1,0,0,0,.53,0,.72.72,0,0,0,.5-.46h0A.32.32,0,0,0,220.23,70.76Z" style="fill:#ebebeb"></path><path d="M213.45,101.18a1,1,0,0,0-.45-.11,1,1,0,0,0-.72.31,1,1,0,0,0-.31.74.47.47,0,0,0,.07.25l.07.11a.5.5,0,0,0,.17.11.38.38,0,0,0,.19,0h.14a.3.3,0,0,0,.15-.07.74.74,0,0,0,.29.34.55.55,0,0,0,.33.07.33.33,0,0,0,.19-.06l.11-.07a1,1,0,0,0,.29-.75,1.5,1.5,0,0,0,0-.22l-.08-.21a.76.76,0,0,0-.18-.26A.78.78,0,0,0,213.45,101.18Z" style="fill:#ebebeb"></path><path d="M319.35,172.92a1.75,1.75,0,0,0-.06-1.62l0-.05a2.76,2.76,0,0,0-.8-1.34.1.1,0,0,0,0,0l-.33-.45c-.46-.67-1-1.32-1.47-2-.86-1.13-1.71-2.29-2.65-3.37a2.13,2.13,0,0,0-2.88-.37c-2.22,1.53-.75,4.84.45,6.52a20.85,20.85,0,0,0,2.36,2.69,3.82,3.82,0,0,0,2.83,1.53,2.86,2.86,0,0,0,2-1A1.24,1.24,0,0,0,319.35,172.92Z" style="fill:#ebebeb"></path><path d="M212.86,93.48a1.33,1.33,0,0,0,.29-.29.6.6,0,0,0,.09-.48,1.38,1.38,0,0,0,0-.2h0a.42.42,0,0,0-.08-.2.93.93,0,0,0-.28-.28h0a.86.86,0,0,0-.29-.14.34.34,0,0,0-.24,0h-.21a1.18,1.18,0,0,0-.48.19,1.5,1.5,0,0,0-.23.2,1.24,1.24,0,0,0-.14.18,1.21,1.21,0,0,0-.09.2.53.53,0,0,0,0,.28.47.47,0,0,0,.13.24,1.1,1.1,0,0,0,.52.35,1.26,1.26,0,0,0,1.06-.08Z" style="fill:#ebebeb"></path><path d="M210.31,69.79a1.41,1.41,0,0,0,.17-.55c0-.12,0-.24,0-.35s0-.47-.19-.56a.23.23,0,0,1-.05-.07l-.06-.07-.15-.12-.12,0,0-.08a1.25,1.25,0,0,0-1-.37,1.69,1.69,0,0,0-1,.36,1.38,1.38,0,0,0-.27,1.84,1.86,1.86,0,0,0,.88.68A1.49,1.49,0,0,0,210.31,69.79Z" style="fill:#ebebeb"></path><path d="M201.84,69.12a1.76,1.76,0,0,0,.34-1.06,1.35,1.35,0,0,0-.08-.52,1.59,1.59,0,0,0-.23-.45s0,0,0,0a1.62,1.62,0,0,0-.71-1.14,1.29,1.29,0,0,0-1.26,0,1.51,1.51,0,0,0-.73,1,2,2,0,0,0,.26,1.43,4.94,4.94,0,0,0,.42.57,2.38,2.38,0,0,0,.47.48,1,1,0,0,0,.86.17A1.37,1.37,0,0,0,201.84,69.12Z" style="fill:#ebebeb"></path><path d="M157.32,89.69c0,.09-.06.19-.09.27a.46.46,0,0,0,0,.31.24.24,0,0,0,.1.12.28.28,0,0,0,.09.06.37.37,0,0,0,.15,0h.11a.21.21,0,0,0,.13-.07.29.29,0,0,0,.11-.11s0,0,0,0,0,0,0-.08.06-.17.1-.26l0-.13,0-.14a.37.37,0,0,0,0-.21.94.94,0,0,0,0-.09.27.27,0,0,0-.1-.11.17.17,0,0,0-.08-.06.25.25,0,0,0-.15,0h-.1a.27.27,0,0,0-.13.07.26.26,0,0,0-.11.1l-.07.13Z" style="fill:#ebebeb"></path><path d="M169.05,79.55a.7.7,0,0,0,0-.18.33.33,0,0,0,0-.18v0s0-.08,0-.11l0-.12a.85.85,0,0,0-.16-.28,1.13,1.13,0,0,0-.19-.19l0,0,0,0-.13-.08a1,1,0,0,0-.51-.1.07.07,0,0,0-.07.06s0,.06,0,.08a.68.68,0,0,0-.2.07,1.34,1.34,0,0,0-.51.62,1.24,1.24,0,0,0-.07.66.74.74,0,0,0,.5.63,1.23,1.23,0,0,0,.71,0,1.68,1.68,0,0,0,.3-.15,1.38,1.38,0,0,0,.3-.29A1.1,1.1,0,0,0,169.05,79.55Z" style="fill:#ebebeb"></path><path d="M196.28,72a1.41,1.41,0,0,0-.82-1.79,2.63,2.63,0,0,0-1.79.1c-.84.31-1.64.72-2.45,1.09a5.33,5.33,0,0,0-2,1.18,1.4,1.4,0,0,0,.31,2.19,2.69,2.69,0,0,0,2.35,0,3.57,3.57,0,0,0,1.51-1.23l1.05-.24A2.6,2.6,0,0,0,196.28,72Z" style="fill:#ebebeb"></path><path d="M163.84,80.46a2.64,2.64,0,0,0-.73-2.92,3.5,3.5,0,0,0-3.47-.61,4.84,4.84,0,0,0-3.27,4.12,3.85,3.85,0,0,0,.76,2.7,2.63,2.63,0,0,0,2.72,1,3.52,3.52,0,0,0,1.91-1.65,10.39,10.39,0,0,1,.65-1c.23-.31.67-.64,1-1a2.22,2.22,0,0,0,.23-.43A.56.56,0,0,0,163.84,80.46Z" style="fill:#ebebeb"></path><path d="M154.49,81.82a1,1,0,0,0-.06-.63.52.52,0,0,0-.17-.22,3.74,3.74,0,0,0-.12-.48,1.58,1.58,0,0,0-.2-.36.54.54,0,0,0-.41-.24,1.48,1.48,0,0,0-1.12.22,1.85,1.85,0,0,0-.67.84,1.47,1.47,0,0,0,0,1.07,1.44,1.44,0,0,0,1.41.79,1.55,1.55,0,0,0,.87-.32A1.14,1.14,0,0,0,154.49,81.82Z" style="fill:#ebebeb"></path><path d="M133.2,158.94c7.81,12.7,15.85,25.29,23.83,37.88a76.84,76.84,0,0,0,29.7,27.77c20.13,15.06,44.84,21.15,68.73,26.34,48.8,10.61,55.79,47.5,57,62,.75,10.65-2.43,19.82-9,28.56-8.93,12.07-13.75,24.65-24.89,36.77-2.12,2.33-4.52,4.7-6.59,7.07-1.07,1.24-2.17,2.46-3.17,3.76A103,103,0,0,0,247.29,464c5-22.06,15.67-43.4,32.4-58.68,1-.92,2-1.78,3-2.63s2.06-1.64,3.1-2.44c1.29-1,2.69-1.9,4-2.85,23.54-14.26,50.6-26.64,64.33-52.38,10.39-10.7,16.38-25.43,14.75-40.41-.53-5.52-1.84-10.95-2.26-16.49-.51-5.36.54-10.66,1.43-15.93.74-4.93,1.33-10.32-.76-15-2.49-4.91-8.07-2.17-8.59,2.47-.48,3.53,1.59,7.55-1,10.61a60.65,60.65,0,0,1-2.63-10.18c-1.41-9.13-.73-19.67-6.88-27.24-1.69-2.09-3.92-3.65-5.73-5.62a18.32,18.32,0,0,1-3.68-6.5c-1.71-5-2.28-10.24-3.73-15.27a78.44,78.44,0,0,0-9.84-21.23c-1.29-1.85-4.42-7.31-7.17-5.84-1,.59-1,1.85-.88,2.87.61,3.3,2.69,6.07,4.35,8.93,2.53,6.08,6.48,12.47,5.13,19.31-.4,1.24-1.53,1.11-2.47.55-1.82-1.08-2.83-3.31-4.17-4.88-2-2.73-6.32-4-8.76-1.17-2.54,3.45,2.88,7.23,4.66,9.9,2.81,3.26,5.19,7.22,4.64,11.69a10.6,10.6,0,0,0,.24,3.88A108.57,108.57,0,0,0,292.41,218a167.63,167.63,0,0,0-32.64-4.64c-48.6-3.52-88.64-24.66-89.89-78.43a19.22,19.22,0,0,1,3-8.41c2.57-3.69,6.81-5.85,9.39-9.55a3.43,3.43,0,0,0,.61-3.17c-.42-1.09-1-1.86-.79-3.1.46-2.38,2.69-3.68,4.68-4.68a70,70,0,0,1,7.27-3.32c5-1.93,10.37-2,15.49-3.35A5.82,5.82,0,0,0,212.39,98a1.49,1.49,0,0,0,0-2.24c-.92-.61-2.13-.55-3.18-.8-2.43-.45-6.24-.28-3-3.47a8.41,8.41,0,0,1,5.45-1.91c1.23,0,2.43.24,3.66.22,2,0,4.35-1.26,4.18-3.6s-2.57-3.6-3.49-5.64c-1.17-2.89,2.26-2.11,3.88-2.6,2.12-.63,3.15-3.09.92-4.37-3.29-2-7.22-1.21-10.64-.09a3.16,3.16,0,0,1-3-.88c-1.92-2-4.36-1.06-6.35.28a21.91,21.91,0,0,0-4.53,3.55c-2.24.65-4.17,2.24-6.48,2.63-1.58.18-2.85-.77-4.2-1.42a10.31,10.31,0,0,0-8-.06c-9.88,4-17.77,12.36-22.37,21.9-1.73,3.62-3.71,8.57-8,9.6-2.46-6.59,3.74-12.14,6-17.82,1.26-1.5,2.38-3.53,1.13-5.16a2.66,2.66,0,0,0-3.14-.65,6.66,6.66,0,0,0-2.64,2.77,49.44,49.44,0,0,0-4.4,8.52,48,48,0,0,0-7.65,24.93c-.11,6.69,1.58,13.75-1.76,19.94C130.8,148,129.12,152,133.2,158.94Z" style="fill:#ebebeb"></path></g></g><g id="freepik--Splash--inject-20"><g style="opacity:0.4"><path d="M423.82,278.77a.6.6,0,0,1,.74.4,2.94,2.94,0,0,1,0,1.61,1.57,1.57,0,0,1-1,1,1.25,1.25,0,0,1-1.28-.42,1.2,1.2,0,0,1-.22-.64.84.84,0,0,1,.22-.58.85.85,0,0,1,.2-.17.44.44,0,0,1,.15-.05c0-.07.05-.15.09-.21A2.29,2.29,0,0,1,423.82,278.77Z" style="fill:#FFC727"></path><path d="M422.16,304.86a.9.9,0,0,1,.73.77,1.68,1.68,0,0,1-.14.85,2.23,2.23,0,0,1-.42.75,1.18,1.18,0,0,1-1,.33,1.06,1.06,0,0,1-.7-.52,1,1,0,0,1-.09-.84,1.53,1.53,0,0,1,.37-.55,1.09,1.09,0,0,1,.17-.36.75.75,0,0,1,.28-.28,1,1,0,0,1,.8-.15Z" style="fill:#FFC727"></path><path d="M427.37,312.67a4.1,4.1,0,0,1-1.74,2.25,3,3,0,0,0-.71.71,4.13,4.13,0,0,0-.33.88,2.07,2.07,0,0,1-.68,1.05,1.3,1.3,0,0,1-1.33.1,2.31,2.31,0,0,1-1-2.24,3.92,3.92,0,0,1,.83-2.21,2.33,2.33,0,0,1,0-.37,3.42,3.42,0,0,1,1.46-2.32,2.56,2.56,0,0,1,2.36-.1A2,2,0,0,1,427.37,312.67Z" style="fill:#FFC727"></path><path d="M417.7,277.07a3.11,3.11,0,0,1,.15-2.58,2.41,2.41,0,0,1,.52-.79,2.75,2.75,0,0,1,.2-1.17,3.42,3.42,0,0,1,1.91-2,3.18,3.18,0,0,1,2.68.13,1.6,1.6,0,0,1,.83,1.25,1.9,1.9,0,0,1-.62,1.35,16.11,16.11,0,0,0-1.68,2.06,8.67,8.67,0,0,1-1.58,2.2A1.59,1.59,0,0,1,417.7,277.07Z" style="fill:#FFC727"></path><path d="M420.49,329.56a26.66,26.66,0,0,1-4.3,5.41c-1.21,1.25-2.5,2.45-3.72,3.72a62.41,62.41,0,0,1-3.8,8.22,73.31,73.31,0,0,1-5.51,8.37,84.13,84.13,0,0,1-6.33,7.34,108.17,108.17,0,0,1-13.67,11.63c-9.23,6.64-18.2,11.55-26.27,16.31-4.05,2.35-7.82,4.68-11.35,7-.9.59-1.76,1.19-2.59,1.78s-1.67,1.22-2.49,1.83-1.57,1.25-2.38,1.86l-2.4,2A106.4,106.4,0,0,0,318,424.75c-1.35,1.93-2.69,3.92-4,6s-2.54,4.19-3.82,6.36c-2.44,4.38-4.82,9-7.1,14a53.69,53.69,0,0,1-3.72-16.11,74.77,74.77,0,0,1,.39-16.83A79.16,79.16,0,0,1,304,401.3a83.72,83.72,0,0,1,8-15.92c.84-1.25,1.67-2.5,2.59-3.72s1.84-2.49,2.85-3.61c2-2.33,4-4.57,6.11-6.61a133.37,133.37,0,0,1,12.92-11.08c8.66-6.58,17.15-11.91,24.3-17.11,1.82-1.28,3.49-2.57,5.11-3.86.83-.62,1.57-1.27,2.36-1.9s1.48-1.27,2.17-1.92c.33-.3.65-.59,1-.9s.55-.74.8-1.1c3.7-5.31,7.23-11.41,8.42-17.92a24.52,24.52,0,0,0,.38-4.91c0-1.79-.24-3.56-.11-5.35a12.57,12.57,0,0,1,1.4-4.83c.64-1.32,1.54-2.74,1.48-4.26-.13-2.57-2.91-4.07-4.36-5.79a6.76,6.76,0,0,1-1.66-3.6c-.24-1.8.23-3.63-.15-5.39-.64-3-3.27-4.95-5.7-6.29-2.75-1.53-5.78-2.68-8-5a8.93,8.93,0,0,1-2.61-7.69,6.1,6.1,0,0,1,5.53-4.77c2.73-.36,5.33.51,8,1.05,2.18.44,5.1.78,7-.74,1.07-.87,1.25-2.32,2.09-3.37a4,4,0,0,1,3.29-1.41c3,.1,5.26,2.23,7,4.48,3.7,4.75,5.85,11.87,11.76,14.29,1.45.6,3.07.52,4.51,1.16a5.06,5.06,0,0,1,2.62,3,18,18,0,0,1,.74,4.55c.16,1.91.37,3.82.48,5.73.14,2.31.34,4.6.5,6.9a24.29,24.29,0,0,1,1.84-4.23,22.49,22.49,0,0,1,2-3,4.88,4.88,0,0,1,2.54-2.08c1.94-.4,2.91,1.54,3,3.16.19,2.16-.94,4.46-1.81,6.38-1,2.26-2.2,4.44-3.19,6.71a20.48,20.48,0,0,0-1.76,7.58c-.05,2.73.3,5.46.14,8.19a21.52,21.52,0,0,1-.93,4.77,60.38,60.38,0,0,1-1,7c-.13.68-.28,1.37-.43,2,.85-1.38,1.69-2.75,2.55-4.13.67-1.09,1.58-2.42,3.06-2.08C423.28,324.36,421.24,328.23,420.49,329.56Z" style="fill:#FFC727"></path></g><path d="M415.66,311.62c0-.16-.31-.12-.29.05A27,27,0,0,1,411,330.72a42.64,42.64,0,0,1-7.34,7.67,44.65,44.65,0,0,0-7,8.06,62,62,0,0,1-6.35,8.34,35.5,35.5,0,0,1-7.71,6,36.1,36.1,0,0,1-9,3.75c-3.43.91-7,1.16-10.46,1.91a22,22,0,0,0-8.62,3.79,35.28,35.28,0,0,0-6.11,6c-1.88,2.29-3.62,4.7-5.46,7-.94,1.18-1.92,2.34-2.94,3.46s-2.08,2.55-3.5,2.72c-1.21.14-2.15-1.11-2.9-1.88a7,7,0,0,0-3.5-2.25c-3.2-.68-6.15,1.63-8.14,3.89a59.62,59.62,0,0,0-5.84,8.42,94.6,94.6,0,0,0-4.92,9.14,97.66,97.66,0,0,0-9.5,40c0,1.73,0,3.46,0,5.19,0,.16.24.15.25,0a104.45,104.45,0,0,1,19.92-58.58c1.64-2.24,3.77-5.32,6.77-5.72,2.83-.38,4.09,3.19,6.6,3.85,3.13.83,5.59-2.43,7.32-4.54,1.91-2.32,3.62-4.81,5.41-7.24,3.53-4.81,7.52-9.44,13.38-11.36,3.41-1.12,7-1.47,10.5-2.23a37.66,37.66,0,0,0,9.06-3.18,39.13,39.13,0,0,0,14.41-12.87,74.63,74.63,0,0,1,6.56-8.84c2.47-2.62,5.34-4.83,7.68-7.57a27.18,27.18,0,0,0,6.06-22Z" style="fill:#FFC727"></path><path d="M333.6,394.72a36.13,36.13,0,0,0-14.45,10.65c-4.38,5.3-6.9,12.06-9.38,18.4-1.43,3.64-2.76,7.41-2.8,11.37,0,.13.19.12.2,0a26.58,26.58,0,0,1,2.94-10c1.39-3,2.84-6,4.41-8.91s3.38-5.7,5.21-8.46a48,48,0,0,1,5.56-7.06,25.68,25.68,0,0,1,8.39-5.77C333.82,394.9,333.75,394.66,333.6,394.72Z" style="fill:#FFC727"></path><path d="M398.62,349.56A39.31,39.31,0,0,1,382.68,365a51.89,51.89,0,0,1-10.17,4.13c-4.21,1.19-8.62,1.94-12.58,3.88-3.62,1.78-6.84,4.29-8.47,8.08,0,.12.12.21.18.1,1.6-3.49,5.14-5.83,8.7-7,4.28-1.39,8.8-1.76,13.11-3a40.1,40.1,0,0,0,18.14-11.68,47.09,47.09,0,0,0,7.08-9.91S398.64,349.53,398.62,349.56Z" style="fill:#FFC727"></path><path d="M412,336.1a20.15,20.15,0,0,0-8.38,7.49,62.67,62.67,0,0,0-4.87,10.31c0,.12.12.22.18.1,3.05-6.79,6.7-13.62,13.23-17.64A.15.15,0,1,0,412,336.1Z" style="fill:#FFC727"></path><path d="M387.75,282.42a23.56,23.56,0,0,0-7.16-9.33,32.29,32.29,0,0,0-11.37-5.62c-.12,0-.17.16,0,.2,7.45,2.18,13.38,8.06,16.57,15.06a29.26,29.26,0,0,1,2.75,11.8,26.61,26.61,0,0,1-.73,6.16c-.53,2.24-1.25,4.42-1.61,6.69a73.87,73.87,0,0,0-.38,15.16c0,.08.12.07.12,0-.13-4.85-.3-9.81.67-14.59.9-4.45,2.76-8.6,3.09-13.17A26,26,0,0,0,387.75,282.42Z" style="fill:#FFC727"></path><path d="M409.4,304.23a106.33,106.33,0,0,0-5-16.84c-.05-.12-.24-.06-.2.06a67.77,67.77,0,0,1,3.89,15c.36,2.49.57,5,.73,7.54a52,52,0,0,1,.07,7.59c-.67,8.43-6.82,14.94-11.92,21.17-2.69,3.28-5.21,6.75-6.57,10.81,0,0,.06.07.08,0,2.8-7.8,9.52-12.86,14.48-19.18a25.33,25.33,0,0,0,5.07-11.24A40.15,40.15,0,0,0,409.4,304.23Z" style="fill:#FFC727"></path><path d="M388.89,328.09c-2.61,7.6-8.3,13.73-14.46,18.69-3.06,2.47-6.23,4.78-9.49,7-3.42,2.3-6.93,4.49-10.23,7a37.18,37.18,0,0,0-9.4,9.61c-.08.13.13.25.21.12,4.81-7.17,12.74-11.08,19.81-15.59,6.67-4.26,13.07-9.09,17.89-15.45a37.56,37.56,0,0,0,5.86-11.26C389.12,328,388.93,328,388.89,328.09Z" style="fill:#FFC727"></path><path d="M407.91,273.72c-1.09-.51-2.26-.79-3.39-1.2a16.09,16.09,0,0,1-3.16-1.58,18.17,18.17,0,0,1-5.14-5c-1.34-1.94-2.44-4.06-3.83-6-1.22-1.68-2.85-3.65-5.12-3.7-2.1,0-3.36,1.71-4.81,2.92-1.77,1.47-4.07,1.45-6.23,1.17-4.31-.56-9.22-2.26-12.81,1.22-.09.09.05.23.15.14,1.6-1.54,3.85-1.53,5.93-1.19s3.94,1,5.94,1.4a10.85,10.85,0,0,0,5.82-.17,7.43,7.43,0,0,0,2.36-1.47,23.37,23.37,0,0,1,2.17-2c2.12-1.46,4,.84,5.19,2.44,1.27,1.78,2.34,3.69,3.57,5.49a18.23,18.23,0,0,0,10,7.48,16.38,16.38,0,0,1,3.79,1.32,7.44,7.44,0,0,1,2.34,2.33,19.7,19.7,0,0,1,2.28,6.17c0,.1.2.08.19,0C412.6,279.75,411.6,275.43,407.91,273.72Z" style="fill:#fff"></path><path d="M422.19,285.67c-.07-.11-.27-.06-.25.08.62,4.43-2.71,7.61-4.68,11.2a16.62,16.62,0,0,0-2,5.63,16.89,16.89,0,0,0,.34,6c0,.13.22.07.19-.05a12.43,12.43,0,0,1,.63-6.64,22.49,22.49,0,0,1,3.39-5.43C421.94,293.47,424.22,289.28,422.19,285.67Z" style="fill:#fff"></path><path d="M331.15,390.77c-.77-1.85-3.44-1.24-4.73-.42a16.43,16.43,0,0,0-4.37,4.27c-2.48,3.37-3.81,7.28-5.59,11-.06.12.12.21.17.1a44.36,44.36,0,0,1,5.78-9.1A30.35,30.35,0,0,1,326,393a11,11,0,0,1,2.23-1.56,3.65,3.65,0,0,1,2.46-.18C331,391.28,331.27,391.06,331.15,390.77Z" style="fill:#fff"></path><path d="M380.9,363.42c-5,3.44-10.9,4-16.6,5.51a26,26,0,0,0-7.87,3.39,27.92,27.92,0,0,0-6.15,6c-2,2.59-3.76,5.39-5.59,8.1-.08.1.1.2.17.09,3.33-4.74,7.13-9.38,11.86-12.81a28.34,28.34,0,0,1,7.58-3.94c2.74-.92,5.53-1.6,8.3-2.41a24.06,24.06,0,0,0,8.34-3.9A0,0,0,0,0,380.9,363.42Z" style="fill:#fff"></path><path d="M386.19,296.43a.11.11,0,0,0-.21,0c.35,2.28-.78,4.29-1.61,6.34a19.38,19.38,0,0,0-1.32,5.82c-.32,4.21.25,8.52-.84,12.65-2,7.45-8.36,12.82-13.9,17.71a61.44,61.44,0,0,0-9.21,9.66c-.07.09.09.2.16.12,5.12-6.46,12.82-10.14,18.41-16.12a26.13,26.13,0,0,0,6-9.69c1.33-4.13.76-8.39.69-12.63a24.19,24.19,0,0,1,.71-7.25C385.71,300.9,386.71,298.73,386.19,296.43Z" style="fill:#fff"></path><path d="M382.79,291a3.06,3.06,0,0,1-.89-.27,1.46,1.46,0,0,1-.41-.25l-.12-.1s0-.13-.08-.19c-.15-.26-.37-.47-.51-.74a4.87,4.87,0,0,1-.31-.83,6.05,6.05,0,0,1-.11-2.12c0-.4,0-.79.05-1.18s.11-.85.17-1.28a.49.49,0,0,0-.95-.24c-.16.48-.3,1-.42,1.43a7.11,7.11,0,0,0-.29,1.37,5.23,5.23,0,0,0,.54,2.64,3.19,3.19,0,0,0,1.47,1.52c.28.08.54.24.82.35a2.31,2.31,0,0,0,1,.09C382.87,291.16,382.9,291,382.79,291Z" style="fill:#fff"></path><path d="M421.73,271.2a4.29,4.29,0,0,0-1.28.73,4.35,4.35,0,0,0-.91,1.13,4.47,4.47,0,0,0-.45,1.38,3.2,3.2,0,0,0,0,1.41.18.18,0,0,0,.35,0,12.15,12.15,0,0,1,.33-1.22,5.15,5.15,0,0,1,.57-1.06,5.47,5.47,0,0,1,.71-.95,5.57,5.57,0,0,1,.91-.84C422.28,271.58,422.08,271.05,421.73,271.2Z" style="fill:#fff"></path><path d="M422.87,280.65s0-.08,0-.11,0,0,0,0l-.05,0a.07.07,0,0,0-.07.06l0,.12a.65.65,0,0,0,0,.14.15.15,0,0,0,0,.07.11.11,0,0,0,.08,0,.11.11,0,0,0,.07,0,.19.19,0,0,0,0-.07v-.1A.11.11,0,0,0,422.87,280.65Z" style="fill:#fff"></path><path d="M423.92,311.88c-.19.36-.39.7-.56,1.06s-.3.74-.45,1.11-.28.74-.42,1.11c-.06.19-.14.37-.2.56s-.08.38-.14.57.13.16.18.07.24-.32.34-.49l.29-.53c.19-.35.37-.7.55-1a11.87,11.87,0,0,0,.52-1.08c.15-.37.29-.74.43-1.11S424.07,311.59,423.92,311.88Z" style="fill:#fff"></path><g style="opacity:0.4"><polygon points="217.28 24.88 217.28 24.88 217.28 24.88 217.28 24.88 217.28 24.88" style="fill:#FFC727"></polygon><path d="M77.33,180.24a2.82,2.82,0,0,1,.28-1.78.35.35,0,0,0,0-.08,2.4,2.4,0,0,1,.49-1.22,2.2,2.2,0,0,1,1.63-.9,1,1,0,0,1,1,.52c.13.36.26.73.37,1.1a3.92,3.92,0,0,1,.08,2.3,2.63,2.63,0,0,1-1.2,1.5,1.82,1.82,0,0,1-1.82,0A2.08,2.08,0,0,1,77.33,180.24Z" style="fill:#FFC727"></path><path d="M92.19,155.85a6,6,0,0,1,0-1.75,22.06,22.06,0,0,1,.8-3.38c0-.25,0-.5,0-.75,0-.94,0-1.91.06-2.84a3.72,3.72,0,0,1,.78-2.13,2.13,2.13,0,0,1,3.07-.36,3.19,3.19,0,0,1,.57,3.17c-.45,1.36-1.67,2.41-1.7,3.91s.71,3,0,4.52a2.72,2.72,0,0,1-1.26,1.27,1.58,1.58,0,0,1-1.52-.07A3.16,3.16,0,0,1,92.19,155.85Z" style="fill:#FFC727"></path><path d="M108.1,122.05a2.05,2.05,0,0,1,0-1.25,2.47,2.47,0,0,1,.19-1,2.66,2.66,0,0,1,.84-1.07,1.14,1.14,0,0,1,.9-.27.94.94,0,0,1,.65.47,1.63,1.63,0,0,1,.22.75c0,.1,0,.21,0,.3a.52.52,0,0,1,0,.11l0,.07,0,0,0,0a.75.75,0,0,1,.29.2,1,1,0,0,1,.14.95,3.2,3.2,0,0,1-.88,1.33c-.4.38-.92.92-1.51.59A2.34,2.34,0,0,1,108.1,122.05Z" style="fill:#FFC727"></path><path d="M112.14,118.33a1,1,0,0,1,.1-.74,1,1,0,0,1,.57-.46.84.84,0,0,1,.71.09.91.91,0,0,1,.39.61.72.72,0,0,1-.79.88.25.25,0,0,1-.12.22.38.38,0,0,1-.37,0,.9.9,0,0,1-.27-.21A.87.87,0,0,1,112.14,118.33Z" style="fill:#FFC727"></path><path d="M112.63,108.46a.71.71,0,0,1,.09-.6.79.79,0,0,1,.33-.27,1,1,0,0,1,.24,0,1.83,1.83,0,0,1,.13-.24.21.21,0,0,1,.09-.35.66.66,0,0,1,.46,0s0,0,0,0a.48.48,0,0,1,.12,0,.43.43,0,0,1,.33.41,2.13,2.13,0,0,1-.16,1,1.06,1.06,0,0,1-.7.56.9.9,0,0,1-.54,0,.76.76,0,0,1-.34-.32l0-.08a0,0,0,0,0,0,0A.37.37,0,0,1,112.63,108.46Z" style="fill:#FFC727"></path><path d="M200.42,28.13a.76.76,0,0,1,.38-.9.6.6,0,0,1,.22-.09.66.66,0,0,1,.24,0,.89.89,0,0,1,.33.08.46.46,0,0,1,.18.13.67.67,0,0,1,.19.28.51.51,0,0,1,0,.24.82.82,0,0,1-.22.52,1.09,1.09,0,0,1-.38.25.81.81,0,0,1-.46,0,.64.64,0,0,1-.43-.39h0A.23.23,0,0,1,200.42,28.13Z" style="fill:#FFC727"></path><path d="M206.23,54.24a.77.77,0,0,1,.39-.09.85.85,0,0,1,.62.26.89.89,0,0,1,.27.63.43.43,0,0,1-.06.22l-.07.09a.3.3,0,0,1-.14.1.29.29,0,0,1-.16,0H207a.31.31,0,0,1-.13-.06.63.63,0,0,1-.25.29.46.46,0,0,1-.28.06.34.34,0,0,1-.17,0l-.09-.07a.84.84,0,0,1-.25-.64,1,1,0,0,1,0-.18.75.75,0,0,1,.07-.18.57.57,0,0,1,.15-.23A.65.65,0,0,1,206.23,54.24Z" style="fill:#FFC727"></path><path d="M115.33,115.82a1.54,1.54,0,0,1,.06-1.4s0,0,0,0a2.3,2.3,0,0,1,.69-1.15l0,0,.29-.39c.39-.57.83-1.13,1.26-1.68.73-1,1.47-2,2.28-2.9a1.82,1.82,0,0,1,2.46-.32c1.91,1.31.65,4.16-.38,5.6a18.55,18.55,0,0,1-2,2.31,3.23,3.23,0,0,1-2.43,1.31,2.43,2.43,0,0,1-1.73-.82A1.18,1.18,0,0,1,115.33,115.82Z" style="fill:#FFC727"></path><path d="M206.74,47.63a1.13,1.13,0,0,1-.24-.25.51.51,0,0,1-.09-.41.86.86,0,0,1,0-.17h0a.36.36,0,0,1,.07-.17,1,1,0,0,1,.24-.25h0a.8.8,0,0,1,.25-.11.28.28,0,0,1,.2,0h.18a1,1,0,0,1,.42.17.61.61,0,0,1,.19.17.64.64,0,0,1,.13.15s.05.11.07.17a.4.4,0,0,1,0,.24.47.47,0,0,1-.11.21,1,1,0,0,1-.44.3,1,1,0,0,1-.42.07A1,1,0,0,1,206.74,47.63Z" style="fill:#FFC727"></path><path d="M208.94,27.29a1,1,0,0,1-.15-.47,2.91,2.91,0,0,1,0-.3c0-.14,0-.4.16-.48l0-.06s0,0,.05-.05a.69.69,0,0,1,.13-.11l.1,0,0-.06a1,1,0,0,1,.84-.32,1.46,1.46,0,0,1,.82.31,1.09,1.09,0,0,1,.4.65,1.11,1.11,0,0,1-.17.92,1.52,1.52,0,0,1-.75.59A1.27,1.27,0,0,1,208.94,27.29Z" style="fill:#FFC727"></path><path d="M216.2,26.72a1.56,1.56,0,0,1-.29-.91,1.18,1.18,0,0,1,.07-.45,1.79,1.79,0,0,1,.2-.39h0a1.37,1.37,0,0,1,.61-1,1.12,1.12,0,0,1,1.08,0,1.23,1.23,0,0,1,.62.88,1.76,1.76,0,0,1-.22,1.23,4.41,4.41,0,0,1-.36.49,2,2,0,0,1-.41.41.87.87,0,0,1-.73.14A1.11,1.11,0,0,1,216.2,26.72Z" style="fill:#FFC727"></path><path d="M254.42,44.38l.07.23a.38.38,0,0,1,0,.26.24.24,0,0,1-.09.11l-.07.05-.14,0h-.09a.22.22,0,0,1-.11,0l-.1-.1a0,0,0,0,0,0,0s0,0,0-.06l-.09-.23s0-.07,0-.11l0-.12a.54.54,0,0,1,0-.18l0-.08a.2.2,0,0,1,.09-.09.13.13,0,0,1,.06,0,.24.24,0,0,1,.14,0h.08a.17.17,0,0,1,.11.06.39.39,0,0,1,.1.08l.05.12C254.37,44.25,254.39,44.31,254.42,44.38Z" style="fill:#FFC727"></path><path d="M244.35,35.67a.48.48,0,0,1,0-.15s0-.12,0-.15v0s0-.07,0-.1a.44.44,0,0,1,0-.1,1,1,0,0,1,.14-.24.62.62,0,0,1,.17-.16s0,0,0,0l0,0,.11-.08a1,1,0,0,1,.45-.08.06.06,0,0,1,0,.06s0,0,0,.06a.85.85,0,0,1,.17.06,1.13,1.13,0,0,1,.44.53,1,1,0,0,1,.06.57.63.63,0,0,1-.43.54,1.11,1.11,0,0,1-.6,0l-.27-.13a1,1,0,0,1-.25-.25A.75.75,0,0,1,244.35,35.67Z" style="fill:#FFC727"></path><path d="M221,29.19a1.2,1.2,0,0,1,.69-1.54,2.3,2.3,0,0,1,1.55.08c.71.27,1.4.62,2.1.94a4.39,4.39,0,0,1,1.71,1,1.19,1.19,0,0,1-.26,1.87,2.34,2.34,0,0,1-2,0,3.14,3.14,0,0,1-1.3-1.06l-.9-.2A2.22,2.22,0,0,1,221,29.19Z" style="fill:#FFC727"></path><path d="M248.82,36.45a2.27,2.27,0,0,1,.63-2.51,3,3,0,0,1,3-.51A4.15,4.15,0,0,1,255.23,37a3.33,3.33,0,0,1-.65,2.32,2.27,2.27,0,0,1-2.34.9,3,3,0,0,1-1.63-1.42,9.43,9.43,0,0,0-.56-.84c-.2-.26-.57-.55-.82-.85a2.18,2.18,0,0,1-.2-.37A.48.48,0,0,1,248.82,36.45Z" style="fill:#FFC727"></path><path d="M256.85,37.62a.77.77,0,0,1,0-.54.39.39,0,0,1,.15-.19,1.45,1.45,0,0,1,.1-.41,1.17,1.17,0,0,1,.17-.31.5.5,0,0,1,.35-.21,1.25,1.25,0,0,1,1,.19,1.55,1.55,0,0,1,.57.72,1.17,1.17,0,0,1,0,.92,1.23,1.23,0,0,1-1.21.68,1.28,1.28,0,0,1-.74-.28A.91.91,0,0,1,256.85,37.62Z" style="fill:#FFC727"></path><path d="M275.12,103.81c-6.7,10.91-13.61,21.71-20.46,32.52a65.88,65.88,0,0,1-25.49,23.84c-17.27,12.93-38.49,18.15-59,22.61-41.89,9.1-47.89,40.77-49,53.19-.65,9.14,2.08,17,7.71,24.52,7.67,10.35,11.81,21.15,21.37,31.56,1.82,2,3.88,4,5.65,6.06.92,1.07,1.86,2.11,2.72,3.24a88.33,88.33,0,0,1,18.52,64.3c-4.27-18.94-13.45-37.26-27.81-50.38-.83-.79-1.71-1.52-2.58-2.25s-1.77-1.41-2.67-2.1c-1.1-.87-2.31-1.62-3.44-2.44-20.2-12.24-43.43-22.87-55.22-45-8.91-9.18-14-21.82-12.65-34.68.45-4.74,1.57-9.4,1.94-14.16.43-4.6-.47-9.15-1.24-13.67-.63-4.23-1.13-8.85.66-12.87,2.14-4.21,6.92-1.86,7.37,2.12.42,3-1.36,6.49.87,9.11a52.57,52.57,0,0,0,2.26-8.73c1.21-7.84.62-16.89,5.9-23.39,1.45-1.79,3.36-3.13,4.92-4.82a15.86,15.86,0,0,0,3.16-5.58c1.47-4.25,2-8.79,3.2-13.11a67,67,0,0,1,8.45-18.22c1.1-1.59,3.79-6.27,6.15-5a2.33,2.33,0,0,1,.76,2.47c-.53,2.83-2.32,5.21-3.74,7.66-2.17,5.23-5.56,10.71-4.4,16.58.34,1.06,1.31,1,2.12.47,1.56-.93,2.43-2.84,3.58-4.19,1.69-2.34,5.42-3.39,7.52-1,2.18,3-2.48,6.2-4,8.5-2.41,2.8-4.45,6.19-4,10a9.17,9.17,0,0,1-.21,3.33,93.16,93.16,0,0,1,24.35-9.79,144.25,144.25,0,0,1,28-4c41.72-3,76.08-21.16,77.16-67.32A16.53,16.53,0,0,0,241.09,76c-2.21-3.17-5.85-5-8.06-8.2a2.92,2.92,0,0,1-.53-2.72c.36-.94.89-1.6.68-2.66-.4-2.05-2.31-3.17-4-4a62.36,62.36,0,0,0-6.23-2.84c-4.27-1.66-8.91-1.72-13.31-2.87a5.1,5.1,0,0,1-2.47-1.16,1.28,1.28,0,0,1,0-1.93,8.06,8.06,0,0,1,2.73-.68c2.08-.39,5.35-.25,2.56-3a7.1,7.1,0,0,0-4.68-1.64c-1.06,0-2.08.21-3.14.19-1.74,0-3.73-1.09-3.58-3.09s2.2-3.09,3-4.85c1-2.47-1.94-1.8-3.33-2.23-1.82-.53-2.7-2.65-.79-3.75,2.82-1.74,6.19-1,9.13-.08a2.7,2.7,0,0,0,2.56-.75c1.65-1.68,3.74-.91,5.45.24a18.77,18.77,0,0,1,3.89,3c1.92.55,3.58,1.92,5.56,2.25,1.36.16,2.45-.66,3.61-1.21A8.85,8.85,0,0,1,237,34c8.48,3.47,15.26,10.61,19.2,18.8,1.49,3.11,3.19,7.36,6.88,8.24,2.11-5.66-3.21-10.42-5.17-15.29-1.08-1.29-2-3-1-4.43a2.27,2.27,0,0,1,2.7-.56,5.77,5.77,0,0,1,2.26,2.38,42.17,42.17,0,0,1,3.78,7.31,41.11,41.11,0,0,1,6.56,21.4c.1,5.74-1.35,11.8,1.52,17.11C277.18,94.38,278.62,97.87,275.12,103.81Z" style="fill:#FFC727"></path></g><path d="M271.3,98.47a19.09,19.09,0,0,0-1.5-6.74,29.1,29.1,0,0,0-3.75-5.93,13.74,13.74,0,0,1-1.79-3,8.46,8.46,0,0,1-.53-3.49c.09-2.39.79-4.72.78-7.11a8.72,8.72,0,0,0-2.38-6c-1.4-1.55-3.17-2.72-4.7-4.13a15.74,15.74,0,0,1-3.79-5.81c-1.73-4.21-2.94-8.87-6.82-11.68a8,8,0,0,0-6.26-1.4c-2.39.44-4.59,1.76-7.05,1.79-3.41.06-6.32-2.22-8.83-4.27s-5.36-4.65-8.69-5.5a12.52,12.52,0,0,0-2.35-.38c-.09,0-.08.14,0,.15,3.54.22,6.42,2.82,8.89,5.12s5,4.93,8.3,6a10,10,0,0,0,5.63,0c2.25-.6,4.52-1.79,6.9-1.28,4.36.92,6.4,5.75,7.83,9.45a29.46,29.46,0,0,0,3.05,6.38,22.87,22.87,0,0,0,4.63,4.48c1.55,1.27,3.21,2.68,3.87,4.64.75,2.21.22,4.58-.13,6.81a12.41,12.41,0,0,0,.36,6.81c.92,2.18,2.57,3.88,3.89,5.8a18.07,18.07,0,0,1,2.69,6.26,26.83,26.83,0,0,1,.42,6.81,15.05,15.05,0,0,1-2.32,6.73c-1.29,2.21-2.88,4.23-4.31,6.35a63,63,0,0,0-6.62,13.74c-.46,1.23-.89,2.46-1.33,3.69,0,.11.13.15.17,0a86.85,86.85,0,0,1,6.61-14.61c2.66-4.36,6.43-8,8.05-13,.36-1.11.6-2.26.87-3.4A12.48,12.48,0,0,0,271.3,98.47Z" style="fill:#FFC727"></path><path d="M132.89,159a22,22,0,0,0-11.61,4.82,31.63,31.63,0,0,0-4.71,4.47c-1.41,1.62-2.57,3.4-3.85,5.12a16.44,16.44,0,0,1-4.28,4.36,5.4,5.4,0,0,1-2.6.89,7.58,7.58,0,0,1-3.12-.79c-4.57-1.77-8.37,2.58-9.94,6.42S91,192.6,90.51,196.79a38.46,38.46,0,0,1-1.13,6.4A39.53,39.53,0,0,1,87,209.47c-2,4.11-4.34,8-6.12,12.2a34.35,34.35,0,0,0-2.12,6.48,26.75,26.75,0,0,0-.43,7.68,47.06,47.06,0,0,0,4.18,15,72.83,72.83,0,0,0,7.64,13.08c.71,1,1.44,2,2.18,2.95.06.07.18,0,.12-.08A62.39,62.39,0,0,1,85,253.87a67.54,67.54,0,0,1-4.86-14.43,29.44,29.44,0,0,1-.49-7.78,26.11,26.11,0,0,1,1.52-6.75c1.51-4.21,3.85-8.08,5.91-12a41.58,41.58,0,0,0,4.58-12.31c.69-4.14.67-8.39,1.55-12.5a16.35,16.35,0,0,1,2.13-5.5c1.1-1.72,2.87-3.59,5-3.76a8.51,8.51,0,0,1,3.37.88,5.84,5.84,0,0,0,2.93.21,9.06,9.06,0,0,0,4.71-2.85,33.89,33.89,0,0,0,3.75-5A38.85,38.85,0,0,1,119,167a24.47,24.47,0,0,1,10.66-7.14,18.5,18.5,0,0,1,3.21-.67C133,159.15,133,159,132.89,159Z" style="fill:#FFC727"></path><path d="M167.35,329.58a68.42,68.42,0,0,0-10.45-16.25A52.89,52.89,0,0,0,142.12,302c-5.47-2.93-11.27-5.16-16.83-7.89a86.35,86.35,0,0,1-8-4.27,46,46,0,0,1-7.3-5.59c-.54-.51-1.06-1.05-1.57-1.59-.07-.07-.16,0-.1.1,4.05,4.46,9.06,7.74,14.23,10.75s10.84,5.55,16.19,8.46a68.73,68.73,0,0,1,15.14,10.47,67.49,67.49,0,0,1,11.51,15.25,127,127,0,0,1,8.28,17.83c.29.75.58,1.5.86,2.25,0,.06.12,0,.1,0C172.44,341.57,170.14,335.47,167.35,329.58Z" style="fill:#FFC727"></path><path d="M246.27,142.47c-3.52,3.47-7,7-11.15,9.77a26.7,26.7,0,0,1-6.62,3.22,39,39,0,0,1-7.91,1.1,15.4,15.4,0,0,0-7,2.42c-2.07,1.33-3.9,3-5.89,4.43a38,38,0,0,1-13.28,5.85c-9.61,2.38-19.61,2.39-29.28,4.46A78.78,78.78,0,0,0,139,184.63a81.52,81.52,0,0,0-20.79,19.23c-.66.87-1.31,1.74-1.94,2.63-.06.08.07.15.12.07a76.51,76.51,0,0,1,20.76-19.7,83.68,83.68,0,0,1,26.09-11.15c9.61-2.26,19.58-2.35,29.21-4.52A43.31,43.31,0,0,0,205.76,166a57.59,57.59,0,0,0,5.88-4.43,18.8,18.8,0,0,1,6.36-3.75c2.66-.78,5.5-.65,8.2-1.18a23.41,23.41,0,0,0,6.54-2.42A48.74,48.74,0,0,0,244,145.2c.83-.85,1.65-1.71,2.45-2.59A.1.1,0,1,0,246.27,142.47Z" style="fill:#FFC727"></path><path d="M249.91,80.74a33.75,33.75,0,0,0-8-16.08c-.51-.56-1-1.11-1.58-1.64-.06-.07-.16,0-.09.1A32.07,32.07,0,0,1,248.6,79a45.91,45.91,0,0,1,0,18.24A52.76,52.76,0,0,1,241.71,115a80.62,80.62,0,0,1-13.29,16.23,157.58,157.58,0,0,1-16.56,13.5l-2.15,1.56s0,.07,0,.05c5.88-4.17,11.64-8.51,17.08-13.23a86.49,86.49,0,0,0,14.54-15.74,52.25,52.25,0,0,0,8.24-17.91A44.23,44.23,0,0,0,249.91,80.74Z" style="fill:#FFC727"></path><path d="M77.08,223.17a64.17,64.17,0,0,0,1.27-12.43c-.09-4.07-1.15-8-1.74-12s-1-8.33.78-12.08c.06-.13-.13-.29-.22-.16a15.54,15.54,0,0,0-2.62,10.24c.23,4.09,1.55,8.06,1.88,12.15a53.93,53.93,0,0,1-.9,12.74,72.92,72.92,0,0,0-1.1,12.07A29,29,0,0,0,77,245.84c0,.08.16,0,.13-.08C73.79,238.66,75.78,230.51,77.08,223.17Z" style="fill:#fff"></path><path d="M113.69,122.45a81.11,81.11,0,0,0-8.3,14.62,60.57,60.57,0,0,0-2.83,7.8c-.79,2.7-1.32,5.45-1.92,8.19a34.49,34.49,0,0,1-2.45,7.84,36.29,36.29,0,0,1-4.81,6.81,25.79,25.79,0,0,0-4.11,6.87,38.48,38.48,0,0,0-1.92,7.32c-1,5.83-1.15,11.86-3.4,17.42,0,.08.08.15.12.07,2.15-4.73,3.09-9.82,4.21-14.85s2.32-10.1,5.25-14.47c1.56-2.32,3.47-4.38,4.88-6.79a28.29,28.29,0,0,0,2.9-7.59c.69-2.71,1.16-5.46,1.8-8.18a81,81,0,0,1,2.28-7.95A72,72,0,0,1,109,130.7a70.49,70.49,0,0,1,4.84-8.15C114,122.43,113.77,122.34,113.69,122.45Z" style="fill:#fff"></path><path d="M101.66,179.85a11.52,11.52,0,0,0-5.2,4.26,19.22,19.22,0,0,0-2.74,7.38c-.52,2.63-1,5.29-1.4,7.94A58.47,58.47,0,0,1,90.77,207a30.58,30.58,0,0,1-3.66,8.09c0,.07.07.14.12.07a48.42,48.42,0,0,0,6.13-13.59A66.59,66.59,0,0,0,95.09,194a41.93,41.93,0,0,1,2-7.78,14.07,14.07,0,0,1,1.78-3.39,8.94,8.94,0,0,1,3-2.61C102,180.12,101.88,179.76,101.66,179.85Z" style="fill:#fff"></path><path d="M151.88,152.69c-3.45.88-6.86,1.89-10.2,3.1a80,80,0,0,0-9.68,4.35,45.1,45.1,0,0,0-8.64,5.91,41.56,41.56,0,0,0-3.72,3.67,25.73,25.73,0,0,0-3.15,4.2c-.9,1.61-1.88,3.23-2.94,4.75A7,7,0,0,1,109.2,182c-.09,0,0,.15,0,.14,3.19-.54,5.14-3.31,6.92-5.74a55.84,55.84,0,0,1,7-7.78,66.85,66.85,0,0,1,17.45-11.57,79.42,79.42,0,0,1,11.34-4.26C152,152.78,152,152.68,151.88,152.69Z" style="fill:#fff"></path><path d="M119.74,142.12c-2.18-.67-3.8,1.16-5,2.68a23,23,0,0,0-2.09,2.84c-.55.92-1.54,2.25-2.79,1.83-.09,0-.12.11,0,.14a2.63,2.63,0,0,0,2.5-.44,16.49,16.49,0,0,0,2.4-2.25c.76-.86,1.49-1.74,2.18-2.66s1.58-1.9,2.76-1.7A.23.23,0,0,0,119.74,142.12Z" style="fill:#fff"></path><path d="M121.38,108.35a7.11,7.11,0,0,1-1.37,1.94c-.56.54-1.18,1-1.73,1.57a6.67,6.67,0,0,0-1.43,1.84,2.93,2.93,0,0,0-.37,2.09c0,.06.09.06.13,0,.21-.3.3-.64.49-1a6.6,6.6,0,0,1,.66-.91c.49-.61,1-1.17,1.56-1.74a17.14,17.14,0,0,0,1.45-1.74,4.6,4.6,0,0,0,.94-2C121.73,108.29,121.48,108.16,121.38,108.35Z" style="fill:#fff"></path><path d="M95.28,145c-1.78.83-1.55,3.2-1.57,4.8,0,2-.86,4.29,0,6.22,0,.11.22.1.22,0a16,16,0,0,1,.39-2.76,12.73,12.73,0,0,0,.44-2.74c0-1.69-.94-4,.75-5.18A.18.18,0,0,0,95.28,145Z" style="fill:#fff"></path><path d="M110.16,119.75a1.34,1.34,0,0,0-.28,0,.41.41,0,0,0-.16,0,.77.77,0,0,0-.5.24,1.35,1.35,0,0,0-.36.55,1.49,1.49,0,0,0,0,.81,1.05,1.05,0,0,0,0,.19.69.69,0,0,0,.05.13l.08.1,0,0,0,.08a1.07,1.07,0,0,0,.14.16.27.27,0,0,0,.43-.12,1.24,1.24,0,0,0,0-.33h0a.39.39,0,0,0,0-.15s0-.1,0-.15a5.65,5.65,0,0,1,0-.59s0-.09,0-.14v0s0-.07,0-.09a.26.26,0,0,0,0-.08,1,1,0,0,1,.1-.17s0,0,0,0l.06-.06a.13.13,0,0,1,0-.06l0,0s0-.07,0-.06.13,0,.17,0S110.24,119.76,110.16,119.75Z" style="fill:#fff"></path><path d="M79.19,179.82s0,0,0,0l0-.08a.16.16,0,0,0,0-.07l0-.06,0-.06A1.56,1.56,0,0,1,79,179a1.3,1.3,0,0,1,.07-.62,1.55,1.55,0,0,1,.14-.29,2,2,0,0,1,.23-.28c.07-.05,0-.15-.09-.11a1.74,1.74,0,0,0-.55.53,2.39,2.39,0,0,0-.32.71,2,2,0,0,0,0,.85,1.41,1.41,0,0,0,.44.74.31.31,0,0,0,.41,0,.32.32,0,0,0,.07-.4A1.75,1.75,0,0,1,79.19,179.82Z" style="fill:#fff"></path><path d="M180.53,174.69a74.24,74.24,0,0,0-12.45,1,72.4,72.4,0,0,0-12.22,3A76.92,76.92,0,0,0,134,190.91a88,88,0,0,0-10.29,9.67c-.06.07,0,.17.1.1A80.57,80.57,0,0,1,143.71,186,94.94,94.94,0,0,1,155,180.87c1.9-.73,3.82-1.41,5.76-2s3.94-1.27,5.93-1.77c2.26-.55,4.56-1.08,6.86-1.42s4.65-.61,7-.81A.08.08,0,0,0,180.53,174.69Z" style="fill:#fff"></path><path d="M220.94,159.36a6.61,6.61,0,0,0-4.91.69,19.89,19.89,0,0,0-4.18,3.48,28,28,0,0,1-9,6.09c-.08,0,0,.17,0,.14a33.83,33.83,0,0,0,9-4.75c2.67-2.09,5.22-5.41,9-5C221.25,160,221.27,159.47,220.94,159.36Z" style="fill:#fff"></path><path d="M263,49.37a20.82,20.82,0,0,0-2.4-3.42,9.46,9.46,0,0,1-2.08-3.55.25.25,0,0,0-.48.08c.11,2.72,2,4.85,3.44,7A20.32,20.32,0,0,1,265,57.68c0,.14.24.14.22,0A23.28,23.28,0,0,0,263,49.37Z" style="fill:#fff"></path><path d="M246.13,43.1c-2.93-2.09-6.79-1.48-10.07-.79a18.6,18.6,0,0,1-3,.4,8.27,8.27,0,0,1-2.57-.35,12.42,12.42,0,0,1-4.28-2.19c-1.4-1.08-2.75-2.25-4.21-3.25-.07-.06-.14.07-.07.12,2.67,1.79,4.6,4.51,7.33,6.21,3.38,2.1,7.38.8,10.88-.25,2-.59,4.05-.87,5.89.23C246.15,43.28,246.21,43.16,246.13,43.1Z" style="fill:#fff"></path><path d="M265.67,67.57c-.89-2.26-2.94-3.71-4.64-5.32a45.49,45.49,0,0,1-4.87-5.14A17.93,17.93,0,0,1,252.67,50c0-.09-.15,0-.14,0,.77,4.63,3.31,8.69,6.34,12.19a70.63,70.63,0,0,0,5,5.08,5.53,5.53,0,0,1,1.77,2.9,12.68,12.68,0,0,1,.17,3.48c-.18,2.53-.65,5.14.14,7.61,0,.06.09,0,.08,0C264.75,76.73,267.43,72,265.67,67.57Z" style="fill:#fff"></path><path d="M226.36,54.61a24.91,24.91,0,0,0-4.79-1.94,37.57,37.57,0,0,0-6.15-1c-1.14-.14-2.28-.27-3.42-.42L210.19,51a7.53,7.53,0,0,1-.85-.15c-.08,0-1-.45-.57-.62.09,0,0-.17,0-.14-.4.14-.26.62,0,.89a2.24,2.24,0,0,0,1,.55c.49.21,1,.4,1.48.57a49.37,49.37,0,0,0,6.58,1.51c3.81.71,7.91.67,11.31,2.82a12.72,12.72,0,0,1,4.31,4.47,0,0,0,0,0,.06,0C232,57.89,229.17,56.08,226.36,54.61Z" style="fill:#fff"></path><path d="M242.19,74.76a15.26,15.26,0,0,0-2.59-3.64A34.93,34.93,0,0,0,236.25,68c-1.09-1-2.11-2.24-1.85-3.79a.07.07,0,0,0-.13,0,3.71,3.71,0,0,0,.2,3.67,14.26,14.26,0,0,0,3.25,3.33c.63.55,1.27,1.09,1.91,1.62a9.63,9.63,0,0,1,1.76,1.61,10.38,10.38,0,0,1,1.17,2.33c.35.84.69,1.69,1,2.53,0,.06.1,0,.08,0A39.51,39.51,0,0,0,242.19,74.76Z" style="fill:#fff"></path><path d="M214.1,45.55a9.34,9.34,0,0,0-6.22-3.14c-1.29-.07-2.68.14-3.86-.47a2.31,2.31,0,0,1-.69-.46c-.26-.31.06-.63.21-.94.33-.68.74-1.33,1.12-2a.18.18,0,0,0-.28-.21c-.57.63-1.16,1.24-1.76,1.85a1.73,1.73,0,0,0-.62,1.74c.45,1.39,2.06,1.91,3.38,1.89,1.57,0,3.11-.47,4.68-.19a7.25,7.25,0,0,1,3.94,2C214.06,45.72,214.16,45.61,214.1,45.55Z" style="fill:#fff"></path><path d="M252.11,37.72c-.35-.5-.76-.92-1.14-1.39a2,2,0,0,1-.53-1.12.84.84,0,0,1,.11-.56,1.26,1.26,0,0,1,.32-.45.13.13,0,0,0-.07-.25,1,1,0,0,0-.71.21,1.6,1.6,0,0,0-.41.64,1.94,1.94,0,0,0,.09,1.8,4.19,4.19,0,0,0,1.44,1.49c.32.21.65.39,1,.61s.64.46,1,.67a.07.07,0,0,0,.1-.1C252.87,38.74,252.47,38.24,252.11,37.72Z" style="fill:#fff"></path><path d="M223.31,29.54l-.23-.26-.12-.12-.14-.11c-.1-.07-.2-.15-.3-.21l-.14-.09-.09,0h0l0-.05a.11.11,0,0,1,.13,0c.08.05.14-.07.07-.12a.25.25,0,0,0-.32,0,.28.28,0,0,0-.11.31c0,.11.13.19.2.26l.26.21.13.11.16.1.31.15a.1.1,0,0,0,.13,0A.11.11,0,0,0,223.31,29.54Z" style="fill:#fff"></path><path d="M202.92,32.87c-.7-.13-1.44-.1-2.13-.26-.29-.07-.46-.22-.36-.53a1.5,1.5,0,0,1,.24-.47,1.25,1.25,0,0,0,.17-.26.07.07,0,0,0,.14,0c.06-.17-.17-.27-.31-.29-.33-.06-.6.36-.75.61a1,1,0,0,0-.07,1.09,1.36,1.36,0,0,0,1,.54c1.48.25,3.82-.07,4.56,1.62.06.15.3.09.25-.07A3.39,3.39,0,0,0,202.92,32.87Z" style="fill:#fff"></path></g><g id="freepik--Table--inject-20"><path d="M51.68,464c127.06-.61,269.58-.61,396.64,0-127.06.62-269.58.62-396.64,0Z" style="fill:#263238"></path></g><g id="freepik--Slush--inject-20"><rect x="241.96" y="29.68" width="16.59" height="294.95" transform="matrix(-0.94, 0.34, -0.34, -0.94, 546.14, 257.57)" style="fill:#455a64"></rect><polygon points="193.42 44.47 211.06 47.24 214.88 57.69 197.24 54.92 193.42 44.47" style="fill:#fff"></polygon><polygon points="201.8 67.39 219.44 70.16 223.26 80.61 205.62 77.84 201.8 67.39" style="fill:#fff"></polygon><polygon points="210.19 90.32 227.82 93.08 231.65 103.53 214.01 100.77 210.19 90.32" style="fill:#fff"></polygon><polygon points="218.57 113.24 236.21 116.01 240.03 126.45 222.39 123.69 218.57 113.24" style="fill:#fff"></polygon><polygon points="226.95 136.16 244.59 138.93 248.41 149.38 230.77 146.61 226.95 136.16" style="fill:#fff"></polygon><polygon points="235.34 159.09 252.97 161.85 256.8 172.3 239.16 169.53 235.34 159.09" style="fill:#fff"></polygon><polygon points="243.72 182.01 261.36 184.77 265.18 195.22 247.54 192.46 243.72 182.01" style="fill:#fff"></polygon><polygon points="252.1 204.93 269.74 207.7 273.56 218.15 255.93 215.38 252.1 204.93" style="fill:#fff"></polygon><polygon points="260.49 227.85 278.13 230.62 281.95 241.07 264.31 238.3 260.49 227.85" style="fill:#fff"></polygon><polygon points="268.87 250.78 286.51 253.54 290.33 263.99 272.69 261.22 268.87 250.78" style="fill:#fff"></polygon><polygon points="277.25 273.7 294.89 276.46 298.71 286.91 281.08 284.15 277.25 273.7" style="fill:#fff"></polygon><polygon points="285.64 296.62 303.28 299.39 307.1 309.83 289.46 307.07 285.64 296.62" style="fill:#fff"></polygon><rect x="251.75" y="27.94" width="6.49" height="294.95" transform="translate(554.74 252.57) rotate(159.91)" style="fill:#fff;opacity:0.2"></rect><rect x="177.81" y="454.38" width="144.39" height="9.59" style="fill:#FFC727"></rect><rect x="177.81" y="454.38" width="144.39" height="9.59" style="fill:#fff;opacity:0.4"></rect><polygon points="322.19 454.38 322.19 456.78 177.81 459.18 177.81 454.38 322.19 454.38" style="opacity:0.1"></polygon><polygon points="345.45 233.3 325.06 454.38 174.94 454.38 154.54 233.3 345.45 233.3" style="fill:#FFC727"></polygon><polygon points="345.45 233.3 325.06 454.38 174.94 454.38 154.54 233.3 345.45 233.3" style="fill:#fff;opacity:0.4"></polygon><polygon points="154.54 233.3 155.73 246.16 344.77 240.72 345.45 233.3 154.54 233.3" style="opacity:0.1"></polygon><g style="opacity:0.9"><path d="M256.74,434.38V411.86c0-7.5,7.2-15,15.79-11.58s8.6,14.67,3.37,19c-4,3.26-9.17,3.18-13.46,5.61A12.1,12.1,0,0,0,256.74,434.38Z" style="fill:#FFC727"></path><path d="M250,414.85V361.46c0-17.8,17.06-35.67,37.44-27.47s20.38,34.78,8,45c-9.4,7.72-21.73,7.53-31.91,13.29C256.26,396.37,250,406.28,250,414.85Z" style="fill:#FFC727"></path><path d="M250,373.4V308.48c0-21.63,20.74-43.36,45.52-33.4s24.78,42.29,9.7,54.68c-11.43,9.39-26.42,9.15-38.79,16.16C257.61,350.92,250,363,250,373.4Z" style="fill:#FFC727"></path><path d="M250,405.35V340.43c0-21.63-20.74-43.36-45.52-33.4s-24.78,42.29-9.7,54.68c11.43,9.39,26.42,9.15,38.79,16.16C242.39,382.87,250,394.92,250,405.35Z" style="fill:#FFC727"></path><path d="M245.71,312.34v-38c0-12.67-12.15-25.4-26.66-19.56s-14.52,24.77-5.68,32c6.69,5.5,15.47,5.36,22.71,9.47C241.25,299.17,245.71,306.23,245.71,312.34Z" style="fill:#FFC727"></path></g><path d="M196,369.19a11.25,11.25,0,0,1-4.64-.29,8.48,8.48,0,0,1-3.43-1.85,5.33,5.33,0,0,1-1.66-2.89,4.94,4.94,0,0,1,.59-3.4c.87-1.4,2.59-1.83,5.17-1.41a24.3,24.3,0,0,0,4.05.35,4.31,4.31,0,0,0,1.91-.49c2.42-1,3.77-2.12,4.07-3.08.2-.72-.23-1.47-1.29-2.26q-.65-.51-1.44-1a7.5,7.5,0,0,1-1.34-1,12.08,12.08,0,0,1-3.9-3.89,8.31,8.31,0,0,1-1.17-5.16,18.84,18.84,0,0,1,1-4.76,15.2,15.2,0,0,1,1.74-3.44,17.1,17.1,0,0,1,4.76-4.63,38.29,38.29,0,0,1,5.42-3,24.85,24.85,0,0,1,8.14-1.71,5.09,5.09,0,0,1,2.39.42c.66.31,1.32.63,2,1a2.5,2.5,0,0,1,.85,3.32,4.17,4.17,0,0,1-1.09,1.56,4,4,0,0,1-1.59.92,3,3,0,0,1-.5,2.1,8.49,8.49,0,0,1-4,2.35c-2.72.35-4.56.82-5.52,1.48-1.12.79-1.54,2.14-1.24,4.08a2,2,0,0,0,.82,1.21,19.37,19.37,0,0,0,1.69,1.19c.65.42,1.32.89,2,1.42a8.24,8.24,0,0,1,1.86,1.91q2.78,4-.45,10.77a18.38,18.38,0,0,1-8.14,8.27A17.81,17.81,0,0,1,196,369.19Z" style="fill:#fff"></path><path d="M224.93,358.87a14.49,14.49,0,0,1-.72,2,6.91,6.91,0,0,1-1.19,1.8,16.46,16.46,0,0,1-1.89,1.8,10.91,10.91,0,0,1-2.08,1.39c-1.52.7-2.32.43-2.39-.78a.55.55,0,0,0-.62-.43,2.49,2.49,0,0,1-.87-.07c-.69-.15-.89-.92-.59-2.31q.79-2.9,1.74-7c.63-2.74,1.44-5.78,2.43-9.14a137.71,137.71,0,0,1,8.74-22.69c.23-.36.5-.82.8-1.39a9,9,0,0,1,1.14-1.64,5.09,5.09,0,0,1,4.27-2,1.48,1.48,0,0,0,.3,1.08,10.07,10.07,0,0,0,.79.83,2.35,2.35,0,0,1,1.05,2,294.78,294.78,0,0,0-9.49,30.6c-.33,1.28-.6,2.4-.79,3.35S225.15,358.12,224.93,358.87Z" style="fill:#fff"></path><path d="M236.23,335.76a8.16,8.16,0,0,1,3.11-2.51,5.71,5.71,0,0,1,3-.57,2.52,2.52,0,0,1,1.94,1.3,3.56,3.56,0,0,1-.18,3.06,32.54,32.54,0,0,0-2.68,6.21c-.66,2.12-1.28,4.25-1.84,6.38a34.72,34.72,0,0,0,7.65-11c.6-1.31,1.24-2.66,1.94-4,.25-.54.49-1.08.74-1.63.5-1,1-1.9,1.49-2.85a2.7,2.7,0,0,1,1-1.55,5.86,5.86,0,0,1,1.61-.78l1.76-.53a3.83,3.83,0,0,0,1.64-1,3.3,3.3,0,0,1,1.77-.92,3.38,3.38,0,0,1,1.83.1,2.46,2.46,0,0,1,1.25.94,1.53,1.53,0,0,1,.07,1.49,182.49,182.49,0,0,0-5.71,18.4q-.85,3-1.59,5.07a9.56,9.56,0,0,1-3.13,3.07,10.45,10.45,0,0,1-3.55,1.45,3.78,3.78,0,0,1-2.66-.3c-.66-.41-.81-1.13-.45-2.17-.92,1-1.88,2-2.88,3a12.67,12.67,0,0,1-3.6,2.35,11.29,11.29,0,0,1-4.05,1.06,5.14,5.14,0,0,1-3.3-.84,3.76,3.76,0,0,1-1.46-3.15C229.83,350.64,231.9,344,236.23,335.76Z" style="fill:#fff"></path><path d="M277.86,346.23a19.75,19.75,0,0,1-4.6,3.62,25.58,25.58,0,0,1-5.34,2.38,17.5,17.5,0,0,1-5,.84,5.64,5.64,0,0,1-3.68-1.06,2.66,2.66,0,0,1-1.09-3,3.11,3.11,0,0,1,.87-1.36,2.5,2.5,0,0,1,1.51-.67,1.25,1.25,0,0,0,.87-.58,6.43,6.43,0,0,0,.47-1,8.66,8.66,0,0,1,.45-1,1.28,1.28,0,0,1,.79-.67c5.83-1.59,8.86-2.92,9.09-4.18a3.93,3.93,0,0,0-1.46-.53l-1.76-.29a4.59,4.59,0,0,1-2.94-1.34q-.93-.21-1.44-1.95a5.57,5.57,0,0,1-.24-1.67,5.26,5.26,0,0,1,.29-1.72c-.1-1.26.7-2.93,2.39-5a24.68,24.68,0,0,1,1.74-1.9,17.33,17.33,0,0,1,3.13-2.32,31.41,31.41,0,0,1,4.14-2.14,19.35,19.35,0,0,1,3.73-1.17,3.11,3.11,0,0,1,2.38.23,3.66,3.66,0,0,1,1.15,1.47,3.51,3.51,0,0,1,.27,2c-.27,1.56-1.49,2.85-3.68,4-2.75,1.07-4.07,1.8-4,2.1,0,.07-.12.18-.35.34a11.94,11.94,0,0,1,5.32,3.83c1.35,2,1.55,4.53.59,7.6.17.89-.66,2.24-2.48,4.08Z" style="fill:#fff"></path><path d="M311.93,334.67a14.49,14.49,0,0,0,.64,4.57,2.91,2.91,0,0,1-.74,2.26,2.88,2.88,0,0,1-1.86.74,6.48,6.48,0,0,1-2.36-.35,7.54,7.54,0,0,1-2.11-1,4.46,4.46,0,0,1-1.12-1c-.17-.26-.43-.66-.8-1.19a26.17,26.17,0,0,1-.79-5.05,15.46,15.46,0,0,1,.2-2.05,16,16,0,0,0-3.43,2.6,16.89,16.89,0,0,0-2.93,4.86,6.59,6.59,0,0,1-.64,2.4,2.31,2.31,0,0,1-.65.27,2.43,2.43,0,0,0-.84.48,10,10,0,0,1-.85.64l-.79.53a4.53,4.53,0,0,1-1.25.76,6.13,6.13,0,0,1-5.41.26,3.71,3.71,0,0,1-1.69-1.54,3.35,3.35,0,0,1-.3-2.45,160.38,160.38,0,0,1,5.86-19.93,69.87,69.87,0,0,1,4.38-10c.33-.58.66-1.2,1-1.84.69-1.3,1.17-2.18,1.44-2.65a2.66,2.66,0,0,1,0-2.26,4.67,4.67,0,0,1,1.59-1.76,8.17,8.17,0,0,1,2.46-1.06,9.56,9.56,0,0,1,2.63-.31c2,.12,3.05.85,3.18,2.1-.2.6-.47,1.33-.82,2.18s-.69,1.72-1,2.59l-1,2.44c-.32.75-.55,1.31-.7,1.67s-.36,1-.64,1.85-.58,1.82-.9,2.83-.6,1.94-.87,2.8c-.2.6-.39,1.2-.59,1.8s-.35,1.21-.65,2.19-.61,2.19-.94,3.62a5.75,5.75,0,0,0,1.07-1.3,11.22,11.22,0,0,1,1.24-1.66,12.74,12.74,0,0,1,2.13-1.88,7.86,7.86,0,0,1,2.81-1.29,6,6,0,0,1,5.86,1.84c1.32,1.3,1.74,3.3,1.24,5.95q-.3,1.63-.72,3.3A9.67,9.67,0,0,0,311.93,334.67Z" style="fill:#fff"></path><path d="M306.82,317.29c5.51-4.75,12.54-5.14,13.84-2,1,2.41-2.36,4.32-5.52,3.26A21.14,21.14,0,0,0,306.82,317.29Z" style="fill:#fff"></path><path d="M308.23,313.93c.54-5.14,4-8.77,6.22-7.75,1.68.77.88,3.39-1.28,4.37A15.19,15.19,0,0,0,308.23,313.93Z" style="fill:#fff"></path><path d="M193.18,355.5c-5.51-4.74-12.54-5.13-13.84-2-1,2.41,2.36,4.33,5.52,3.26A21.14,21.14,0,0,1,193.18,355.5Z" style="fill:#fff"></path><path d="M191.77,352.14c-.54-5.14-4-8.76-6.22-7.75-1.68.77-.88,3.39,1.28,4.38A15.09,15.09,0,0,1,191.77,352.14Z" style="fill:#fff"></path><polygon points="297.06 454.38 315.55 454.38 335.95 233.3 307.46 233.3 297.06 454.38" style="fill:#fff;opacity:0.2"></polygon><polygon points="302.62 233.3 294.71 401.18 289.5 394.71 295.64 233.3 302.62 233.3" style="fill:#fff;opacity:0.2"></polygon><rect x="143.82" y="207.59" width="212.36" height="25.71" style="fill:#FFC727"></rect><rect x="143.82" y="207.59" width="212.36" height="25.71" style="fill:#fff;opacity:0.4"></rect><path d="M148.36,210.38a66.85,66.85,0,0,1,0,20.12,66.21,66.21,0,0,1,0-20.12Z" style="opacity:0.1"></path><path d="M154,210.38a66.21,66.21,0,0,1,0,20.12,66.85,66.85,0,0,1,0-20.12Z" style="opacity:0.1"></path><path d="M159.65,210.38a66.53,66.53,0,0,1,0,20.12,66.53,66.53,0,0,1,0-20.12Z" style="opacity:0.1"></path><path d="M165.3,210.38a66.85,66.85,0,0,1,0,20.12,66.21,66.21,0,0,1,0-20.12Z" style="opacity:0.1"></path><path d="M170.94,210.38a66.21,66.21,0,0,1,0,20.12,66.85,66.85,0,0,1,0-20.12Z" style="opacity:0.1"></path><path d="M176.59,210.38a66.21,66.21,0,0,1,0,20.12,66.85,66.85,0,0,1,0-20.12Z" style="opacity:0.1"></path><path d="M182.24,210.38a66.85,66.85,0,0,1,0,20.12,66.21,66.21,0,0,1,0-20.12Z" style="opacity:0.1"></path><path d="M187.89,210.38a66.85,66.85,0,0,1,0,20.12,66.21,66.21,0,0,1,0-20.12Z" style="opacity:0.1"></path><path d="M193.53,210.38a66.21,66.21,0,0,1,0,20.12,66.85,66.85,0,0,1,0-20.12Z" style="opacity:0.1"></path><path d="M199.18,210.38a66.85,66.85,0,0,1,0,20.12,66.21,66.21,0,0,1,0-20.12Z" style="opacity:0.1"></path><path d="M204.83,210.38a66.85,66.85,0,0,1,0,20.12,66.21,66.21,0,0,1,0-20.12Z" style="opacity:0.1"></path><path d="M210.47,210.38a66.21,66.21,0,0,1,0,20.12,66.85,66.85,0,0,1,0-20.12Z" style="opacity:0.1"></path><path d="M216.12,210.38a66.53,66.53,0,0,1,0,20.12,66.53,66.53,0,0,1,0-20.12Z" style="opacity:0.1"></path><path d="M221.77,210.38a66.85,66.85,0,0,1,0,20.12,66.21,66.21,0,0,1,0-20.12Z" style="opacity:0.1"></path><path d="M227.41,210.38a66.21,66.21,0,0,1,0,20.12,66.85,66.85,0,0,1,0-20.12Z" style="opacity:0.1"></path><path d="M233.06,210.38a66.53,66.53,0,0,1,0,20.12,66.53,66.53,0,0,1,0-20.12Z" style="opacity:0.1"></path><path d="M238.71,210.38a66.85,66.85,0,0,1,0,20.12,66.21,66.21,0,0,1,0-20.12Z" style="opacity:0.1"></path><path d="M244.35,210.38a66.21,66.21,0,0,1,0,20.12,66.85,66.85,0,0,1,0-20.12Z" style="opacity:0.1"></path><path d="M250,210.38a66.53,66.53,0,0,1,0,20.12,66.53,66.53,0,0,1,0-20.12Z" style="opacity:0.1"></path><path d="M255.65,210.38a66.85,66.85,0,0,1,0,20.12,66.21,66.21,0,0,1,0-20.12Z" style="opacity:0.1"></path><path d="M261.29,210.38a66.21,66.21,0,0,1,0,20.12,66.85,66.85,0,0,1,0-20.12Z" style="opacity:0.1"></path><path d="M266.94,210.38a66.53,66.53,0,0,1,0,20.12,66.53,66.53,0,0,1,0-20.12Z" style="opacity:0.1"></path><path d="M272.59,210.38a66.85,66.85,0,0,1,0,20.12,66.21,66.21,0,0,1,0-20.12Z" style="opacity:0.1"></path><path d="M278.23,210.38a66.21,66.21,0,0,1,0,20.12,66.85,66.85,0,0,1,0-20.12Z" style="opacity:0.1"></path><path d="M283.88,210.38a66.53,66.53,0,0,1,0,20.12,66.53,66.53,0,0,1,0-20.12Z" style="opacity:0.1"></path><path d="M289.53,210.38a66.85,66.85,0,0,1,0,20.12,66.21,66.21,0,0,1,0-20.12Z" style="opacity:0.1"></path><path d="M295.17,210.38a66.21,66.21,0,0,1,0,20.12,66.85,66.85,0,0,1,0-20.12Z" style="opacity:0.1"></path><path d="M300.82,210.38a66.21,66.21,0,0,1,0,20.12,66.85,66.85,0,0,1,0-20.12Z" style="opacity:0.1"></path><path d="M306.47,210.38a66.85,66.85,0,0,1,0,20.12,66.21,66.21,0,0,1,0-20.12Z" style="opacity:0.1"></path><path d="M312.11,210.38a66.53,66.53,0,0,1,0,20.12,66.53,66.53,0,0,1,0-20.12Z" style="opacity:0.1"></path><path d="M317.76,210.38a66.21,66.21,0,0,1,0,20.12,66.85,66.85,0,0,1,0-20.12Z" style="opacity:0.1"></path><path d="M323.41,210.38a66.85,66.85,0,0,1,0,20.12,66.21,66.21,0,0,1,0-20.12Z" style="opacity:0.1"></path><path d="M329.06,210.38a66.85,66.85,0,0,1,0,20.12,66.21,66.21,0,0,1,0-20.12Z" style="opacity:0.1"></path><path d="M334.7,210.38a66.21,66.21,0,0,1,0,20.12,66.85,66.85,0,0,1,0-20.12Z" style="opacity:0.1"></path><path d="M340.35,210.38a66.53,66.53,0,0,1,0,20.12,66.53,66.53,0,0,1,0-20.12Z" style="opacity:0.1"></path><path d="M346,210.38a66.85,66.85,0,0,1,0,20.12,66.21,66.21,0,0,1,0-20.12Z" style="opacity:0.1"></path><path d="M351.64,210.38a66.21,66.21,0,0,1,0,20.12,66.85,66.85,0,0,1,0-20.12Z" style="opacity:0.1"></path><path d="M159.65,207.59s15-21,28.24-24.78,26.13,1.17,29.34,1,23.61-8.65,39.18-8.65,33.2,15.64,36.69,16.22,31.41-3.41,47.24,16.21Z" style="fill:#FFC727"></path><g style="opacity:0.1"><path d="M203.1,197.9c10.67-10.73,21.87-9.48,34.77-3.7.23.15,1.07-.06,1.57-.1,4.81-.67,9.91-1,14.61.56a26,26,0,0,1,10.46,6.67,27.64,27.64,0,0,0-14.76-6,38.51,38.51,0,0,0-8,.41c-1.07.13-2.66.45-3.73.5a2.37,2.37,0,0,1-.78-.17,69.17,69.17,0,0,0-11.55-3.9c-8-2.06-16.24.77-22.58,5.76Z"></path><path d="M272.59,191.6a29.87,29.87,0,0,1,16.54-1.19,35,35,0,0,1,14.13,8.68c-4.79-2.5-9.48-5.25-14.65-6.75-5.22-1.33-10.65-.91-16-.74Z"></path></g><g style="opacity:0.4"><path d="M175.83,192.45c5.52-7,15.23-11.13,24.11-9.47a58.41,58.41,0,0,0-24.11,9.47Z" style="fill:#fff"></path><path d="M233.82,181.16c6.19-3.63,14.71-6.12,21.83-4.34-7.29,1-14.54,3.27-21.83,4.34Z" style="fill:#fff"></path></g><g style="opacity:0.30000000000000004"><path d="M345.45,207.59H154.55c10.67-70.68,63.24-82.46,63.24-82.46h64.43S334.78,136.91,345.45,207.59Z" style="fill:#ebebeb"></path></g><g style="opacity:0.4"><path d="M217.73,125.15h0c-9,2.74-49.12,23.13-58.08,82.44h-5.1C165,138.3,215.73,125.62,217.73,125.15Z" style="fill:#dbdbdb"></path><path d="M345.45,207.59h-5.11c-9-59.4-49.18-79.73-58.09-82.45h0C283.49,125.42,334.91,137.76,345.45,207.59Z" style="fill:#dbdbdb"></path></g><path d="M217.78,125.13l-.05,0v0Z" style="fill:#dbdbdb"></path><g style="opacity:0.6000000000000001"><path d="M235.77,125.13c-43,19.77-49.37,82.46-49.37,82.46H174.18s6.38-62.69,49.37-82.46Z" style="fill:#fff"></path><path d="M298.92,142.24H282a66.32,66.32,0,0,0-19-17.11h13.45A67.16,67.16,0,0,1,298.92,142.24Z" style="fill:#fff"></path><path d="M325.83,207.59h-19.6s-2.63-28-16.14-52.85H308C322.94,179.31,325.83,207.59,325.83,207.59Z" style="fill:#fff"></path></g></g><g id="freepik--mango-pieces--inject-20"><path d="M154.27,466.32c-.12-.44,24.93-19.67,37.78-19.39.31,0,.64,0,.95,0s.77,0,1.16.07a53.42,53.42,0,0,1,10.42,1.84,1.07,1.07,0,0,1,.37.12c1.42.36,2.8.79,4.18,1.25.33.09.65.21,1,.33,4.72,1.6,9.38,3.54,14,5.34.28.12.59.23.9.34,3.32,1.29,6.67,2.5,10,3.45.82.24.71,1.48-.16,2-5.52,3.05-11.21,6.45-16.95,9.53-.32.15-.62.32-.92.49-2.84,1.5-5.69,2.89-8.52,4.09-.55.24-1.09.46-1.61.65a49.9,49.9,0,0,1-5.59,2c-.4.14-.79.26-1.18.38a42.58,42.58,0,0,1-8.18,1.45c-1,.07-2,.11-2.91.09-.65,0-1.3,0-1.94,0C175.2,479.61,154.29,466.42,154.27,466.32Z" style="fill:#455a64"></path><path d="M151,466.26c1.17-.26,2.32-.51,3.45-.73,4.81-1,9.65-1.82,14.47-2.53,8.18-5.64,15.55-11.87,24-16,.39,0,.77,0,1.16.07a128.86,128.86,0,0,0-13.57,8.63c-3,2.16-6,4.89-9.07,7,6.22-.84,12.44-1.44,18.61-1.82a73.2,73.2,0,0,1,6.63-4.4c2.57-2.55,5.23-5,7.82-7.54a1.07,1.07,0,0,1,.37.12A81.13,81.13,0,0,1,198,455.7a106.73,106.73,0,0,1,11.12-5.46c.33.09.65.21,1,.33-6.06,3.23-12,6.83-18,10.1,5.38-.29,10.74-.46,16-.46a63.67,63.67,0,0,1,16-4.3c.28.12.59.23.9.34-4.88,1.22-9.72,2.75-14.59,3.95,6.48,0,12.9.27,19.24.68.18,0,.1.39-.08.38-11.56.11-23.12.75-34.72,1.68a80.28,80.28,0,0,1,23.07,8.26c-.32.15-.62.32-.92.49a92.76,92.76,0,0,0-26.49-8.42c-2.93.26-5.89.6-8.84.88a131,131,0,0,1,26.81,11.63c-.55.24-1.09.46-1.61.65-5.14-2.81-10.43-5.4-15.8-7.76a72.64,72.64,0,0,1,10.21,9.74c-.4.14-.79.26-1.18.38-3.23-3.57-6.38-7.19-9.82-10.49-3.3-1.43-6.64-2.79-10-4-4.2.41-8.43.87-12.65,1.32q10.74,7.26,21.41,14.71c-.65,0-1.3,0-1.94,0a134.39,134.39,0,0,1-20.26-14.59l-10.56,1.2c-1.77.18-3.55.4-5.33.61C150.21,467.59,150.33,466.42,151,466.26Z" style="fill:#37474f"></path><path d="M125.53,428.18c-.33.32-28.84-13.28-34.43-24.85-.12-.29-.27-.58-.39-.86s-.32-.7-.47-1.07a53.51,53.51,0,0,1-3.09-10.12.84.84,0,0,1-.06-.38c-.33-1.43-.57-2.86-.79-4.3-.07-.32-.11-.67-.15-1-.71-4.93-1.1-10-1.6-14.9,0-.3-.06-.62-.1-.95-.36-3.55-.8-7.09-1.48-10.51-.16-.83,1-1.3,1.83-.74,5.22,3.53,10.84,7,16.18,10.77.29.21.57.41.86.6,2.62,1.85,5.16,3.75,7.51,5.73.46.38.9.76,1.31,1.14a49.39,49.39,0,0,1,4.3,4.09c.31.29.59.58.87.87a42.6,42.6,0,0,1,5,6.63c.51.84,1,1.69,1.4,2.55.3.58.58,1.17.85,1.75C127.88,403.51,125.61,428.12,125.53,428.18Z" style="fill:#455a64"></path><path d="M127,431.09c-.77-.92-1.5-1.83-2.22-2.75-3.08-3.82-6-7.76-8.82-11.74-8.74-4.72-17.64-8.46-25.2-14.13-.18-.35-.32-.7-.47-1.07a127.6,127.6,0,0,0,13.85,8.17c3.27,1.67,7.07,3.11,10.33,4.92-3.58-5.16-6.93-10.43-10.07-15.75a73.22,73.22,0,0,1-6.93-3.92c-3.44-1.12-6.85-2.37-10.27-3.54a.84.84,0,0,1-.06-.38A80.41,80.41,0,0,1,96.22,394a107.22,107.22,0,0,1-9.92-7.43c-.07-.32-.11-.67-.15-1,5.63,3.94,11.53,7.59,17.19,11.48-2.71-4.66-5.29-9.36-7.7-14.09a63.65,63.65,0,0,1-11.09-12.29c0-.3-.06-.62-.1-.95,3.3,3.79,6.87,7.41,10.14,11.2-2.91-5.78-5.61-11.61-8.13-17.44-.07-.17.31-.28.38-.11,5.34,10.25,11.16,20.26,17.26,30.17a80.34,80.34,0,0,1-3.12-24.3c.29.21.57.41.86.6a92.72,92.72,0,0,0,4.52,27.42c1.57,2.5,3.21,5,4.8,7.48a131.15,131.15,0,0,1-1.81-29.17c.46.38.9.76,1.31,1.14-.17,5.86-.07,11.75.26,17.6a72.09,72.09,0,0,1,4-13.51c.31.29.59.58.87.87-1.71,4.5-3.51,8.95-4.88,13.51.22,3.59.53,7.18,1,10.76,2.27,3.55,4.6,7.11,6.92,10.67q1.59-12.87,3.38-25.76c.3.58.58,1.17.85,1.75a135.05,135.05,0,0,1-3.8,24.67q2.91,4.44,5.86,8.87c1,1.49,2,3,3,4.47C128.51,431.22,127.41,431.65,127,431.09Z" style="fill:#37474f"></path><path d="M150.81,460.36c-.46-.23,3.57-35.62,13.86-45.82.26-.24.51-.51.77-.74s.63-.6,1-.89a60.31,60.31,0,0,1,9.65-7,1.06,1.06,0,0,1,.39-.21c1.4-.87,2.83-1.65,4.29-2.41a10,10,0,0,1,1-.54c5-2.57,10.22-4.83,15.29-7.17.32-.13.65-.3,1-.46,3.66-1.69,7.27-3.45,10.66-5.44.83-.47,1.76.59,1.47,1.68-1.85,6.86-3.55,14.15-5.55,21.21-.12.38-.22.76-.32,1.13-1,3.47-2.11,6.88-3.35,10.11-.24.64-.48,1.24-.73,1.82a57.48,57.48,0,0,1-2.78,6.08c-.2.44-.41.85-.62,1.26a48.83,48.83,0,0,1-5.22,7.77c-.72.84-1.44,1.66-2.21,2.43-.5.53-1,1-1.55,1.54C178,453.8,150.9,460.43,150.81,460.36Z" style="fill:#455a64"></path><path d="M148.23,462.94c.7-1.15,1.4-2.27,2.11-3.37,2.95-4.69,6.08-9.25,9.29-13.71,1.82-11.05,2.54-21.92,5.81-32.06.31-.32.63-.6,1-.89a143.56,143.56,0,0,0-3.63,17.76c-.58,4.09-.72,8.68-1.45,12.82q6.28-8.55,13.1-16.52a81.67,81.67,0,0,1,1.62-8.83c-.06-4.08,0-8.17,0-12.24a1.06,1.06,0,0,1,.39-.21,94.21,94.21,0,0,1,0,10.89,118.73,118.73,0,0,1,4.28-13.3,10,10,0,0,1,1-.54c-2.13,7.45-3.86,15.08-5.93,22.54q6-6.9,12.2-13.38a71.55,71.55,0,0,1,9-16.33c.32-.13.65-.3,1-.46-2.83,4.91-5.38,10-8.22,14.92,5.1-5.23,10.33-10.25,15.62-15.06.15-.14.4.22.25.36-9,9.45-17.5,19.33-25.83,29.47a90.34,90.34,0,0,1,24.76-12.24c-.12.38-.22.76-.32,1.13a104.65,104.65,0,0,0-27.57,14.89c-2.09,2.58-4.13,5.25-6.22,7.86A148.16,148.16,0,0,1,201,423.8c-.24.64-.48,1.24-.73,1.82-6.31,2-12.56,4.23-18.68,6.74a81.56,81.56,0,0,1,15.9-.66c-.2.44-.41.85-.62,1.26-5.42-.18-10.83-.47-16.2-.25-3.74,1.55-7.46,3.19-11.1,5-3,3.73-5.89,7.51-8.83,11.29q14.31-3,28.7-5.84c-.5.53-1,1-1.55,1.54a151.67,151.67,0,0,1-27.7,5c-2.44,3.16-4.88,6.32-7.31,9.51-1.23,1.57-2.45,3.2-3.68,4.79C148.66,464.66,147.8,463.64,148.23,462.94Z" style="fill:#37474f"></path><path d="M143,382.75s-18.75,8.12-43.63,32.05-47.68,48.87-47.68,48.87,10.17,7.7,27.37,2.11,44.55-13.52,56-23.65S154.46,410.45,143,382.75Z" style="fill:#FFC727"></path><path d="M51.68,463.67h0c15,4.79,37.33-5.1,50.7-11.92s27.48-23.81,31.52-33.31,9.08-35.7,9.08-35.7-18.75,8.11-43.63,32.06S51.68,463.67,51.68,463.67Z" style="fill:#FFC727"></path><path d="M51.68,463.67h0c15,4.79,37.33-5.1,50.7-11.92s27.48-23.81,31.52-33.31,9.08-35.7,9.08-35.7-18.75,8.11-43.63,32.06S51.68,463.67,51.68,463.67Z" style="fill:#fff;opacity:0.2"></path><g style="opacity:0.1"><path d="M59.8,467A35.78,35.78,0,0,0,79,465.78c17.2-5.59,44.56-13.52,56-23.65,6.17-5.48,11.35-14.3,13-25.61-5.59,2.59-11.62,5.6-18,9.11C97,443.76,65.78,463.27,59.8,467Z"></path></g><path d="M183.65,413.34s-20.34,1.93-51.41,17S71.8,462.07,71.8,462.07s7.28,10.47,25.36,10.47,46.55.92,60.54-5.19S186,443.23,183.65,413.34Z" style="fill:#FFC727"></path><path d="M71.8,462.07h0c12.81,9.2,37.08,6.69,51.9,4.34s33.49-14.14,40.27-21.93,19.68-31.14,19.68-31.14-20.34,1.92-51.41,17S71.8,462.07,71.8,462.07Z" style="fill:#FFC727"></path><path d="M71.8,462.07h0c12.81,9.2,37.08,6.69,51.9,4.34s33.49-14.14,40.27-21.93,19.68-31.14,19.68-31.14-20.34,1.92-51.41,17S71.8,462.07,71.8,462.07Z" style="fill:#fff;opacity:0.2"></path></g><g id="freepik--Mango--inject-20"><path d="M285.84,373.71c.5.16-5.59,33-17.72,43.54-.3.24-.6.52-.91.76s-.74.63-1.14.94a87.18,87.18,0,0,1-11.26,7.57,1.78,1.78,0,0,1-.45.24c-1.63,1-3.29,1.85-5,2.72-.38.22-.79.42-1.19.62-5.8,2.95-11.83,5.65-17.7,8.41-.37.16-.75.35-1.13.54-4.23,2-8.4,4-12.35,6.26a1.1,1.1,0,0,1-1.6-1.36c2.4-6.49,4.64-13.34,7.22-20,.15-.36.28-.72.41-1.07,1.3-3.29,2.69-6.54,4.25-9.64.29-.61.59-1.19.9-1.75a59.58,59.58,0,0,1,3.42-5.89c.25-.43.5-.82.76-1.22a56.29,56.29,0,0,1,6.26-7.73c.86-.86,1.72-1.7,2.62-2.49.6-.55,1.23-1.08,1.83-1.6C254.68,383,285.73,373.66,285.84,373.71Z" style="fill:#455a64"></path><path d="M288.88,371c-.84,1.14-1.69,2.25-2.55,3.34-3.55,4.64-7.3,9.19-11.14,13.65-2.55,10.31-3.82,20.32-8,30-.36.33-.74.63-1.14.94A123.86,123.86,0,0,0,271,402.28c.83-3.81,1.19-8,2.2-11.88-5,5.72-10.23,11.29-15.6,16.68a68.17,68.17,0,0,1-2.22,8.26c-.11,3.72-.37,7.46-.53,11.18a1.78,1.78,0,0,1-.45.24,67.46,67.46,0,0,1,.45-9.95,111.77,111.77,0,0,1-5.43,12.67c-.38.22-.79.42-1.19.62,2.73-7.06,5-14.25,7.7-21.31q-7.08,7-14.44,13.71a78.19,78.19,0,0,1-11,16c-.37.16-.75.35-1.13.54,3.43-4.83,6.54-9.83,10-14.63-6,5.39-12.17,10.61-18.39,15.66-.18.14-.45-.16-.28-.3,10.6-9.73,20.72-19.79,30.62-30.06a135.41,135.41,0,0,1-28.66,14.19c.15-.36.28-.72.41-1.07a155.71,155.71,0,0,0,32-16.95c2.49-2.61,4.93-5.29,7.41-7.93a225.21,225.21,0,0,1-35.13,15.24c.29-.61.59-1.19.9-1.75,7.26-2.57,14.45-5.39,21.52-8.43a119,119,0,0,1-18.1,2.54c.25-.43.5-.82.76-1.22,6.15-.5,12.28-.9,18.4-1.74,4.32-1.88,8.61-3.83,12.83-5.93,3.52-3.76,7-7.57,10.52-11.38-10.92,3-21.9,5.95-32.87,8.83.6-.55,1.23-1.08,1.83-1.6a230.57,230.57,0,0,1,31.69-7.94q4.37-4.77,8.72-9.57c1.47-1.58,2.92-3.22,4.38-4.82A.66.66,0,0,1,288.88,371Z" style="fill:#37474f"></path><path d="M313.41,369.58s7.47-18,36.09-16.38,47.74,24.52,52.6,32.49,17.1,26.87,24.78,32.8,17.21,8.8,19.91,15.53,3.6,17.75-12.79,28.88-53.91,28.78-96.5,7.31C296.78,449.68,283.08,382.28,313.41,369.58Z" style="fill:#FFC727"></path><path d="M339.6,462.46c39.63,20,74.52,3.54,89.77-6.8S446.78,434,438,425.5c-3.5-2.14-7.5-4.24-11.07-7-7.7-5.93-19.93-24.83-24.79-32.79a69.51,69.51,0,0,0-10.64-12.81c-9.28-9-23.69-18.68-42-19.69-27.93-1.55-35.71,15.53-36.07,16.35l0,0h0C288.25,383.66,301.71,443.35,339.6,462.46Z" style="fill:#fff;opacity:0.1"></path><path d="M351.67,445.77c28.74,18.54,59.92,4.88,70.66-3.71,10.89-8.7,12.66-13.29,5.88-22.57l0,0c-.44-.31-.87-.64-1.3-1-7.7-5.93-19.93-24.83-24.79-32.79a69.51,69.51,0,0,0-10.64-12.81c-1.47-1.42-3.08-2.87-4.81-4.3h0a4.33,4.33,0,0,1-.53-.43c-9.36-7.34-21.73-13.59-30.73-13.24C309.31,356.71,308.87,418.14,351.67,445.77Z" style="fill:#fff;opacity:0.1"></path><path d="M388.08,391.41c7.64-6-1.6-25.27-16.49-31.33-8.06-3.29-24.34-2-22.09,12.66S377.49,399.77,388.08,391.41Z" style="fill:#fff;opacity:0.2"></path><path d="M313.92,374.52a31.23,31.23,0,0,1-4.71.8c-1-.08-11.84-8.73-12.1-9.16s-2.54-8.74-3.4-9.07-2.3.85-2.51,2.17-.41,7.23-1.45,8.29-6.77,6.16-8.73,8.53-9.1,16.37-11.22,20.2-7.37,21.18-7.37,21.18,6.45-16.94,7.76-19.25c2.25-4,10.07-18.75,11.87-20.66s8.55-7.63,10.74-7.59,13.35,9.09,14.39,11.34a13.44,13.44,0,0,1,1.19,4.11S313.91,380.48,313.92,374.52Z" style="fill:#37474f"></path><path d="M313.73,370.39a23.45,23.45,0,0,1,.39,5.42,18.46,18.46,0,0,1-3.87,8.2c-2.38,2.69-4.78,5.27-5.95,8.71a16.72,16.72,0,0,0-.93,3.43,15.29,15.29,0,0,1,1.78-7c1-2.19,2.83-4,4.31-5.79a24,24,0,0,0,3.53-6c1-2.2.64-4.62.74-7Z" style="fill:#263238"></path></g></svg>
