<svg xmlns="http://www.w3.org/2000/svg" viewBox="0 0 500 500"><g id="freepik--background-complete--inject-14"><g><g><g><path d="M443.92,310.2h-180.75c-3.23,0-5.86-2.63-5.86-5.86V41.06c0-3.23,2.63-5.86,5.86-5.86h180.75c3.23,0,5.86,2.63,5.86,5.86V304.33c0,3.23-2.63,5.86-5.86,5.86ZM263.17,35.45c-3.09,0-5.61,2.52-5.61,5.61V304.33c0,3.09,2.52,5.61,5.61,5.61h180.75c3.09,0,5.61-2.52,5.61-5.61V41.06c0-3.09-2.52-5.61-5.61-5.61h-180.75Z" style="fill:#e0e0e0;"></path><path d="M235.49,310.2H54.75c-3.23,0-5.86-2.63-5.86-5.86V41.06c0-3.23,2.63-5.86,5.86-5.86H235.49c3.23,0,5.86,2.63,5.86,5.86V304.33c0,3.23-2.63,5.86-5.86,5.86ZM54.75,35.45c-3.09,0-5.61,2.52-5.61,5.61V304.33c0,3.09,2.52,5.61,5.61,5.61H235.49c3.09,0,5.61-2.52,5.61-5.61V41.06c0-3.09-2.52-5.61-5.61-5.61H54.75Z" style="fill:#e0e0e0;"></path></g><rect x="0" y="371.27" width="500" height=".25" style="fill:#e0e0e0;"></rect></g><rect x="51.67" y="385.53" width="16.06" height=".25" style="fill:#e0e0e0;"></rect><rect x="170.35" y="382.82" width="53.53" height=".25" style="fill:#e0e0e0;"></rect><rect x="68.73" y="394.82" width="36.25" height=".25" style="fill:#e0e0e0;"></rect><rect x="378.35" y="382.69" width="43.19" height=".25" style="fill:#e0e0e0;"></rect><rect x="430.45" y="382.69" width="6.33" height=".25" style="fill:#e0e0e0;"></rect><rect x="316.21" y="388.92" width="53.89" height=".25" style="fill:#e0e0e0;"></rect></g><g><path d="M110.39,229.89c-1.92,1.81-3.51,3.94-5.08,6.06,1.09-3.99,1.2-8.23,.33-12.27-3.46,3.6-5.34,8.67-5.08,13.66-2.05-4.48-5.02-8.53-8.68-11.82-.88,5.17,.85,10.73,4.52,14.48-4.33-1.64-8.65-3.29-12.98-4.93-.5-.19-1.09-.37-1.54-.09-.59,.37-.53,1.25-.33,1.91,1.14,3.8,4.46,6.62,8.12,8.14,3.66,1.52,7.67,1.92,11.61,2.31l4.46-2.21c6.45-4.18,10.8-11.45,11.43-19.12-2.57,.59-4.87,2.08-6.79,3.89Z" style="fill:#e0e0e0;"></path><path d="M130.19,246.17c-2.76-3.6-7.21-5.69-11.72-6.15-4.51-.46-10.5,.57-15.13,4.78,.41-.01-13.15-.38-18.4,6.01-4.47,5.44-5.38,15.69-2.62,22.17,2.13,5,6.27,8.89,10.7,12.05s9.25,5.75,13.57,9.06c3.24,2.49,6.75,5.57,10.8,5,2.12-.29,3.99-1.6,5.36-3.24,1.37-1.64,2.29-3.6,3.12-5.57,3.09-7.34,5.15-15.07,6.66-22.89,.7-3.6,1.29-7.26,1.1-10.93-.19-3.66-1.2-7.37-3.43-10.28Z" style="fill:#ebebeb;"></path><path d="M124.6,290.56c-.64,1.49-1.5,3.16-3.08,3.54-1.08,.26-5.17-1.24-6.17-1.73-10.89-5.25-17.96-15.98-23.79-26.56-1.57-2.85-3.11-5.77-3.92-8.93-.71-2.8-.79-5.83,.18-8.53-1.1,.68-2.09,1.49-2.88,2.46-4.47,5.44-5.38,15.69-2.62,22.17,2.13,5,6.27,8.89,10.7,12.05s9.25,5.75,13.57,9.06c3.24,2.49,6.75,5.57,10.8,5,2.12-.29,3.99-1.6,5.36-3.24,1.37-1.64,2.29-3.6,3.12-5.57,3.09-7.34,5.15-15.07,6.66-22.89,.7-3.6,1.29-7.26,1.1-10.93-.03-.5-.07-1.01-.13-1.51-.3,8.55-4.12,24.4-8.89,35.61Z" style="fill:#f0f0f0;"></path><path d="M115.57,276.95l-.53-.05c-.16,.66-.08,1.38,.23,1.99,.13,.26,.3,.51,.54,.66,.24,.15,.57,.19,.82,.05,.24-.14,.36-.43,.37-.7,0-.28-.11-.54-.24-.78-.28-.49-.69-.9-1.18-1.17Z" style="fill:#fff;"></path><path d="M118.45,289.18l-.53-.05c-.16,.66-.08,1.38,.23,1.99,.13,.26,.3,.51,.54,.66,.24,.15,.57,.19,.82,.05,.24-.14,.36-.43,.37-.7,0-.28-.11-.54-.24-.78-.28-.49-.69-.9-1.19-1.17Z" style="fill:#fff;"></path><path d="M107.54,286.65l-.53-.05c-.16,.66-.08,1.38,.23,1.99,.13,.26,.3,.51,.54,.66,.24,.15,.57,.19,.82,.05,.24-.14,.36-.43,.37-.7,0-.28-.11-.54-.24-.78-.28-.49-.69-.9-1.18-1.17Z" style="fill:#fff;"></path><path d="M105.08,275.71l-.53-.05c-.16,.66-.08,1.38,.23,1.99,.13,.26,.3,.51,.54,.66,.24,.15,.57,.19,.82,.05,.24-.14,.36-.43,.37-.7,0-.28-.11-.54-.24-.78-.28-.49-.69-.9-1.18-1.17Z" style="fill:#fff;"></path><path d="M94.34,278.4l-.53-.05c-.16,.66-.08,1.38,.23,1.99,.13,.26,.3,.51,.54,.66,.24,.15,.57,.19,.82,.05,.24-.14,.36-.43,.37-.7,0-.28-.11-.54-.24-.78-.28-.49-.69-.9-1.18-1.17Z" style="fill:#fff;"></path><path d="M120.9,265.18l-.53-.05c-.16,.66-.08,1.38,.23,1.99,.13,.26,.3,.51,.54,.66,.24,.15,.57,.19,.82,.05,.24-.14,.36-.43,.37-.7,0-.28-.11-.54-.24-.78-.28-.49-.69-.9-1.19-1.17Z" style="fill:#fff;"></path><path d="M129.28,263.99l-.53-.05c-.16,.66-.08,1.38,.23,1.99,.13,.26,.3,.51,.54,.66,.24,.15,.57,.19,.82,.05,.24-.14,.36-.43,.37-.7,0-.28-.11-.54-.24-.78-.28-.49-.69-.9-1.18-1.17Z" style="fill:#fff;"></path><path d="M126,276.11l-.44-.29c-.45,.51-.72,1.18-.74,1.87,0,.29,.03,.59,.17,.84,.14,.25,.41,.44,.7,.43,.28-.01,.52-.21,.65-.45,.13-.24,.16-.53,.15-.81-.02-.56-.19-1.12-.49-1.59Z" style="fill:#fff;"></path><path d="M97.39,267.97l-.53-.05c-.16,.66-.08,1.38,.23,1.99,.13,.26,.3,.51,.54,.66,.24,.15,.57,.19,.82,.05,.24-.14,.36-.43,.37-.7,0-.28-.11-.54-.24-.78-.28-.49-.69-.9-1.18-1.17Z" style="fill:#fff;"></path><path d="M86.76,265.86l-.53-.05c-.16,.66-.08,1.38,.23,1.99,.13,.26,.3,.51,.54,.66,.24,.15,.57,.19,.82,.05,.24-.14,.36-.43,.37-.7,0-.28-.11-.54-.24-.78-.28-.49-.69-.9-1.19-1.17Z" style="fill:#fff;"></path><path d="M110.11,265.96l-.53-.05c-.16,.66-.08,1.38,.23,1.99,.13,.26,.3,.51,.54,.66,.24,.15,.57,.19,.82,.05,.24-.14,.36-.43,.37-.7,0-.28-.11-.54-.24-.78-.28-.49-.69-.9-1.18-1.17Z" style="fill:#fff;"></path><path d="M114.7,256.12l-.53-.05c-.16,.66-.08,1.38,.23,1.99,.13,.26,.3,.51,.54,.66,.24,.15,.57,.19,.82,.05,.24-.14,.36-.43,.37-.7s-.11-.54-.24-.78c-.28-.49-.69-.9-1.19-1.17Z" style="fill:#fff;"></path><path d="M128.12,253.64l-.53-.05c-.16,.66-.08,1.38,.23,1.99,.13,.26,.3,.51,.54,.66,.24,.15,.57,.19,.82,.05,.24-.14,.36-.43,.37-.7,0-.28-.11-.54-.24-.78-.28-.49-.69-.9-1.18-1.17Z" style="fill:#fff;"></path><path d="M98.36,257.22l-.51-.14c-.28,.62-.33,1.34-.15,2,.08,.28,.2,.55,.41,.75s.53,.3,.8,.2c.26-.09,.44-.35,.49-.62,.05-.27,0-.55-.09-.81-.18-.53-.51-1.01-.95-1.37Z" style="fill:#fff;"></path><path d="M106.1,249.52l-.51-.14c-.28,.62-.33,1.34-.15,2,.08,.28,.2,.55,.41,.75,.21,.2,.53,.3,.8,.2,.26-.09,.44-.35,.49-.62,.05-.27,0-.55-.09-.81-.18-.53-.51-1.01-.95-1.37Z" style="fill:#fff;"></path><path d="M118.42,245.35l-.51-.14c-.28,.62-.33,1.34-.15,2,.08,.28,.2,.55,.41,.75,.21,.2,.53,.3,.8,.2,.26-.09,.44-.35,.49-.62,.05-.27,0-.55-.09-.81-.18-.53-.51-1.01-.95-1.37Z" style="fill:#fff;"></path><path d="M87.12,253.99l-.51-.14c-.28,.62-.33,1.34-.15,2,.08,.28,.2,.55,.41,.75,.21,.2,.53,.3,.8,.2,.26-.09,.44-.35,.49-.62,.05-.27,0-.55-.09-.81-.18-.53-.51-1.01-.95-1.37Z" style="fill:#fff;"></path></g><g><path d="M155.7,86.45c-2.44,1.01-4.67,2.45-6.89,3.87,2.42-3.35,4.03-7.28,4.64-11.36-4.51,2.15-8.06,6.22-9.57,10.98-.33-4.91-1.69-9.75-3.94-14.12-2.65,4.53-2.99,10.34-.88,15.14-3.47-3.07-6.93-6.13-10.4-9.2-.4-.35-.88-.73-1.41-.63-.68,.14-.94,.98-.99,1.67-.27,3.95,1.84,7.77,4.73,10.48,2.89,2.71,6.5,4.51,10.05,6.26l4.95-.49c7.51-1.63,14.15-6.9,17.44-13.85-2.62-.35-5.29,.23-7.73,1.24Z" style="fill:#e0e0e0;"></path><path d="M168.47,108.67c-1.31-4.34-4.73-7.87-8.79-9.9-4.06-2.03-10.03-3.17-15.84-.87,.39,.13-12.16-5-19.34-.88-6.1,3.51-10.58,12.78-10.28,19.81,.23,5.44,2.72,10.53,5.75,15.05,3.03,4.52,6.63,8.64,9.49,13.27,2.15,3.47,4.35,7.59,8.34,8.49,2.08,.47,4.3-.09,6.16-1.14,1.86-1.05,3.41-2.56,4.88-4.11,5.48-5.77,10.14-12.29,14.32-19.06,1.93-3.12,3.77-6.34,4.89-9.83,1.12-3.49,1.48-7.32,.42-10.83Z" style="fill:#ebebeb;"></path><path d="M147.57,148.23c-1.12,1.17-2.52,2.43-4.13,2.22-1.11-.14-4.39-2.99-5.16-3.8-8.33-8.76-11.16-21.29-12.88-33.25-.47-3.23-.88-6.5-.51-9.74,.32-2.87,1.32-5.74,3.18-7.92-1.27,.25-2.48,.66-3.56,1.28-6.1,3.51-10.58,12.78-10.28,19.81,.23,5.44,2.72,10.53,5.75,15.05,3.03,4.52,6.63,8.64,9.49,13.27,2.15,3.47,4.35,7.59,8.34,8.49,2.08,.47,4.3-.09,6.16-1.14,1.86-1.05,3.41-2.56,4.88-4.11,5.48-5.77,10.14-12.29,14.32-19.06,1.93-3.12,3.77-6.34,4.89-9.83,.15-.48,.29-.96,.41-1.45-3.3,7.89-12.47,21.38-20.9,30.18Z" style="fill:#f0f0f0;"></path><path d="M143.92,132.3l-.48-.23c-.38,.57-.56,1.27-.49,1.95,.03,.29,.1,.58,.28,.81,.17,.23,.47,.38,.75,.34,.27-.05,.49-.27,.59-.53,.1-.26,.09-.55,.05-.82-.09-.55-.33-1.08-.7-1.51Z" style="fill:#fff;"></path><path d="M142.3,144.76l-.48-.23c-.38,.57-.56,1.27-.49,1.95,.03,.29,.1,.58,.28,.81,.17,.23,.47,.38,.75,.34,.27-.05,.49-.27,.59-.53s.09-.55,.05-.82c-.09-.55-.33-1.08-.7-1.51Z" style="fill:#fff;"></path><path d="M132.98,138.55l-.48-.23c-.38,.57-.56,1.27-.49,1.95,.03,.29,.1,.58,.28,.81,.17,.23,.47,.38,.75,.34,.27-.05,.49-.27,.59-.53s.09-.55,.05-.82c-.09-.55-.33-1.08-.7-1.51Z" style="fill:#fff;"></path><path d="M134.55,127.44l-.48-.23c-.38,.57-.56,1.27-.49,1.95,.03,.29,.1,.58,.28,.81,.17,.23,.47,.38,.75,.34,.27-.05,.49-.27,.59-.53,.1-.26,.09-.55,.05-.82-.09-.55-.33-1.08-.7-1.51Z" style="fill:#fff;"></path><path d="M123.55,126.16l-.48-.23c-.38,.57-.56,1.27-.49,1.95,.03,.29,.1,.58,.28,.81,.17,.23,.47,.38,.75,.34,.27-.05,.49-.27,.59-.53,.1-.26,.09-.55,.05-.82-.09-.55-.33-1.08-.7-1.51Z" style="fill:#fff;"></path><path d="M153.07,123.18l-.48-.23c-.38,.57-.56,1.27-.49,1.95,.03,.29,.1,.58,.28,.81,.17,.23,.47,.38,.75,.34,.27-.05,.49-.27,.59-.53,.1-.26,.09-.55,.05-.82-.09-.55-.33-1.08-.7-1.51Z" style="fill:#fff;"></path><path d="M161.33,125.03l-.48-.23c-.38,.57-.56,1.27-.49,1.95,.03,.29,.1,.58,.28,.81,.17,.23,.47,.38,.75,.34,.27-.05,.49-.27,.59-.53,.1-.26,.09-.55,.05-.82-.09-.55-.33-1.08-.7-1.51Z" style="fill:#fff;"></path><path d="M153.98,135.2l-.31-.43c-.6,.32-1.09,.85-1.35,1.48-.11,.27-.18,.56-.14,.84,.05,.28,.23,.56,.5,.65,.26,.09,.56,0,.77-.19,.21-.18,.34-.44,.43-.7,.18-.53,.22-1.11,.1-1.66Z" style="fill:#fff;"></path><path d="M130.08,117.48l-.48-.23c-.38,.57-.56,1.27-.49,1.95,.03,.29,.1,.58,.28,.81,.17,.23,.47,.38,.75,.34,.27-.05,.49-.27,.59-.53,.1-.26,.09-.55,.05-.82-.09-.55-.33-1.08-.7-1.51Z" style="fill:#fff;"></path><path d="M120.89,111.75l-.48-.23c-.38,.57-.56,1.27-.49,1.95,.03,.29,.1,.58,.28,.81,.17,.23,.47,.38,.75,.34,.27-.05,.49-.27,.59-.53,.1-.26,.09-.55,.05-.82-.09-.55-.33-1.08-.7-1.51Z" style="fill:#fff;"></path><path d="M142.7,120.1l-.48-.23c-.38,.57-.56,1.27-.49,1.95,.03,.29,.1,.58,.28,.81,.17,.23,.47,.38,.75,.34,.27-.05,.49-.27,.59-.53,.1-.26,.09-.55,.05-.82-.09-.55-.33-1.08-.7-1.51Z" style="fill:#fff;"></path><path d="M150.47,112.51l-.48-.23c-.38,.57-.56,1.27-.49,1.95,.03,.29,.1,.58,.28,.81,.17,.23,.47,.38,.75,.34,.27-.05,.49-.27,.59-.53,.1-.26,.09-.55,.05-.82-.09-.55-.33-1.08-.7-1.51Z" style="fill:#fff;"></path><path d="M163.89,114.93l-.48-.23c-.38,.57-.56,1.27-.49,1.95,.03,.29,.1,.58,.28,.81,.17,.23,.47,.38,.75,.34,.27-.05,.49-.27,.59-.53,.1-.26,.09-.55,.05-.82-.09-.55-.33-1.08-.7-1.51Z" style="fill:#fff;"></path><path d="M134.79,107.77l-.42-.31c-.48,.48-.79,1.14-.85,1.82-.03,.29,0,.59,.12,.85s.39,.46,.67,.47c.28,0,.53-.17,.68-.41,.15-.24,.19-.52,.2-.8,.02-.56-.12-1.13-.4-1.62Z" style="fill:#fff;"></path><path d="M144.75,103.3l-.42-.31c-.48,.48-.79,1.14-.85,1.82-.03,.29,0,.59,.12,.85,.13,.26,.39,.46,.67,.47,.28,0,.53-.17,.68-.41s.19-.52,.2-.8c.02-.56-.12-1.13-.4-1.62Z" style="fill:#fff;"></path><path d="M157.74,103.74l-.42-.31c-.48,.48-.79,1.14-.85,1.82-.03,.29,0,.59,.12,.85,.13,.26,.39,.46,.67,.47,.28,0,.53-.17,.68-.41,.14-.24,.19-.52,.2-.8,.02-.56-.12-1.13-.4-1.62Z" style="fill:#fff;"></path><path d="M125.41,100.77l-.42-.31c-.48,.48-.79,1.14-.85,1.82-.03,.29,0,.59,.12,.84,.13,.26,.39,.46,.67,.47,.28,0,.53-.17,.68-.41,.15-.24,.19-.52,.2-.8,.02-.56-.12-1.13-.4-1.62Z" style="fill:#fff;"></path></g><g><path d="M83.91,304.59c.13,1.52,.52,3,.91,4.48-1.41-1.93-3.29-3.51-5.43-4.57,.39,2.86,2,5.54,4.35,7.21-2.76-.69-5.66-.8-8.47-.33,2.02,2.26,5.16,3.48,8.17,3.17-2.3,1.36-4.6,2.73-6.9,4.09-.27,.16-.56,.36-.6,.66-.05,.4,.37,.69,.75,.84,2.13,.85,4.6,.36,6.6-.74,2-1.11,3.63-2.78,5.23-4.42l.6-2.81c.43-4.42-1.29-9.01-4.53-12.05-.66,1.38-.81,2.95-.69,4.47Z" style="fill:#e0e0e0;"></path><path d="M98.39,301.5c-2.62-.05-5.17,1.21-7,3.08-1.83,1.87-3.52,4.95-3.29,8.56,.14-.19-4.9,5.81-3.91,10.48,.85,3.98,5.16,8.08,9.08,9.17,3.03,.84,6.28,.37,9.3-.5,3.02-.87,5.93-2.12,8.98-2.87,2.29-.57,4.95-1.05,6.15-3.08,.63-1.06,.71-2.38,.46-3.59-.25-1.21-.81-2.33-1.4-3.41-2.2-4.04-4.96-7.75-7.95-11.25-1.38-1.61-2.82-3.2-4.54-4.43-1.72-1.24-3.76-2.11-5.89-2.15Z" style="fill:#ebebeb;"></path><path d="M116.45,320c.45,.83,.89,1.82,.49,2.67-.27,.58-2.42,1.89-3,2.17-6.29,3.03-13.69,2.37-20.57,1.2-1.86-.32-3.73-.67-5.45-1.44-1.52-.69-2.92-1.74-3.79-3.15-.09,.74-.08,1.48,.07,2.19,.85,3.98,5.16,8.08,9.08,9.17,3.03,.84,6.28,.37,9.3-.5,3.02-.87,5.93-2.12,8.98-2.87,2.29-.57,4.95-1.05,6.15-3.08,.63-1.06,.71-2.38,.46-3.59-.25-1.21-.81-2.33-1.4-3.41-2.2-4.04-4.96-7.75-7.95-11.25-1.38-1.61-2.82-3.2-4.54-4.43-.24-.17-.48-.33-.73-.49,3.76,3.21,9.55,10.65,12.9,16.84Z" style="fill:#f0f0f0;"></path><path d="M107.04,319.19l-.21,.22c.24,.31,.6,.53,.98,.62,.16,.04,.34,.05,.49,0,.16-.06,.29-.19,.32-.35,.02-.16-.06-.32-.19-.42-.12-.1-.28-.15-.44-.17-.32-.05-.66,0-.96,.11Z" style="fill:#fff;"></path><path d="M113.61,322.29l-.21,.22c.24,.31,.6,.53,.98,.62,.16,.04,.34,.05,.49,0,.16-.06,.29-.19,.32-.35,.02-.16-.06-.32-.19-.42-.12-.1-.28-.15-.44-.17-.32-.05-.66,0-.96,.11Z" style="fill:#fff;"></path><path d="M108.54,326.31l-.21,.22c.24,.31,.6,.53,.98,.62,.16,.04,.34,.05,.49,0,.16-.06,.29-.19,.32-.35,.02-.16-.06-.32-.19-.42-.12-.1-.28-.15-.44-.17-.32-.05-.66,0-.96,.11Z" style="fill:#fff;"></path><path d="M102.71,323.48l-.21,.22c.24,.31,.6,.53,.98,.62,.16,.04,.34,.05,.49,0s.29-.19,.32-.35c.02-.16-.06-.32-.19-.42s-.28-.15-.44-.17c-.32-.05-.66,0-.96,.11Z" style="fill:#fff;"></path><path d="M100.06,329.31l-.21,.22c.24,.31,.6,.53,.98,.62,.16,.04,.34,.05,.49,0,.16-.06,.29-.19,.32-.35,.02-.16-.06-.32-.19-.42-.12-.1-.28-.15-.44-.17-.32-.05-.66,0-.96,.11Z" style="fill:#fff;"></path><path d="M103.64,312.54l-.21,.22c.24,.31,.6,.53,.98,.62,.16,.04,.34,.05,.49,0s.29-.19,.32-.35c.02-.16-.06-.32-.19-.42s-.28-.15-.44-.17c-.32-.05-.66,0-.96,.11Z" style="fill:#fff;"></path><path d="M106.12,308.32l-.21,.22c.24,.31,.6,.53,.98,.62,.16,.04,.34,.05,.49,0,.16-.06,.29-.19,.32-.35,.02-.16-.06-.32-.19-.42-.12-.1-.28-.15-.44-.17-.32-.05-.66,0-.96,.11Z" style="fill:#fff;"></path><path d="M110.42,314.17l-.29,.1c.07,.39,.28,.75,.58,1.01,.13,.11,.27,.2,.44,.22,.16,.03,.35-.03,.45-.16,.09-.13,.1-.31,.03-.46-.06-.15-.18-.26-.31-.36-.26-.19-.57-.32-.9-.35Z" style="fill:#fff;"></path><path d="M96.44,324.18l-.21,.22c.24,.31,.6,.53,.98,.62,.16,.04,.34,.05,.49,0,.16-.06,.29-.19,.32-.35,.02-.16-.06-.32-.19-.42s-.28-.15-.44-.17c-.32-.05-.66,0-.96,.11Z" style="fill:#fff;"></path><path d="M91.66,328.22l-.21,.22c.24,.31,.6,.53,.98,.62,.16,.04,.34,.05,.49,0,.16-.06,.29-.19,.32-.35,.02-.16-.06-.32-.19-.42s-.28-.15-.44-.17c-.32-.05-.66,0-.96,.11Z" style="fill:#fff;"></path><path d="M100.11,317.7l-.21,.22c.24,.31,.6,.53,.98,.62,.16,.04,.34,.05,.49,0s.29-.19,.32-.35c.02-.16-.06-.32-.19-.42s-.28-.15-.44-.17c-.32-.05-.66,0-.96,.11Z" style="fill:#fff;"></path><path d="M97.32,312.08l-.21,.22c.24,.31,.6,.53,.98,.62,.16,.04,.34,.05,.49,0,.16-.06,.29-.19,.32-.35,.02-.16-.06-.32-.19-.42-.12-.1-.28-.15-.44-.17-.32-.05-.66,0-.96,.11Z" style="fill:#fff;"></path><path d="M101.02,305.13l-.21,.22c.24,.31,.6,.53,.98,.62,.16,.04,.34,.05,.49,0,.16-.06,.29-.19,.32-.35,.02-.16-.06-.32-.19-.42s-.28-.15-.44-.17c-.32-.05-.66,0-.96,.11Z" style="fill:#fff;"></path><path d="M91.93,319.87l-.25,.18c.18,.35,.49,.63,.85,.79,.15,.07,.32,.11,.49,.08,.16-.03,.32-.13,.38-.29,.05-.15,0-.32-.11-.45-.1-.12-.25-.2-.4-.25-.31-.11-.64-.13-.96-.07Z" style="fill:#fff;"></path><path d="M91.23,313.59l-.25,.18c.18,.35,.49,.63,.85,.79,.15,.07,.32,.11,.49,.08,.16-.03,.32-.13,.38-.29,.05-.15,0-.32-.11-.45-.1-.12-.25-.2-.4-.25-.31-.11-.64-.13-.96-.07Z" style="fill:#fff;"></path><path d="M93.78,306.53l-.25,.18c.18,.35,.49,.63,.85,.79,.15,.07,.32,.11,.49,.08,.16-.03,.32-.13,.38-.29,.05-.15,0-.32-.11-.45-.1-.12-.25-.2-.4-.25-.31-.11-.64-.13-.96-.07Z" style="fill:#fff;"></path><path d="M86.42,323.79l-.25,.18c.18,.35,.49,.63,.85,.79,.15,.07,.32,.11,.49,.08,.16-.03,.32-.13,.38-.29,.05-.15,0-.32-.11-.45s-.25-.2-.4-.25c-.31-.11-.64-.13-.96-.07Z" style="fill:#fff;"></path></g><g><path d="M395.34,308.96c-2.9-.28-5.82-.05-8.72,.19,4.1-1.99,7.7-4.98,10.42-8.64-5.5-.25-11.07,1.87-15.02,5.71,2.23-4.95,3.43-10.36,3.5-15.79-4.93,3.02-8.28,8.5-8.72,14.27-1.78-4.78-3.56-9.57-5.34-14.35-.21-.55-.48-1.17-1.04-1.34-.74-.22-1.42,.46-1.83,1.11-2.32,3.7-2.25,8.51-.85,12.65,1.4,4.14,3.98,7.76,6.52,11.31l5.07,2.09c8.16,2.32,17.35,.64,24.16-4.41-2.36-1.7-5.26-2.53-8.16-2.81Z" style="fill:#e0e0e0;"></path><path d="M396.21,337.21c.98-4.91-.51-10.11-3.41-14.19-2.89-4.08-8.1-8.29-14.95-9.08,.31,.33-9.23-11.18-18.35-10.9-7.75,.24-16.93,6.94-20.29,13.93-2.6,5.4-2.82,11.66-2.23,17.63,.6,5.97,1.96,11.85,2.34,17.84,.29,4.5,.29,9.64,3.69,12.59,1.78,1.54,4.23,2.15,6.58,2.09,2.35-.06,4.65-.72,6.89-1.46,8.33-2.76,16.24-6.68,23.83-11.1,3.5-2.04,6.96-4.2,9.86-7.02s5.24-6.35,6.04-10.32Z" style="fill:#ebebeb;"></path><path d="M355.33,364.82c-1.7,.56-3.71,1.05-5.17,.01-1-.71-2.72-5.19-3.05-6.37-3.55-12.84,.21-26.5,4.75-39.03,1.22-3.38,2.53-6.78,4.56-9.74,1.8-2.62,4.26-4.9,7.2-6.05-1.36-.42-2.75-.65-4.13-.6-7.75,.24-16.93,6.94-20.29,13.93-2.6,5.4-2.82,11.66-2.23,17.63,.6,5.97,1.96,11.85,2.34,17.84,.29,4.5,.29,9.64,3.69,12.59,1.78,1.54,4.23,2.15,6.58,2.09,2.35-.06,4.65-.72,6.89-1.46,8.33-2.76,16.24-6.68,23.83-11.1,3.5-2.04,6.96-4.2,9.86-7.02,.4-.39,.78-.79,1.16-1.2-7.31,5.96-23.23,14.31-36,18.49Z" style="fill:#f0f0f0;"></path><path d="M360.07,347.43l-.34-.47c-.66,.35-1.2,.94-1.49,1.64-.12,.29-.2,.62-.15,.93,.05,.31,.25,.62,.56,.72,.29,.1,.62,0,.85-.21,.23-.2,.37-.48,.47-.77,.2-.59,.24-1.23,.11-1.83Z" style="fill:#fff;"></path><path d="M352.01,358.71l-.34-.47c-.66,.35-1.2,.94-1.49,1.64-.12,.29-.2,.62-.15,.93,.05,.31,.25,.62,.56,.72,.29,.1,.62,0,.85-.21,.23-.2,.37-.48,.47-.77,.2-.59,.24-1.23,.11-1.83Z" style="fill:#fff;"></path><path d="M346.18,347.83l-.34-.47c-.66,.35-1.2,.94-1.49,1.64-.12,.29-.2,.62-.15,.93s.25,.62,.56,.72c.29,.1,.62,0,.85-.21,.23-.2,.37-.48,.47-.77,.2-.59,.24-1.23,.11-1.83Z" style="fill:#fff;"></path><path d="M353.47,337.84l-.34-.47c-.66,.35-1.2,.94-1.49,1.64-.12,.29-.2,.62-.15,.93s.25,.62,.56,.72c.29,.1,.62,0,.85-.21s.37-.48,.47-.77c.2-.59,.24-1.23,.11-1.83Z" style="fill:#fff;"></path><path d="M343.44,330.88l-.34-.47c-.66,.35-1.2,.94-1.49,1.64-.12,.29-.2,.62-.15,.93,.05,.31,.25,.62,.56,.72,.29,.1,.62,0,.85-.21,.23-.2,.37-.48,.47-.77,.2-.59,.24-1.23,.11-1.83Z" style="fill:#fff;"></path><path d="M373.7,343.32l-.34-.47c-.66,.35-1.2,.94-1.49,1.64-.12,.29-.2,.62-.15,.93s.25,.62,.56,.72c.29,.1,.62,0,.85-.21,.23-.2,.37-.48,.47-.77,.2-.59,.24-1.23,.11-1.83Z" style="fill:#fff;"></path><path d="M380.77,349.41l-.34-.47c-.66,.35-1.2,.94-1.49,1.64-.12,.29-.2,.62-.15,.93s.25,.62,.56,.72c.29,.1,.62,0,.85-.21s.37-.48,.47-.77c.2-.59,.24-1.23,.11-1.83Z" style="fill:#fff;"></path><path d="M368.34,355.48l-.08-.58c-.75,0-1.5,.26-2.09,.74-.25,.2-.47,.45-.57,.75-.1,.3-.07,.66,.15,.89,.21,.22,.55,.28,.85,.22,.3-.07,.56-.25,.78-.46,.45-.42,.79-.97,.96-1.57Z" style="fill:#fff;"></path><path d="M354.31,325.83l-.34-.47c-.66,.35-1.2,.94-1.49,1.64-.12,.29-.2,.62-.15,.93,.05,.31,.25,.62,.56,.72,.29,.1,.62,0,.85-.21,.23-.2,.37-.48,.47-.77,.2-.59,.24-1.23,.11-1.83Z" style="fill:#fff;"></path><path d="M348.34,315.49l-.34-.47c-.66,.35-1.2,.94-1.49,1.64-.12,.29-.2,.62-.15,.93,.05,.31,.25,.62,.56,.72,.29,.1,.62,0,.85-.21,.23-.2,.37-.48,.47-.77,.2-.59,.24-1.23,.11-1.83Z" style="fill:#fff;"></path><path d="M365.21,334.93l-.34-.47c-.66,.35-1.2,.94-1.49,1.64-.12,.29-.2,.62-.15,.93,.05,.31,.25,.62,.56,.72,.29,.1,.62,0,.85-.21s.37-.48,.47-.77c.2-.59,.24-1.23,.11-1.83Z" style="fill:#fff;"></path><path d="M376.71,331.59l-.34-.47c-.66,.35-1.2,.94-1.49,1.64-.12,.29-.2,.62-.15,.93s.25,.62,.56,.72c.29,.1,.62,0,.85-.21s.37-.48,.47-.77c.2-.59,.24-1.23,.11-1.83Z" style="fill:#fff;"></path><path d="M388.51,340.92l-.34-.47c-.66,.35-1.2,.94-1.49,1.64-.12,.29-.2,.62-.15,.93,.05,.31,.25,.62,.56,.72,.29,.1,.62,0,.85-.21,.23-.2,.37-.48,.47-.77,.2-.59,.24-1.23,.11-1.83Z" style="fill:#fff;"></path><path d="M363.93,318.83l-.25-.53c-.72,.22-1.36,.7-1.77,1.33-.17,.27-.31,.57-.32,.88,0,.32,.13,.65,.41,.81,.27,.15,.61,.11,.87-.05s.46-.4,.61-.67c.31-.54,.46-1.16,.45-1.78Z" style="fill:#fff;"></path><path d="M375.94,319.66l-.25-.53c-.72,.22-1.36,.7-1.77,1.33-.17,.27-.31,.57-.32,.88,0,.32,.13,.65,.41,.81,.27,.15,.61,.11,.87-.05s.46-.4,.61-.67c.31-.54,.46-1.16,.45-1.78Z" style="fill:#fff;"></path><path d="M388.34,326.85l-.25-.53c-.72,.22-1.36,.7-1.77,1.33-.17,.27-.31,.57-.32,.88,0,.32,.13,.65,.41,.81,.27,.15,.61,.11,.87-.05,.26-.15,.46-.4,.61-.67,.31-.54,.46-1.16,.45-1.78Z" style="fill:#fff;"></path><path d="M358.45,307.16l-.25-.53c-.72,.22-1.36,.7-1.77,1.33-.17,.27-.31,.57-.32,.88,0,.32,.13,.65,.41,.81,.27,.15,.61,.11,.87-.05,.26-.15,.46-.4,.61-.67,.31-.54,.46-1.16,.45-1.78Z" style="fill:#fff;"></path></g></g><g id="freepik--Shadow--inject-14"><path d="M458.88,442.01c0,3.39-93.52,6.13-208.88,6.13s-208.88-2.75-208.88-6.13,93.52-6.13,208.88-6.13,208.88,2.75,208.88,6.13Z" style="fill:#f5f5f5;"></path></g><g id="freepik--Slush--inject-14"><g><path d="M266.53,130.06l-33.14-.28c-40.93,6.86-71.96,39.93-71.96,79.7h175.46c0-39.24-30.23-71.97-70.36-79.41Z" style="fill:#407BFF;"></path><g><rect x="242.84" y="68.85" width="14.32" height="164.37" style="fill:#407BFF;"></rect><polyline points="242.84 143.9 257.16 130.71 257.16 109.35 242.84 121.81 242.84 142.46" style="fill:#fff; opacity:.8;"></polyline><polyline points="242.84 185.13 257.16 171.95 257.16 150.59 242.84 163.05 242.84 183.7" style="fill:#fff; opacity:.8;"></polyline><polyline points="242.84 226.36 257.16 213.18 257.16 191.82 242.84 204.28 242.84 218.94 242.84 224.93" style="fill:#fff; opacity:.8;"></polyline><polyline points="242.84 104.85 257.16 91.67 257.16 70.3 242.84 82.76 242.84 103.41" style="fill:#fff; opacity:.8;"></polyline></g><path d="M266.35,130.06l-33.14-.28c-40.93,6.86-71.96,39.93-71.96,79.7h175.46c0-39.24-30.23-71.97-70.36-79.41Z" style="fill:#fff; opacity:.8;"></path><polygon points="252.53 214.34 245.43 214.34 161.11 214.34 170.26 295.3 176.79 306.4 189.19 429.16 195.72 435.69 195.72 442.87 245.43 442.87 252.53 442.87 302.23 442.87 302.23 435.69 308.76 429.16 321.17 306.4 327.7 295.3 336.84 214.34 252.53 214.34" style="fill:#407BFF;"></polygon><polygon points="252.53 214.34 245.43 214.34 161.11 214.34 170.26 295.3 176.79 306.4 189.19 429.16 195.72 435.69 195.72 442.87 245.43 442.87 252.53 442.87 302.23 442.87 302.23 435.69 308.76 429.16 321.17 306.4 327.7 295.3 336.84 214.34 252.53 214.34" style="fill:#fff; opacity:.8;"></polygon><polygon points="201.54 437.06 201.54 433.28 194.77 426.51 182.44 304.55 175.9 293.42 167.62 220.15 330.33 220.15 322.06 293.42 315.51 304.55 303.19 426.51 296.42 433.28 296.42 437.06 201.54 437.06" style="fill:#407BFF;"></polygon><polygon points="201.54 437.06 201.54 433.28 194.77 426.51 182.44 304.55 175.9 293.42 167.62 220.15 330.33 220.15 322.06 293.42 315.51 304.55 303.19 426.51 296.42 433.28 296.42 437.06 201.54 437.06" style="fill:#fff; opacity:.3;"></polygon><path d="M189.19,373.15l5.08,7.7,2.1,1.17v10.73s2.33,3.03,3.97,3.27c1.63,.23,4.67,2.52,5.37,1.03,.7-1.49,.94-1.49,1.64-1.96,.7-.47,2.8,1.96,2.8,1.96,0,0,1.63,4.53,1.63,5.25s-1.17,1.65,0,2.59c1.17,.93-.23,1.87,2.57,2.1,2.8,.23,2.8,.47,4.2,0,1.4-.47,3.5-1.4,3.5-1.4,0,0-.23-2.37,0-3.29,.23-.91,2.1-3.01,2.1-3.01,0,0,5.13,.7,5.6,0,.47-.7,3.05-3.73,3.39-5.37,.34-1.63,1.97-1.83,1.74-3.71s-1.12-3.05,.02-3.98c1.14-.93,3.01-1.17,4.41-1.4,1.4-.23,3.27,0,3.5-1.17,.23-1.17,0-1.87,0-3.03s-.73-.23,.1-2.33,1.06-.93,1.76-3.27c.7-2.33-2.57-1.17,0-3.5,2.57-2.33,1.87-2.1,4.32-3.27,2.45-1.17,7.81-1.17,7.81-1.17l3.03,1.4s.93,.47,1.87,.7c.93,.23,1.4,12.36,1.4,12.36l3.97-.93s4.43-1.17,4.43-2.8,1.4-3.03,1.17-4.2c-.23-1.17-1.35-1.63,.03-3.5,1.37-1.87,3.01-3.03,3.94-3.03s4.03,2.33,4,0c-.03-2.33,.03-5.37,0-7s1.14-3.5,1.14-3.5c0,0,4.2-.23,4.78-1.63,.58-1.4,.12-4.2,1.75-5.83,1.63-1.63,2.5-3.03,4.17-3.73,1.66-.7,5.75,0,5.75,0l1.28,3.97-1.28,5.13s3.61,1.87,4.54,1.63c.93-.23,2.1,1.4,2.1,1.4,0,0-2.1,4.9-1.63,5.6,.47,.7,2.8,3.03,2.8,3.03l2.75,1.17-5.58,59.19-6.77,6.77v3.78h-94.88v-3.78l-6.77-6.77-5.58-55.18" style="opacity:.1;"></path><polygon points="170.26 295.3 327.7 295.3 321.17 306.4 176.79 306.4 170.26 295.3" style="opacity:.3;"></polygon><polygon points="189.19 429.16 308.76 429.16 302.23 435.69 195.72 435.69 189.19 429.16" style="opacity:.3;"></polygon><path d="M176.44,295.48c46.01-.66,97.16-.65,143.21,0-46.05,.65-97.18,.66-143.21,0h0Z" style="fill:#fff;"></path><path d="M207.34,429.16c29.19-.66,61.65-.65,90.86,0-29.22,.65-61.66,.66-90.86,0h0Z" style="fill:#fff;"></path><path d="M329.09,213.76c-.35-1.65-1.39-6.28-1.39-6.28l-4.47-3.8-3.58-3.11-6.09-8.12s-5.18-1.89-7.75,0-5.02-1.89-7.43-1.55c-2.42,.35-2.42-2.42-3.72-2.76-1.31-.35,0-2.42,0-2.42l-1.45-1.73-6.67-4.83-5.06-.69-4.49-.35-4.14-2.42-5.18-2.76v-4s-4.14-.83-5.87,0c-1.73,.83-3.8,0-3.8,0h-4.14l-3.86-6.35-4.42-.69-4.83-1.74-6.21,2.43s-2.07,3.11-3.11,5.2c-1.04,2.09-3.11,3.43-3.11,3.43h-4.49s-3.45,.69-6.56,2.07c-3.11,1.38,0,0-3.45,1.73,0,0,.34,2.07,0,3.11-.35,1.04,0,2.42,0,2.42l-2.42,2.19-6.56,.92s-7.94-2.07-10.7,0l-3.11,2.42s-1.73-1.04-2.42,0c-.69,1.04-.69,1.73-1.73,3.11-1.04,1.38,0,4.83,0,4.83,0,0-3.8,1.38-6.56,3.11-2.76,1.73,0,0-1.04,2.11-1.04,2.11-1.38,1.34-2.88,2.38-1.5,1.04,0,3.11,0,3.11v4.75s-1.61-.61-2.99,0c-1.38,.61-1.04,2.15-2.07,4.87v3.72l-3.76,2.09h162.71s-.9-4.73-1.24-6.39Z" style="fill:#407BFF;"></path><path d="M329.09,213.76c-.35-1.65-1.39-6.28-1.39-6.28l-4.47-3.8-3.58-3.11-6.09-8.12s-5.18-1.89-7.75,0-5.02-1.89-7.43-1.55c-2.42,.35-2.42-2.42-3.72-2.76-1.31-.35,0-2.42,0-2.42l-1.45-1.73-6.67-4.83-5.06-.69-4.49-.35-4.14-2.42-5.18-2.76v-4s-4.14-.83-5.87,0c-1.73,.83-3.8,0-3.8,0h-4.14l-3.86-6.35-4.42-.69-4.83-1.74-6.21,2.43s-2.07,3.11-3.11,5.2c-1.04,2.09-3.11,3.43-3.11,3.43h-4.49s-3.45,.69-6.56,2.07c-3.11,1.38,0,0-3.45,1.73,0,0,.34,2.07,0,3.11-.35,1.04,0,2.42,0,2.42l-2.42,2.19-6.56,.92s-7.94-2.07-10.7,0l-3.11,2.42s-1.73-1.04-2.42,0c-.69,1.04-.69,1.73-1.73,3.11-1.04,1.38,0,4.83,0,4.83,0,0-3.8,1.38-6.56,3.11-2.76,1.73,0,0-1.04,2.11-1.04,2.11-1.38,1.34-2.88,2.38-1.5,1.04,0,3.11,0,3.11v4.75s-1.61-.61-2.99,0c-1.38,.61-1.04,2.15-2.07,4.87v3.72l-3.76,2.09h162.71s-.9-4.73-1.24-6.39Z" style="fill:#fff; opacity:.3;"></path><g><polygon points="156.9 218.06 161 209.47 337.48 209.47 343.1 218.06 156.9 218.06" style="fill:#407BFF;"></polygon><polygon points="156.9 218.06 161 209.47 337.48 209.47 343.1 218.06 156.9 218.06" style="fill:#fff; opacity:.7;"></polygon></g><path d="M174.04,181.96s14.08-37.48,58.19-45.88h30.97s-12.89,29.92-29.33,37.81c-16.44,7.89-59.83,8.08-59.83,8.08Z" style="fill:#fff; opacity:.4;"></path><path d="M189.26,249.13c1.32-1.99,2.68-3.95,4.07-5.88,.72,.24,1.47,.43,2.22,.55,.82,.07,1.96,.33,2.39-.44,.5-1.11,1.53-1.85,2.68-2.2l-.35,.35,1.09-4.2,.05-.17,.15-.1,3.1-2.19,.22-.16c2.21,1.01,4.39,2.06,6.58,3.13l-.2-.02c2.22-.46,4.45-.87,6.69-1.24-2.17,.66-4.36,1.27-6.55,1.85-.1,.04-.11,.02-.2-.02-2.16-.89-4.32-1.79-6.47-2.72l.47-.05-3.08,2.23,.19-.28-1.11,4.19-.07,.26c-.66,.17-1.36,.49-1.86,.99-.44,.37-.5,.92-.96,1.29-.84,.64-2.03,.4-2.9,.24-.71-.16-1.39-.36-2.07-.63l.36-.1c-1.45,1.8-2.93,3.58-4.44,5.33h0Z" style="fill:#fff;"></path><path d="M225.52,263c1.36-1.57,3.96-4.58,5.34-6.13l.16,.05,4.29,1.24-.37,.11c1.15-1.44,2.28-2.9,3.45-4.32,0,0,.02-.02,.02-.03l2.24-2.32,.18-.18,.25,.06,6.53,1.51,.28,.06c.55,1.84,1.05,3.7,1.57,5.55l-.4-.34,4.04,.53h.1l.08,.06,4.22,2.54,.1,.06,.05,.09,1.45,2.79-.3-.18,5.77,.12h.15c.95,2.09,1.93,4.15,2.86,6.25-1.1-1.96-2.14-3.95-3.22-5.92l.2,.13-5.77,.12h-.2l-.11-.18-1.56-2.73,.15,.15-4.26-2.47,.17,.06-4.05-.48-.31-.04c-.53-1.86-1.1-3.7-1.61-5.57l.36,.34-6.51-1.59,.43-.12c-2.03,1.95-3.99,4.32-5.83,6.47l-.15,.18-.21-.07-4.24-1.4,.27-.07c-1.38,1.42-4.21,4.26-5.61,5.66h0Z" style="fill:#fff;"></path><path d="M261.03,236.11c.68-1.49,1.38-2.96,2.12-4.41,1.69,.65,3.4,1.28,5.08,1.97l-.61,.28c.4-1.43,.85-2.84,1.28-4.26,.99-.52,2.02-.43,2.92-.32,2.51,.39,4.87,1.36,7.15,2.43l.09,.04,.04,.07c.79,1.38,1.54,2.79,2.26,4.2-.95-1.28-1.87-2.57-2.76-3.9l.13,.11c-2.28-.85-4.64-1.63-7.04-1.99-.77-.09-1.6-.1-2.14,.15l.24-.29c-.43,1.34-.84,2.69-1.3,4.02l-.16,.48-.45-.2c-1.58-.69-3.14-1.45-4.7-2.18l.36-.12c-.8,1.32-1.64,2.62-2.51,3.91h0Z" style="fill:#fff;"></path><path d="M298.84,270.72c-.16-1.62-.29-3.25-.38-4.88,1.79-.29,3.58-.61,5.38-.85l-.39,.55c-.37-1.44-.69-2.88-1.04-4.32,.59-.94,1.54-1.39,2.36-1.74,2.37-.92,4.89-1.27,7.4-1.49h.1l.07,.03c1.37,.8,2.73,1.64,4.06,2.5-1.46-.63-2.91-1.29-4.34-1.99l.17,.03c-2.4,.41-4.83,.92-7.09,1.81-.71,.31-1.43,.72-1.78,1.21l.06-.37c.3,1.38,.62,2.75,.9,4.13l.1,.5-.49,.06c-1.72,.19-3.44,.32-5.16,.48l.25-.29c-.03,1.55-.11,3.09-.21,4.64h0Z" style="fill:#fff;"></path><path d="M207.34,331.06c.96-.79,2.57-2.08,3.26-2.58l2.58-4.73,.05-.1c1.53-.85,3.05-1.71,4.59-2.54,3.06-.03,6.12,0,9.18,.06,.45,1.69,.88,3.39,1.31,5.08l-.27-.2c1.69,.06,3.38,.16,5.07,.28-.84,.07-1.69,.11-2.53,.16-.91,.05-1.82,.11-2.73,.12-.53-1.63-1.08-3.26-1.59-4.89l.41,.31c-2.91,.05-5.81,.08-8.72,.06l.23-.06c-1.47,.79-2.95,1.54-4.43,2.31l.16-.16-2.89,4.55c-1.18,.82-2.45,1.57-3.69,2.33h0Z" style="fill:#fff;"></path><path d="M260.32,348.97c2.89,2.12,5.73,4.31,8.55,6.51l-.38-.03c1.58-.9,3.15-1.84,4.74-2.71l5.66-2.39-.29,.44c-.01-1.77-.03-3.54,0-5.31,.4-1,.8-2.01,1.46-2.89,.16-.18,.28-.38,.63-.54,2.08-.38,4.16-.06,6.24,0l-.42,.34c.53-2.97,1.01-5.95,1.58-8.91,1.34-.84,2.67-1.68,4.03-2.49-1.24,.94-2.5,1.84-3.76,2.76l.08-.13c-.34,2.97-.76,5.93-1.13,8.89l-.04,.35h-.38c-1.93-.01-3.94-.23-5.84,.03-.69,.62-1.14,1.94-1.51,2.85l.03-.17c.02,1.84,0,3.69-.01,5.54l-.29,.12-5.7,2.31c-1.42,.79-3.36,1.77-4.96,2.61-2.79-2.36-5.57-4.74-8.29-7.19h0Z" style="fill:#fff;"></path><path d="M248.98,411.55c1.13,2.02,2.22,4.07,3.26,6.13l-.29-.18c2.08-.07,4.17-.12,6.25-.15l-.45,.32c.89-2.75,1.81-5.48,2.75-8.21,2.63-.32,5.25-.62,7.89-.88l-.29,.26c.73-2.96,1.49-5.9,2.32-8.83-.51,3.08-1.1,6.14-1.71,9.2-2.59,.42-5.2,.8-7.8,1.17l.39-.32c-.9,2.76-1.83,5.5-2.78,8.24-2.27-.02-4.53-.08-6.8-.16-.96-2.17-1.88-4.37-2.76-6.58h0Z" style="fill:#fff;"></path><path d="M261.03,200.84c1.06-1.32,2.54-3.06,3.46-4.13l1.59-3.52,.09-.2h.24c1.68-.06,3.35-.09,5.03-.11l.11,.06,3.02,1.62-.65,.17,2.25-3.7,.21-.34,.38,.13c1.95,.7,3.9,1.41,5.85,2.14,1.01,.96,2.03,1.93,3,2.93,.55,.97,1.12,2.16,1.86,2.94,1.56-.24,3.12-.69,4.68-1.02-1.54,.54-3.06,1.1-4.66,1.48-.04,.02-.17-.01-.26-.05-.86-.66-1.82-2.37-2.16-2.94-1-.88-2.02-1.75-3-2.65-1.1-.23-3.96-1.36-5.64-1.9l.59-.21-2.26,3.7-.24,.4-.41-.23-3-1.68,.22,.06c-1.64-.02-3.28-.05-4.91-.1l.32-.2-1.77,3.43c-1.28,1.32-2.6,2.62-3.92,3.9h0Z" style="fill:#fff;"></path><path d="M204.54,191.82c.37-1.41,.57-2.9,1.85-3.89,1.34-.42,3.1-.28,4.3-.26,1.02-.06,2.06-.11,3.08-.15v.51c.02,1.26,.02,2.53,0,3.79l-.38-.47c2.78,.62,5.51,1.37,8.1,2.57l.08,.03c.29,.7,.59,1.41,.86,2.12-.4-.63-.77-1.27-1.15-1.91l.1,.09c-1.2-.3-2.37-.68-3.55-1.02-1.37-.23-3.15-.61-4.65-.94l-.37-.08v-.39c-.02-1.26-.02-2.53,0-3.79l.5,.49c-.87,.03-1.75,.04-2.62,.05-1.15-.05-2.93-.32-4.05-.11-1.08,.73-1.56,2.2-2.1,3.37h0Z" style="fill:#fff;"></path><path d="M234.92,183.16c.24-1.01,.33-1.98,.89-2.89,.3-.24,.5-.26,.74-.37,.43-.16,1.65-.54,2.11-.69l-.27,.3c.09-.65,.11-1.39,.26-2.05,.35-.85,1.03-1.25,1.8-1.59l2.86-.62c1.34,.14,2.7,.47,4.03,.71v.38c-.02,1.23-.07,2.47-.13,3.7l-.26-.33c1.05,.29,2.1,.57,3.14,.9,.49,.44,.98,.88,1.45,1.34-.55-.34-1.09-.71-1.63-1.07-.81-.05-2.31-.39-3.35-.56-.07-1.33-.12-2.66-.14-3.99l.38,.45c-1.16-.17-2.31-.37-3.47-.56h.19l-2.87,.57,.08-.03c-.51,.21-1.12,.6-1.25,.95-.05,.15-.13,.7-.17,.9-.03,.18-.21,1.07-.24,1.23-.82,.2-2.18,.43-2.94,.73-.48,.58-.87,1.84-1.2,2.55h0Z" style="fill:#fff;"></path><path d="M186.85,258.27c1.31-.62,9.17,8.58,9.17,8.58l4.8,6.09s4.3,.87,6.52,0,2.66-2.58,6.59-2.16c3.93,.42,3.87,1.19,6.3,2.55,2.43,1.36,9.4,9.22,9.4,9.22l6.14,3.49h7.07l5.2-4.37,4.72,2.18v4.8h4.39c1.76-3.49,0-5.24,0-5.24,0,0,5.25-3.49,6.56-3.93,1.31-.44,7.96,.44,7.96,.44l11.26,6.55s5.68-3.49,6.55-4.8,2.65-5.52,2.65-5.52c0,0,4.28-3.06,6.06-2.7s3.52,4.17,5.71,2.7c2.18-1.47,6.55,0,7.43-2.7,.87-2.7,5.08-6.6,5.08-6.6l3.24-2.36,5.41,2.36-3,26.57-6.55,11.13-1.75,17.29-18.59,4.49-2.69-7.08-3.43-3.06-6.55-.87-2.79,1.31-5.07,1.75v7.96l-2.96,2.28h-7.09s-4.51-.58-3.56,2.46c.94,3.03,0,6.97,0,6.97,0,0-7.86,6.12-8.26,4.8-.4-1.31-3.79,.18-3.79,.18h-6.14l-3.58,6.37s-1.75,.85-3.06,2.17-3.08,3.94-3.08,3.94l-9.15-2.38,1.31-6.52s1.31-4.2,0-5.51-5.05-3.49-5.05-3.49l-6.3,1.31-6.59,1.31s6.08,3.93,0,8.3l-6.08,4.37-7.43-4.37-2.18-9.61v-7.84c0-1.77-2.46-4.73-2.46-4.73h-4.55l-2.2-21.78-6.55-11.13-4.04-34.93,2.76-9.36h3.49l3.06,5.46,5.68,3.68Z" style="fill:#fff; opacity:.1;"></path><path d="M226.85,368.96l-3.3-1.1c-1.54,1.76-1.76,3.52-1.76,3.52v1.76h2.53s1.87,1.76,2.53,1.1,1.98-1.1,1.98-1.76v-3.3l-1.98-.22Z" style="opacity:.1;"></path><path d="M289.43,259.26l-3.3-1.1c-1.54,1.76-1.76,3.52-1.76,3.52v1.76h2.53s1.87,1.76,2.53,1.1c.66-.66,1.98-1.1,1.98-1.76v-3.3l-1.98-.22Z" style="opacity:.1;"></path><path d="M233.98,230.52l-3.3-1.1c-1.54,1.76-1.76,3.52-1.76,3.52v1.76h2.53s1.87,1.76,2.53,1.1c.66-.66,1.98-1.1,1.98-1.76v-3.3l-1.98-.22Z" style="fill:#fff; opacity:.1;"></path><polygon points="235.83 359.85 233.07 362.01 232.7 363.5 235.46 365.22 237.4 365.22 238.96 363.5 235.83 359.85" style="opacity:.1;"></polygon><polygon points="279.35 271.18 276.59 273.34 276.21 274.83 278.97 276.55 280.91 276.55 282.48 274.83 279.35 271.18" style="opacity:.1;"></polygon><path d="M329.09,213.76c-.35-1.65-1.39-6.28-1.39-6.28l-4.47-3.8-3.58-3.11-6.09-8.12s-5.18-1.89-7.75,0-5.02-1.89-7.43-1.55c-.05,0-.1,0-.14,.01-.15,.93-.31,1.95-.31,2.13,0,.34-2.14,.79-2.59,.9-.45,.11-3.83-3.79-3.83-3.79h-7.77l-2.14-2.14-2.14-3.98-6.2,1.09-4.84,.49-4.06-.49h-8.11l-6.24-4.36-3.13-.72v-3.1s-.97-.77-1.32-.83-2.14-.37-2.14-.37h-1.36l-2.61,1.3-.7,2.53-2.02,.56-1.81,1.32-2.11,2.26-1.35-4.26s-2.25-.14-2.59,0c-.34,.14-1.01,1.89-1.13,2.51-.11,.62-.68,3.32-.79,4-.11,.68-7.21,2.07-7.21,2.07l-.68-4.87-5.58-1.7-.46-.17h0l-1.62,1.46-6.56,.92s-7.94-2.07-10.7,0l-3.11,2.42s-1.73-1.04-2.42,0c-.69,1.04-.69,1.73-1.73,3.11-1.04,1.38,0,4.83,0,4.83,0,0-3.8,1.38-6.56,3.11-2.76,1.73,0,0-1.04,2.11-1.04,2.11-1.38,1.34-2.88,2.38-1.5,1.04,0,3.11,0,3.11v4.75s-1.61-.61-2.99,0c-1.38,.61-1.04,2.15-2.07,4.87v3.72l-3.76,2.09h162.71s-.9-4.73-1.24-6.39Z" style="fill:none;"></path><path d="M169.84,196.08c3.62-22.87,20.04-42.79,40.57-52.92,6.88-3.41,14.24-5.93,21.81-7.08-3.75,.78-7.43,1.82-11.01,3.15-25.05,8.91-45.89,30.53-51.38,56.85h0Z" style="fill:#fff;"></path><path d="M164.7,209.49c51.14-.65,108.52-.66,159.66,0-51.14,.66-108.52,.65-159.66,0h0Z" style="fill:#fff;"></path></g></g><g id="freepik--Strawberries--inject-14"><g><path d="M174.89,418.24c-2.36-1.91-5.03-3.38-7.69-4.84,4.71,.62,9.56,.09,14.02-1.53-4.64-3.37-10.7-4.73-16.34-3.66,4.78-3.03,8.93-7.04,12.11-11.72-6.03-.2-12.08,2.64-15.78,7.4,1.2-5.18,2.4-10.36,3.59-15.54,.14-.6,.26-1.29-.14-1.77-.51-.62-1.5-.42-2.23-.08-4.14,1.89-6.84,6.11-8,10.52-1.16,4.4-1,9.03-.82,13.58l3.21,4.73c5.76,6.7,14.72,10.51,23.54,10.03-1.07-2.84-3.13-5.22-5.48-7.12Z" style="fill:#263238;"></path><path d="M159.44,443.31c3.67-3.7,5.36-9.09,5.18-14.3-.18-5.21-2.29-11.86-7.79-16.48,.08,.47-1.61-15.02-9.7-20.01-6.88-4.24-18.7-3.68-25.64,.47-5.36,3.21-9.15,8.52-12.05,14.05s-5.1,11.43-8.2,16.85c-2.33,4.07-5.29,8.55-4.02,13.07,.66,2.36,2.45,4.29,4.53,5.59,2.08,1.3,4.46,2.04,6.83,2.68,8.83,2.38,17.96,3.51,27.09,4.02,4.21,.24,8.47,.34,12.61-.44,4.14-.78,8.2-2.51,11.17-5.51Z" style="fill:#407BFF;"></path><g style="opacity:.3;"><path d="M108.05,443.86c-1.8-.49-3.83-1.21-4.5-2.96-.46-1.19,.61-6.07,1.01-7.29,4.28-13.21,15.39-22.93,26.53-31.22,3-2.24,6.09-4.44,9.56-5.85,3.07-1.24,6.52-1.81,9.74-1.13-.95-1.14-2.02-2.14-3.25-2.9-6.88-4.24-18.7-3.68-25.64,.47-5.36,3.21-9.15,8.52-12.05,14.05s-5.1,11.43-8.2,16.85c-2.33,4.07-5.29,8.55-4.02,13.07,.66,2.36,2.45,4.29,4.53,5.59,2.08,1.3,4.46,2.04,6.83,2.68,8.83,2.38,17.96,3.51,27.09,4.02,4.21,.24,8.47,.34,12.61-.44,.57-.11,1.13-.23,1.7-.38-9.78,.99-28.42-.89-41.92-4.58Z" style="fill:#fff;"></path></g><path d="M122.14,431.46l-.03-.61c-.78-.08-1.59,.13-2.24,.57-.27,.18-.53,.42-.66,.72-.14,.3-.13,.68,.07,.94,.2,.25,.54,.35,.86,.31s.6-.21,.85-.4c.51-.39,.91-.93,1.15-1.53Z" style="fill:#fff;"></path><path d="M108.66,436.64l-.03-.61c-.78-.07-1.59,.13-2.24,.57-.27,.19-.53,.42-.66,.72-.14,.3-.13,.68,.07,.94,.2,.25,.54,.35,.86,.31,.31-.04,.6-.21,.85-.4,.51-.39,.91-.93,1.15-1.53Z" style="fill:#fff;"></path><path d="M109.84,423.83l-.03-.61c-.78-.07-1.59,.13-2.24,.57-.27,.18-.53,.42-.66,.72-.14,.3-.13,.68,.07,.94,.2,.25,.54,.35,.86,.31,.31-.04,.6-.21,.85-.4,.51-.39,.91-.93,1.15-1.53Z" style="fill:#fff;"></path><path d="M121.91,419.33l-.03-.61c-.78-.08-1.59,.13-2.24,.57-.27,.18-.53,.42-.66,.72-.14,.3-.13,.68,.07,.94,.2,.25,.54,.35,.86,.31,.31-.04,.6-.21,.85-.4,.51-.39,.91-.93,1.15-1.53Z" style="fill:#fff;"></path><path d="M117.18,407.52l-.03-.61c-.78-.08-1.59,.13-2.24,.57-.27,.18-.53,.42-.66,.72-.14,.3-.13,.68,.07,.94,.2,.25,.54,.35,.86,.31,.31-.04,.6-.21,.85-.4,.51-.39,.91-.93,1.15-1.53Z" style="fill:#fff;"></path><path d="M136.36,435.7l-.03-.61c-.78-.08-1.59,.13-2.24,.57-.27,.18-.53,.42-.66,.72s-.13,.68,.07,.94c.2,.25,.54,.35,.86,.31s.6-.21,.85-.4c.51-.39,.91-.93,1.15-1.53Z" style="fill:#fff;"></path><path d="M139.02,445.06l-.03-.61c-.78-.07-1.59,.13-2.24,.57-.27,.18-.53,.42-.66,.72-.14,.3-.13,.68,.07,.94,.2,.25,.54,.35,.86,.31,.31-.04,.6-.21,.85-.4,.51-.39,.91-.93,1.15-1.53Z" style="fill:#fff;"></path><path d="M124.72,443.2l.26-.55c-.65-.43-1.46-.63-2.24-.55-.33,.03-.66,.12-.93,.32-.26,.2-.44,.54-.38,.87,.05,.31,.31,.56,.61,.67,.3,.11,.63,.1,.94,.05,.64-.11,1.24-.39,1.73-.81Z" style="fill:#fff;"></path><path d="M129.53,409.36l-.03-.61c-.78-.08-1.59,.13-2.24,.57-.27,.18-.53,.42-.66,.72-.14,.3-.13,.68,.07,.94,.2,.25,.54,.35,.86,.31,.31-.04,.6-.21,.85-.4,.51-.39,.91-.93,1.15-1.53Z" style="fill:#fff;"></path><path d="M130.27,396.94l-.03-.61c-.78-.08-1.59,.13-2.24,.57-.27,.18-.53,.42-.66,.72-.14,.3-.13,.68,.07,.94,.2,.25,.54,.35,.86,.31,.31-.04,.6-.21,.85-.4,.51-.39,.91-.93,1.15-1.53Z" style="fill:#fff;"></path><path d="M133.79,423.54l-.03-.61c-.78-.08-1.59,.13-2.24,.57-.27,.18-.53,.42-.66,.72-.14,.3-.13,.68,.07,.94,.2,.25,.54,.35,.86,.31,.31-.04,.6-.21,.85-.4,.51-.39,.91-.93,1.15-1.53Z" style="fill:#fff;"></path><path d="M145.71,427.23l-.03-.61c-.78-.07-1.59,.13-2.24,.57-.27,.18-.53,.42-.66,.72s-.13,.68,.07,.94c.2,.25,.54,.35,.86,.31,.31-.04,.6-.21,.85-.4,.51-.39,.91-.93,1.15-1.53Z" style="fill:#fff;"></path><path d="M150.62,442.12l-.03-.61c-.78-.07-1.59,.13-2.24,.57-.27,.18-.53,.42-.66,.72-.14,.3-.13,.68,.07,.94,.2,.25,.54,.35,.86,.31s.6-.21,.85-.4c.51-.39,.91-.93,1.15-1.53Z" style="fill:#fff;"></path><path d="M141.91,408.8l.08-.6c-.75-.22-1.58-.17-2.3,.14-.3,.13-.6,.31-.79,.58-.19,.27-.26,.65-.11,.94,.15,.28,.47,.44,.79,.46s.63-.09,.91-.23c.58-.29,1.07-.74,1.41-1.29Z" style="fill:#fff;"></path><path d="M151.89,416.42l.08-.6c-.75-.22-1.58-.17-2.3,.14-.3,.13-.6,.31-.79,.58-.19,.27-.26,.65-.11,.94,.15,.28,.47,.44,.79,.46,.32,.02,.63-.09,.91-.23,.58-.29,1.07-.74,1.41-1.29Z" style="fill:#fff;"></path><path d="M158.55,429.78l.08-.6c-.75-.22-1.58-.17-2.3,.14-.3,.13-.6,.31-.79,.58-.19,.27-.26,.64-.11,.94,.15,.28,.47,.44,.79,.46s.63-.09,.91-.23c.58-.29,1.07-.74,1.41-1.29Z" style="fill:#fff;"></path><path d="M143.85,395.5l.08-.6c-.75-.22-1.58-.17-2.3,.14-.3,.13-.6,.31-.79,.58-.19,.27-.26,.64-.11,.94,.15,.28,.47,.44,.79,.46s.63-.09,.91-.23c.58-.29,1.07-.74,1.41-1.29Z" style="fill:#fff;"></path></g><g><path d="M352.73,89.55c-1.69,2.68-2.9,5.64-4.1,8.57,.07-4.96-1.07-9.94-3.29-14.38-2.94,5.23-3.61,11.69-1.81,17.41-3.72-4.6-8.4-8.42-13.64-11.15,.52,6.28,4.21,12.23,9.6,15.49-5.53-.62-11.06-1.23-16.58-1.85-.64-.07-1.38-.11-1.82,.36-.58,.61-.25,1.61,.19,2.33,2.46,4.07,7.18,6.36,11.89,7.03,4.71,.67,9.5-.06,14.21-.79l4.53-3.91c6.26-6.8,9.13-16.57,7.56-25.67-2.82,1.46-5.04,3.88-6.73,6.56Z" style="fill:#263238;"></path><path d="M380.65,102.56c-4.29-3.36-10.09-4.46-15.48-3.65-5.39,.81-12.05,3.82-16.17,10.1,.48-.14-15.41,3.5-19.61,12.51-3.57,7.66-1.55,19.87,3.6,26.58,3.98,5.18,9.96,8.47,16.06,10.81,6.1,2.35,12.49,3.91,18.5,6.48,4.52,1.93,9.53,4.45,14.07,2.58,2.37-.98,4.16-3.06,5.26-5.38,1.1-2.32,1.58-4.88,1.95-7.42,1.4-9.46,1.47-19.08,.89-28.63-.27-4.4-.68-8.83-1.99-13.04-1.32-4.21-3.61-8.22-7.08-10.94Z" style="fill:#407BFF;"></path><g style="opacity:.3;"><path d="M387.45,155.88c-.29,1.93-.8,4.13-2.52,5.04-1.18,.62-6.38,.1-7.7-.16-14.24-2.84-25.69-13.21-35.65-23.77-2.69-2.85-5.35-5.78-7.23-9.22-1.66-3.04-2.67-6.55-2.35-9.98-1.07,1.12-1.98,2.36-2.61,3.72-3.57,7.66-1.55,19.87,3.6,26.58,3.98,5.18,9.96,8.47,16.06,10.81,6.1,2.35,12.49,3.91,18.5,6.48,4.52,1.93,9.53,4.45,14.07,2.58,2.37-.98,4.16-3.06,5.26-5.38,1.1-2.32,1.58-4.88,1.95-7.42,1.4-9.46,1.47-19.08,.89-28.63-.27-4.4-.68-8.83-1.99-13.04-.18-.58-.38-1.15-.6-1.72,2.21,10.04,2.53,29.63,.33,44.1Z" style="fill:#fff;"></path></g><path d="M372.86,142.75l-.63,.1c.02,.82,.33,1.63,.86,2.25,.23,.26,.5,.5,.83,.6,.33,.1,.72,.05,.97-.19,.24-.23,.3-.61,.21-.93-.08-.32-.29-.6-.52-.84-.47-.48-1.08-.83-1.73-1.01Z" style="fill:#fff;"></path><path d="M379.88,156.12l-.63,.1c.02,.82,.33,1.63,.86,2.25,.23,.26,.5,.5,.83,.6,.33,.1,.72,.05,.97-.19,.24-.23,.3-.61,.21-.93-.08-.32-.29-.6-.52-.84-.47-.48-1.08-.83-1.73-1.01Z" style="fill:#fff;"></path><path d="M366.43,156.45l-.63,.1c.02,.82,.33,1.63,.86,2.25,.23,.26,.5,.5,.83,.6,.33,.1,.72,.05,.97-.19,.24-.23,.3-.61,.21-.93-.08-.32-.29-.6-.52-.84-.47-.48-1.08-.83-1.73-1.01Z" style="fill:#fff;"></path><path d="M360.29,144.46l-.63,.1c.02,.82,.33,1.63,.86,2.25,.23,.26,.5,.5,.83,.6,.33,.1,.72,.05,.97-.19,.24-.23,.3-.61,.21-.93-.08-.32-.29-.6-.52-.84-.47-.48-1.08-.83-1.73-1.01Z" style="fill:#fff;"></path><path d="M348.59,150.8l-.63,.1c.02,.82,.33,1.63,.86,2.25,.23,.26,.5,.5,.83,.6,.33,.1,.72,.05,.97-.19,.24-.23,.3-.61,.21-.93-.08-.32-.29-.6-.52-.84-.47-.48-1.08-.83-1.73-1.01Z" style="fill:#fff;"></path><path d="M375.54,127.46l-.63,.1c.02,.82,.33,1.63,.86,2.25,.23,.26,.5,.5,.83,.6,.33,.1,.72,.05,.97-.19,.24-.23,.3-.61,.21-.93-.08-.32-.29-.6-.52-.84-.47-.48-1.08-.83-1.73-1.01Z" style="fill:#fff;"></path><path d="M384.94,123.57l-.63,.1c.02,.82,.33,1.63,.86,2.25,.23,.26,.5,.5,.83,.6,.33,.1,.72,.05,.97-.19,.24-.23,.3-.61,.21-.93s-.29-.6-.52-.84c-.47-.48-1.08-.83-1.73-1.01Z" style="fill:#fff;"></path><path d="M384.74,138.64l-.6-.2c-.37,.73-.48,1.59-.3,2.39,.08,.34,.21,.68,.45,.92,.24,.25,.61,.39,.94,.29,.32-.1,.55-.4,.63-.72,.08-.32,.03-.66-.06-.98-.19-.65-.56-1.24-1.05-1.7Z" style="fill:#fff;"></path><path d="M349.01,137.76l-.63,.1c.02,.82,.33,1.63,.86,2.25,.23,.26,.5,.5,.83,.6,.33,.1,.72,.05,.97-.19,.24-.23,.3-.61,.21-.93-.08-.32-.29-.6-.52-.84-.47-.48-1.08-.83-1.73-1.01Z" style="fill:#fff;"></path><path d="M336.01,138.49l-.63,.1c.02,.82,.33,1.63,.86,2.25,.23,.26,.5,.5,.83,.6,.33,.1,.72,.05,.97-.19,.24-.23,.3-.61,.21-.93-.08-.32-.29-.6-.52-.84-.47-.48-1.08-.83-1.73-1.01Z" style="fill:#fff;"></path><path d="M363.22,131.6l-.63,.1c.02,.82,.33,1.63,.86,2.25,.23,.26,.5,.5,.83,.6,.33,.1,.72,.05,.97-.19,.24-.23,.3-.61,.21-.93-.08-.32-.29-.6-.52-.84-.47-.48-1.08-.83-1.73-1.01Z" style="fill:#fff;"></path><path d="M365.61,118.78l-.63,.1c.02,.82,.33,1.63,.86,2.25,.23,.26,.5,.5,.83,.6,.33,.1,.72,.05,.97-.19,.24-.23,.3-.61,.21-.93-.08-.32-.29-.6-.52-.84-.47-.48-1.08-.83-1.73-1.01Z" style="fill:#fff;"></path><path d="M380.47,111.87l-.63,.1c.02,.82,.33,1.63,.86,2.25,.23,.26,.5,.5,.83,.6,.33,.1,.72,.05,.97-.19,.24-.23,.3-.61,.21-.93-.08-.32-.29-.6-.52-.84-.47-.48-1.08-.83-1.73-1.01Z" style="fill:#fff;"></path><path d="M346.92,124.96h-.63c-.14,.79,.02,1.65,.42,2.36,.17,.3,.4,.58,.7,.75,.3,.16,.7,.19,.99,0,.28-.19,.4-.54,.38-.87-.02-.33-.17-.64-.35-.92-.37-.56-.9-1.02-1.51-1.31Z" style="fill:#fff;"></path><path d="M353.62,113.67h-.63c-.14,.79,.02,1.65,.42,2.36,.17,.3,.4,.58,.7,.75,.3,.16,.7,.19,.99,0,.28-.19,.4-.54,.38-.87-.02-.33-.17-.64-.35-.92-.37-.56-.9-1.02-1.51-1.31Z" style="fill:#fff;"></path><path d="M366.7,105.13h-.63c-.14,.79,.02,1.65,.42,2.36,.17,.3,.4,.58,.7,.75,.3,.16,.7,.19,.99,0,.28-.19,.4-.54,.38-.87-.02-.33-.17-.64-.35-.92-.37-.56-.9-1.02-1.51-1.31Z" style="fill:#fff;"></path><path d="M332.87,124.56h-.63c-.14,.79,.02,1.65,.42,2.36,.17,.3,.4,.58,.7,.75,.3,.16,.7,.19,.99,0,.28-.19,.4-.54,.38-.87-.02-.33-.17-.64-.35-.92-.37-.56-.9-1.02-1.51-1.31Z" style="fill:#fff;"></path></g><g><path d="M418.1,190.45c-2-.3-4.03-.24-6.04-.19,2.91-1.23,5.52-3.17,7.53-5.61-3.8-.37-7.74,.89-10.61,3.41,1.72-3.35,2.75-7.05,3-10.81-3.53,1.92-6.04,5.59-6.56,9.57-1.06-3.38-2.12-6.76-3.18-10.13-.12-.39-.29-.83-.67-.97-.5-.18-1,.27-1.31,.7-1.74,2.48-1.87,5.82-1.05,8.73s2.47,5.52,4.11,8.07l3.44,1.63c5.57,1.9,11.99,1.07,16.89-2.18-1.57-1.27-3.55-1.94-5.55-2.24Z" style="fill:#263238;"></path><path d="M417.69,210.04c.86-3.36,.01-7.02-1.85-9.95-1.86-2.93-5.31-6.04-10.03-6.83,.2,.24-5.99-8.08-12.32-8.21-5.38-.11-11.98,4.19-14.56,8.91-2,3.65-2.38,7.97-2.18,12.13s.93,8.28,.97,12.44c.04,3.12-.15,6.69,2.1,8.86,1.18,1.13,2.85,1.64,4.48,1.69,1.63,.05,3.25-.33,4.82-.76,5.87-1.61,11.49-4.04,16.91-6.83,2.5-1.28,4.97-2.66,7.09-4.51,2.11-1.85,3.86-4.21,4.56-6.93Z" style="fill:#407BFF;"></path><g style="opacity:.3;"><path d="M388.37,227.69c-1.2,.32-2.61,.59-3.58-.18-.67-.53-1.7-3.69-1.88-4.52-2-9.02,1.11-18.35,4.7-26.86,.97-2.3,1.99-4.6,3.51-6.58,1.35-1.75,3.13-3.24,5.21-3.93-.93-.34-1.88-.55-2.84-.57-5.38-.11-11.98,4.19-14.56,8.91-2,3.65-2.38,7.97-2.18,12.13s.93,8.28,.97,12.44c.04,3.12-.15,6.69,2.1,8.86,1.18,1.13,2.85,1.64,4.48,1.69,1.63,.05,3.25-.33,4.82-.76,5.87-1.61,11.49-4.04,16.91-6.83,2.5-1.28,4.97-2.66,7.09-4.51,.29-.25,.57-.52,.85-.79-5.28,3.86-16.61,9.07-25.61,11.5Z" style="fill:#fff;"></path></g><path d="M392.28,215.82l-.22-.34c-.47,.22-.87,.61-1.09,1.08-.1,.2-.16,.42-.14,.64,.02,.22,.15,.44,.36,.52,.2,.08,.43,.02,.6-.11,.17-.13,.28-.32,.35-.52,.16-.4,.21-.84,.14-1.27Z" style="fill:#fff;"></path><path d="M386.29,223.33l-.22-.34c-.47,.22-.87,.61-1.09,1.08-.1,.2-.16,.42-.14,.64,.02,.22,.15,.44,.36,.52,.2,.08,.43,.02,.6-.11,.17-.13,.28-.32,.35-.52,.16-.4,.21-.84,.14-1.27Z" style="fill:#fff;"></path><path d="M382.65,215.58l-.22-.34c-.47,.22-.87,.61-1.09,1.08-.1,.2-.16,.42-.14,.64,.02,.22,.15,.44,.36,.52,.2,.08,.43,.02,.6-.11,.17-.13,.28-.32,.35-.52,.16-.4,.21-.84,.14-1.27Z" style="fill:#fff;"></path><path d="M388.06,208.93l-.22-.34c-.47,.22-.87,.61-1.09,1.08-.1,.2-.16,.42-.14,.64,.02,.22,.15,.44,.36,.52,.2,.08,.43,.02,.6-.11,.17-.13,.28-.32,.35-.52,.16-.4,.21-.84,.14-1.27Z" style="fill:#fff;"></path><path d="M381.36,203.75l-.22-.34c-.47,.22-.87,.61-1.09,1.08-.1,.2-.16,.42-.14,.64,.02,.22,.15,.44,.36,.52,.2,.08,.43,.02,.6-.11,.17-.13,.28-.32,.35-.52,.16-.4,.21-.84,.14-1.27Z" style="fill:#fff;"></path><path d="M401.87,213.46l-.22-.34c-.47,.22-.87,.61-1.09,1.08-.1,.2-.16,.42-.14,.64s.15,.44,.36,.52c.2,.08,.43,.02,.6-.11,.17-.13,.28-.32,.35-.52,.16-.4,.21-.84,.14-1.27Z" style="fill:#fff;"></path><path d="M406.55,217.93l-.22-.34c-.47,.22-.87,.61-1.09,1.08-.1,.2-.16,.42-.14,.64,.02,.22,.15,.44,.36,.52,.2,.08,.43,.02,.6-.11,.17-.13,.28-.32,.35-.52,.16-.4,.21-.84,.14-1.27Z" style="fill:#fff;"></path><path d="M397.72,221.69l-.04-.4c-.52-.03-1.05,.13-1.47,.44-.18,.13-.34,.29-.42,.5-.08,.2-.07,.46,.07,.62,.14,.16,.37,.22,.58,.18,.21-.04,.39-.15,.56-.29,.33-.28,.58-.64,.72-1.05Z" style="fill:#fff;"></path><path d="M389.07,200.64l-.22-.34c-.47,.22-.87,.61-1.09,1.08-.1,.2-.16,.42-.14,.64,.02,.22,.15,.44,.36,.52,.2,.08,.43,.02,.6-.11,.17-.13,.28-.32,.35-.52,.16-.4,.21-.84,.14-1.27Z" style="fill:#fff;"></path><path d="M385.31,193.26l-.22-.34c-.47,.22-.87,.61-1.09,1.08-.1,.2-.16,.42-.14,.64,.02,.22,.15,.44,.36,.52,.2,.08,.43,.02,.6-.11,.17-.13,.28-.32,.35-.52,.16-.4,.21-.84,.14-1.27Z" style="fill:#fff;"></path><path d="M396.3,207.34l-.22-.34c-.47,.22-.87,.61-1.09,1.08-.1,.2-.16,.42-.14,.64,.02,.22,.15,.44,.36,.52,.2,.08,.43,.02,.6-.11,.17-.13,.28-.32,.35-.52,.16-.4,.21-.84,.14-1.27Z" style="fill:#fff;"></path><path d="M404.38,205.44l-.22-.34c-.47,.22-.87,.61-1.09,1.08-.1,.2-.16,.42-.14,.64,.02,.22,.15,.44,.36,.52,.2,.08,.43,.02,.6-.11,.17-.13,.28-.32,.35-.52,.16-.4,.21-.84,.14-1.27Z" style="fill:#fff;"></path><path d="M412.22,212.33l-.22-.34c-.47,.22-.87,.61-1.09,1.08-.1,.2-.16,.42-.14,.64,.02,.22,.15,.44,.36,.52,.2,.08,.43,.02,.6-.11,.17-.13,.28-.32,.35-.52,.16-.4,.21-.84,.14-1.27Z" style="fill:#fff;"></path><path d="M395.99,196.14l-.15-.37c-.51,.13-.96,.44-1.27,.86-.13,.18-.24,.38-.26,.6-.02,.22,.07,.46,.26,.57,.18,.11,.42,.1,.61,0,.19-.1,.33-.26,.45-.44,.23-.36,.36-.79,.38-1.22Z" style="fill:#fff;"></path><path d="M404.28,197.15l-.15-.37c-.51,.13-.96,.44-1.27,.86-.13,.18-.24,.38-.26,.6-.02,.22,.07,.46,.26,.57,.18,.11,.42,.1,.61,0,.19-.1,.33-.26,.45-.44,.23-.36,.36-.79,.38-1.22Z" style="fill:#fff;"></path><path d="M412.61,202.58l-.15-.37c-.51,.13-.96,.44-1.27,.86-.13,.18-.24,.38-.26,.6-.02,.22,.07,.46,.26,.57,.18,.11,.42,.1,.61,0,.19-.1,.33-.26,.45-.44,.23-.36,.36-.79,.38-1.22Z" style="fill:#fff;"></path><path d="M392.62,187.86l-.15-.37c-.51,.13-.96,.44-1.27,.86-.13,.18-.24,.38-.26,.6-.02,.22,.07,.46,.26,.57,.18,.11,.42,.1,.61,0,.19-.1,.33-.26,.45-.44,.23-.36,.36-.79,.38-1.22Z" style="fill:#fff;"></path></g><g><path d="M229.44,413.25c-3.03,.05-6.03,.63-9,1.21,4.01-2.54,7.4-6.06,9.79-10.16-5.73,.38-11.25,3.22-14.89,7.66,1.73-5.38,2.34-11.12,1.79-16.75-4.76,3.71-7.59,9.76-7.37,15.79-2.4-4.75-4.8-9.49-7.2-14.24-.28-.55-.63-1.16-1.24-1.27-.79-.15-1.42,.64-1.77,1.37-1.97,4.1-1.34,9.08,.59,13.2,1.93,4.12,5.02,7.57,8.07,10.96l5.5,1.58c8.71,1.45,18.04-1.36,24.5-7.37-2.64-1.49-5.74-2-8.78-1.96Z" style="fill:#263238;"></path><path d="M233.64,442.4c.45-5.19-1.71-10.41-5.18-14.3-3.47-3.89-9.36-7.65-16.54-7.66,.36,.31-10.86-10.51-20.27-9.15-8,1.15-16.72,9.15-19.39,16.78-2.07,5.9-1.57,12.4-.25,18.51,1.31,6.11,3.4,12.04,4.5,18.2,.82,4.62,1.42,9.95,5.29,12.61,2.02,1.39,4.63,1.73,7.06,1.4,2.43-.33,4.73-1.29,6.96-2.32,8.31-3.83,16.04-8.81,23.38-14.27,3.38-2.52,6.72-5.16,9.4-8.42,2.68-3.25,4.69-7.19,5.05-11.39Z" style="fill:#407BFF;"></path><g style="opacity:.3;"><path d="M233.64,442.4c.45-5.19-1.71-10.41-5.18-14.3-3.47-3.89-9.36-7.65-16.54-7.66,.36,.31-10.86-10.51-20.27-9.15-8,1.15-16.72,9.15-19.39,16.78-2.07,5.9-1.57,12.4-.25,18.51,1.31,6.11,3.4,12.04,4.5,18.2,.82,4.62,1.42,9.95,5.29,12.61,2.02,1.39,4.63,1.73,7.06,1.4,2.43-.33,4.73-1.29,6.96-2.32,8.31-3.83,16.04-8.81,23.38-14.27,3.38-2.52,6.72-5.16,9.4-8.42,2.68-3.25,4.69-7.19,5.05-11.39Z"></path></g><g style="opacity:.1;"><path d="M194.52,475.75c-1.7,.78-3.72,1.52-5.35,.62-1.12-.62-3.42-5.06-3.9-6.24-5.17-12.89-2.87-27.47,.38-40.97,.87-3.64,1.83-7.31,3.59-10.61,1.56-2.92,3.84-5.57,6.76-7.1-1.46-.27-2.93-.35-4.35-.14-8,1.15-16.72,9.15-19.39,16.78-2.07,5.9-1.57,12.4-.25,18.51,1.31,6.11,3.4,12.04,4.5,18.2,.82,4.62,1.42,9.95,5.29,12.61,2.02,1.39,4.63,1.73,7.06,1.4,2.43-.33,4.73-1.29,6.96-2.32,8.31-3.83,16.04-8.81,23.38-14.27,3.38-2.52,6.72-5.16,9.4-8.42,.37-.45,.72-.91,1.06-1.38-6.88,7.02-22.39,17.52-35.13,23.33Z" style="fill:#fff;"></path></g><path d="M197.4,457.19l-.41-.45c-.65,.44-1.13,1.11-1.35,1.87-.09,.32-.14,.66-.05,.98,.09,.32,.33,.61,.66,.68,.31,.07,.64-.08,.85-.31,.21-.23,.33-.54,.4-.85,.14-.63,.1-1.3-.1-1.91Z" style="fill:#fff;"></path><path d="M190.36,469.81l-.41-.45c-.65,.44-1.13,1.11-1.35,1.87-.09,.32-.14,.66-.05,.98,.09,.32,.33,.61,.66,.68,.31,.07,.64-.08,.85-.31,.21-.23,.33-.54,.4-.85,.14-.63,.1-1.3-.1-1.91Z" style="fill:#fff;"></path><path d="M183.06,459.21l-.41-.45c-.65,.44-1.13,1.11-1.35,1.87-.09,.32-.14,.66-.05,.98,.09,.32,.34,.61,.66,.68,.31,.07,.64-.08,.85-.31,.21-.23,.33-.54,.4-.85,.14-.63,.1-1.3-.1-1.91Z" style="fill:#fff;"></path><path d="M189.45,448.03l-.41-.45c-.65,.44-1.13,1.11-1.35,1.87-.09,.32-.14,.66-.05,.98,.09,.32,.33,.61,.66,.68,.31,.07,.64-.08,.85-.31,.21-.23,.33-.54,.4-.85,.14-.63,.1-1.3-.1-1.91Z" style="fill:#fff;"></path><path d="M178.25,441.98l-.41-.45c-.65,.44-1.13,1.11-1.35,1.87-.09,.32-.14,.66-.05,.98,.09,.32,.33,.61,.66,.68,.31,.07,.64-.08,.85-.31,.21-.23,.33-.54,.4-.85,.14-.63,.1-1.3-.1-1.91Z" style="fill:#fff;"></path><path d="M211.03,451.34l-.41-.45c-.65,.44-1.13,1.11-1.35,1.87-.09,.32-.14,.66-.05,.98,.09,.32,.34,.61,.66,.68,.31,.07,.64-.08,.85-.31,.21-.23,.33-.54,.4-.85,.14-.63,.1-1.3-.1-1.91Z" style="fill:#fff;"></path><path d="M219.07,456.82l-.41-.45c-.65,.44-1.13,1.11-1.35,1.87-.09,.32-.14,.66-.05,.98,.09,.32,.34,.61,.66,.68,.31,.07,.64-.08,.85-.31,.21-.23,.33-.54,.4-.85,.14-.63,.1-1.3-.1-1.91Z" style="fill:#fff;"></path><path d="M206.9,464.56l-.15-.59c-.78,.09-1.53,.45-2.07,1.01-.23,.24-.43,.52-.5,.84-.07,.32,0,.69,.26,.91,.24,.21,.6,.23,.9,.13s.55-.32,.75-.57c.42-.49,.7-1.1,.81-1.73Z" style="fill:#fff;"></path><path d="M188.92,435.49l-.41-.45c-.65,.44-1.13,1.11-1.35,1.87-.09,.32-.14,.66-.05,.98,.09,.32,.34,.61,.66,.68,.31,.07,.64-.08,.85-.31,.21-.23,.33-.54,.4-.85,.14-.63,.1-1.3-.1-1.91Z" style="fill:#fff;"></path><path d="M181.53,425.47l-.41-.45c-.65,.44-1.13,1.11-1.35,1.87-.09,.32-.14,.66-.05,.98,.09,.32,.34,.61,.66,.68,.31,.07,.64-.08,.85-.31,.21-.23,.33-.54,.4-.85,.14-.63,.1-1.3-.1-1.91Z" style="fill:#fff;"></path><path d="M201.27,443.65l-.41-.45c-.65,.44-1.13,1.11-1.35,1.87-.09,.32-.14,.66-.05,.98,.09,.32,.33,.61,.66,.68,.31,.07,.64-.08,.85-.31,.21-.23,.33-.54,.4-.85,.14-.63,.1-1.3-.1-1.91Z" style="fill:#fff;"></path><path d="M212.79,438.85l-.41-.45c-.65,.44-1.13,1.11-1.35,1.87-.09,.32-.14,.66-.05,.98,.09,.32,.34,.61,.66,.68,.31,.07,.64-.08,.85-.31,.21-.23,.33-.54,.4-.85,.14-.63,.1-1.3-.1-1.91Z" style="fill:#fff;"></path><path d="M226.09,447.14l-.41-.45c-.65,.44-1.13,1.11-1.35,1.87-.09,.32-.14,.66-.05,.98s.34,.61,.66,.68c.31,.07,.64-.08,.85-.31,.21-.23,.33-.54,.4-.85,.14-.63,.1-1.3-.1-1.91Z" style="fill:#fff;"></path><path d="M198.07,427.13l-.32-.52c-.72,.31-1.32,.88-1.68,1.58-.15,.3-.26,.62-.23,.95,.03,.33,.22,.66,.52,.79,.29,.12,.64,.04,.9-.15,.25-.19,.43-.47,.55-.76,.26-.59,.35-1.26,.26-1.9Z" style="fill:#fff;"></path><path d="M210.6,426.58l-.32-.52c-.72,.31-1.32,.88-1.68,1.58-.15,.3-.26,.62-.23,.95,.03,.33,.22,.66,.52,.79,.29,.12,.64,.04,.9-.15,.25-.19,.43-.47,.55-.76,.26-.59,.35-1.26,.26-1.9Z" style="fill:#fff;"></path><path d="M224.28,432.58l-.32-.52c-.72,.31-1.32,.88-1.68,1.58-.15,.3-.26,.62-.23,.95,.03,.33,.22,.66,.52,.79,.29,.12,.64,.04,.9-.15,.25-.19,.43-.47,.55-.76,.26-.59,.35-1.26,.26-1.9Z" style="fill:#fff;"></path><path d="M191.03,415.68l-.32-.52c-.72,.31-1.32,.88-1.68,1.58-.15,.3-.26,.62-.23,.95,.03,.33,.22,.66,.52,.79,.29,.12,.64,.04,.9-.15,.25-.19,.43-.47,.55-.76,.26-.59,.35-1.26,.26-1.9Z" style="fill:#fff;"></path></g></g></svg>
